<svg xmlns="http://www.w3.org/2000/svg" version="1.1" xmlns:xlink="http://www.w3.org/1999/xlink" xmlns:svgjs="http://svgjs.dev/svgjs" viewBox="0 0 1422 800">
	<defs>
		<filter id="llleaves-blur-2" x="-100%" y="-100%" width="400%" height="400%">
			<feGaussianBlur in="SourceGraphic" stdDeviation="2">
			</feGaussianBlur>
		</filter>
		<filter id="llleaves-blur-3" x="-100%" y="-100%" width="400%" height="400%">
			<feGaussianBlur in="SourceGraphic" stdDeviation="4">
			</feGaussianBlur>
		</filter>
		<filter id="llleaves-blur-4" x="-100%" y="-100%" width="400%" height="400%">
			<feGaussianBlur in="SourceGraphic" stdDeviation="12">
			</feGaussianBlur>
		</filter>
	</defs>
	<g fill="hsl(181, 66%, 67%)">
		<path d="M295 221H345C373 221 395 243 395 271H345C317 271 295 249 295 221Z " transform="matrix(0.0386402440369311,0.21913971351223888,-0.21913971351223888,0.0386402440369311,385.57748533126954,160.89129880519255)" filter="url(#llleaves-blur-3)" opacity="0.34">
		</path>
		<path d="M1023 461H1073C1101 461 1123 483 1123 511H1073C1045 511 1023 489 1023 461Z " transform="matrix(-0.3511346402268057,-0.24586712201336355,0.24586712201336355,-0.3511346402268057,1330.2760476648677,920.4668570705667)" opacity="0.66">
		</path>
		<path d="M514 532H564C592 532 614 554 614 582H564C536 582 514 560 514 532Z " transform="matrix(-0.08662679521872188,0.25158248097240826,-0.25158248097240826,-0.08662679521872188,752.9889544049906,463.3586056683898)" filter="url(#llleaves-blur-3)" opacity="0.41">
		</path>
		<path d="M37 72H87C115 72 137 94 137 122H87C59 122 37 100 37 72Z " transform="matrix(-0.29778852484133267,0.15173083197406295,-0.15173083197406295,-0.29778852484133267,127.62549236268005,112.6849045278658)" filter="url(#llleaves-blur-2)" opacity="0.51">
		</path>
		<path d="M248 695H298C326 695 348 717 348 745H298C270 745 248 723 248 695Z " transform="matrix(0.02379865993686611,0.22642912416145003,-0.22642912416145003,0.02379865993686611,453.9369687350579,635.3890858453443)" filter="url(#llleaves-blur-3)" opacity="0.35">
		</path>
		<path d="M454 691H504C532 691 554 713 554 741H504C476 741 454 719 454 691Z " transform="matrix(-0.01266918956553665,0.24174253782274577,-0.24174253782274577,-0.01266918956553665,683.4729286221165,603.2329006662603)" filter="url(#llleaves-blur-3)" opacity="0.37">
		</path>
		<path d="M1169 543H1219C1247 543 1269 565 1269 593H1219C1191 593 1169 571 1169 543Z " transform="matrix(-0.3847190696510221,-0.09592123729177578,0.09592123729177578,-0.3847190696510221,1633.4892831228676,903.4484198204552)" filter="url(#llleaves-blur-2)" opacity="0.61">
		</path>
		<path d="M628 375H678C706 375 728 397 728 425H678C650 425 628 403 628 375Z " transform="matrix(-0.23536054704255102,0.20459580214926174,-0.20459580214926174,-0.23536054704255102,919.4127717545543,355.4282649598209)" filter="url(#llleaves-blur-2)" opacity="0.48">
		</path>
		<path d="M1291 243H1341C1369 243 1391 265 1391 293H1341C1313 293 1291 271 1291 243Z " transform="matrix(-0.3591895672473898,0.05048080159733904,-0.05048080159733904,-0.3591895672473898,1836.2020645068367,296.5680490802688)" filter="url(#llleaves-blur-2)" opacity="0.56">
		</path>
		<path d="M636 62H686C714 62 736 84 736 112H686C658 112 636 90 636 62Z " transform="matrix(-0.28970466483781165,0.16058591796768976,-0.16058591796768976,-0.28970466483781165,898.7083749419278,2.0423661150544348)" filter="url(#llleaves-blur-2)" opacity="0.51">
		</path>
		<path d="M520 219H570C598 219 620 241 620 269H570C542 269 520 247 520 219Z " transform="matrix(-0.08662679521872188,0.25158248097240826,-0.25158248097240826,-0.08662679521872188,680.763398631939,121.73492387909543)" filter="url(#llleaves-blur-3)" opacity="0.41">
		</path>
		<path d="M849 63H899C927 63 949 85 949 113H899C871 113 849 91 849 63Z " transform="matrix(-0.30456481346734465,-0.3266057761368841,0.3266057761368841,-0.30456481346734465,1144.062459007097,408.4202963321851)" opacity="0.69">
		</path>
		<path d="M1264 64H1314C1342 64 1364 86 1364 114H1314C1286 114 1264 92 1264 64Z " transform="matrix(-0.38121072831833214,-0.0333516171423149,0.0333516171423149,-0.38121072831833214,1811.9426030846225,166.75177974533332)" filter="url(#llleaves-blur-2)" opacity="0.59">
		</path>
		<path d="M420 60H470C498 60 520 82 520 110H470C442 110 420 88 420 60Z " transform="matrix(0.06498545233356427,0.20000465680289786,-0.20000465680289786,0.06498545233356427,456.4572332314711,-14.525952145714967)" filter="url(#llleaves-blur-3)" opacity="0.32">
		</path>
		<path d="M45 483H95C123 483 145 505 145 533H95C67 533 45 511 45 483Z " transform="matrix(-0.25437908113046837,0.19168838684729164,-0.19168838684729164,-0.25437908113046837,216.54371322581866,619.0141764637852)" filter="url(#llleaves-blur-2)" opacity="0.49">
		</path>
		<path d="M941 247H991C1019 247 1041 269 1041 297H991C963 297 941 275 941 247Z " transform="matrix(-0.34144683386913816,-0.26676750351818435,0.26676750351818435,-0.34144683386913816,1256.8130514073698,629.2401347989262)" opacity="0.67">
		</path>
		<path d="M49 264H99C127 264 149 286 149 314H99C71 314 49 292 49 264Z " transform="matrix(-0.25437908113046837,0.19168838684729164,-0.19168838684729164,-0.25437908113046837,179.58147283078364,343.5384041488235)" filter="url(#llleaves-blur-2)" opacity="0.49">
		</path>
		<path d="M849 423H899C927 423 949 445 949 473H899C871 473 849 451 849 423Z " transform="matrix(-0.3639470073785267,-0.21012490268075118,0.21012490268075118,-0.3639470073785267,1132.052403232319,799.9505468155753)" opacity="0.64">
		</path>
		<path d="M882 663H932C960 663 982 685 982 713H932C904 713 882 691 882 663Z " transform="matrix(-0.3537596576404518,-0.23861390199374566,0.23861390199374566,-0.3537596576404518,1097.5376363492041,1153.774801114802)" opacity="0.65">
		</path>
		<path d="M409 379H459C487 379 509 401 509 429H459C431 429 409 407 409 379Z " transform="matrix(0.031457890494823594,0.2238345215569454,-0.2238345215569454,0.031457890494823594,534.9899749718819,288.55096684545333)" filter="url(#llleaves-blur-3)" opacity="0.34">
		</path>
		<path d="M743 233H793C821 233 843 255 843 283H793C765 283 743 261 743 233Z " transform="matrix(-0.37529110680623534,4.595990526987236e-17,-4.595990526987236e-17,-0.37529110680623534,1090.6058476973446,354.8251055560087)" filter="url(#llleaves-blur-2)" opacity="0.58">
		</path>
	</g>
	<g fill="none" stroke-width="3" stroke="hsl(181, 66%, 67%)">
		<path d="M1284 677H1334C1362 677 1384 699 1384 727H1334C1306 727 1284 705 1284 677Z " transform="matrix(-0.3591895672473898,0.05048080159733904,-0.05048080159733904,-0.3591895672473898,1848.5964054293504,886.8096868768174)" filter="url(#llleaves-blur-2)" opacity="0.56">
		</path>
		<path d="M1059 71H1109C1137 71 1159 93 1159 121H1109C1081 121 1059 99 1059 71Z " transform="matrix(-0.3001325796794409,-0.3333309990999567,0.3333309990999567,-0.3001325796794409,1409.847254950904,494.47680565107834)" opacity="0.69">
		</path>
		<path d="M200 374H250C278 374 300 396 300 424H250C222 424 200 402 200 374Z " transform="matrix(-0.021322037005951065,0.24371199817943337,-0.24371199817943337,-0.021322037005951065,352.5715965250817,346.57949322051616)" filter="url(#llleaves-blur-3)" opacity="0.37">
		</path>
		<path d="M214 67H264C292 67 314 89 314 117H264C236 117 214 95 214 67Z " transform="matrix(0.008192205122864747,0.2345940608439529,-0.2345940608439529,0.008192205122864747,283.4199114452074,29.313485065892877)" filter="url(#llleaves-blur-3)" opacity="0.36">
		</path>
		<path d="M669 697H719C747 697 769 719 769 747H719C691 747 669 725 669 697Z " transform="matrix(-0.3237653959684323,0.11784096701792013,-0.11784096701792013,-0.3237653959684323,1036.868497888241,871.0309606033236)" filter="url(#llleaves-blur-2)" opacity="0.53">
		</path>
		<path d="M281 535H331C359 535 381 557 381 585H331C303 585 281 563 281 535Z " transform="matrix(0.0386402440369311,0.21913971351223888,-0.21913971351223888,0.0386402440369311,440.92831879062953,465.8262181667675)" filter="url(#llleaves-blur-3)" opacity="0.34">
		</path>
		<path d="M1069 689H1119C1147 689 1169 711 1169 739H1119C1091 739 1069 717 1069 689Z " transform="matrix(-0.3595629542643194,-0.22467987020174834,0.22467987020174834,-0.3595629542643194,1360.929518497725,1222.1447241004803)" opacity="0.65">
		</path>
		<path d="M1124 277H1174C1202 277 1224 299 1224 327H1174C1146 327 1124 305 1124 277Z " transform="matrix(-0.3759499890652305,-0.16738371937327093,0.16738371937327093,-0.3759499890652305,1564.8154039118529,612.0453832419197)" opacity="0.63">
		</path>
		<path d="M51 676H101C129 676 151 698 151 726H101C73 726 51 704 51 676Z " transform="matrix(-0.25437908113046837,0.19168838684729164,-0.19168838684729164,-0.25437908113046837,261.06584637412874,859.9592088008819)" filter="url(#llleaves-blur-2)" opacity="0.49">
		</path>
		<path d="M720 537H770C798 537 820 559 820 587H770C742 587 720 565 720 537Z " transform="matrix(-0.35487521788557314,0.06257407569802173,-0.06257407569802173,-0.35487521788557314,1078.4205483141795,713.2578341642154)" filter="url(#llleaves-blur-2)" opacity="0.55">
		</path>
		<path d="M1286 438H1336C1364 438 1386 460 1386 488H1336C1308 488 1286 466 1286 438Z " transform="matrix(-0.3591895672473898,0.05048080159733904,-0.05048080159733904,-0.3591895672473898,1839.249872982081,561.8624187014965)" filter="url(#llleaves-blur-2)" opacity="0.56">
		</path>
	</g>
</svg>
