<svg width="321" height="149" viewBox="0 0 321 149" fill="none" xmlns="http://www.w3.org/2000/svg">
<g clip-path="url(#clip0_20_3)">
<g clip-path="url(#clip1_20_3)">
<path d="M258.94 152.82C309.231 152.82 350 148.265 350 142.646C350 137.027 309.231 132.472 258.94 132.472C208.649 132.472 167.88 137.027 167.88 142.646C167.88 148.265 208.649 152.82 258.94 152.82Z" fill="#3F3D56"/>
<path d="M304.1 131.388L305.671 136.227C305.671 136.227 313.234 144.041 310.499 146.159C307.763 148.277 301.626 137.112 301.626 137.112L300.495 131.649L304.1 131.388Z" fill="#FFB8B8"/>
<path d="M289.59 93.9365L291.879 93.1735C291.879 93.1735 295.44 94.1909 295.949 97.7519C296.458 101.313 300.273 119.372 300.273 119.372C300.273 119.372 301.799 120.135 300.782 121.407C299.764 122.679 305.869 134.125 305.869 134.125L301.036 136.414C301.036 136.414 291.371 126.24 291.371 125.223C291.371 124.205 291.625 123.188 291.625 122.17C291.625 121.153 291.371 121.153 291.625 120.39C291.795 119.725 291.88 119.041 291.879 118.355L290.099 114.285L289.59 93.9365Z" fill="#00CBAC"/>
<path d="M172.998 111.385C185.7 111.385 195.997 90.375 195.997 64.4584C195.997 38.5418 185.7 17.5323 172.998 17.5323C160.297 17.5323 150 38.5418 150 64.4584C150 90.375 160.297 111.385 172.998 111.385Z" fill="#00CBAC"/>
<path d="M172.787 64.9451C173.935 44.5185 176.246 30.721 176.269 30.584L175.768 30.499C175.744 30.6362 173.429 44.4558 172.28 64.9087C171.219 83.7856 170.964 112.338 175.768 141.162L176.269 141.078C171.474 112.303 171.729 83.7943 172.787 64.9451Z" fill="#3F3D56"/>
<path d="M193.554 54.9419L172.76 66.0715L173 66.52L193.794 55.3904L193.554 54.9419Z" fill="#3F3D56"/>
<path d="M151.048 60.52L150.808 60.9686L171.605 72.0927L171.845 71.6441L151.048 60.52Z" fill="#3F3D56"/>
<path d="M227.468 100.429C244.85 100.429 258.94 71.6795 258.94 36.2147C258.94 0.749893 244.85 -28 227.468 -28C210.087 -28 195.997 0.749893 195.997 36.2147C195.997 71.6795 210.087 100.429 227.468 100.429Z" fill="#E6E6E6"/>
<path d="M227.086 36.8725C228.656 8.91579 231.82 -9.96791 231.852 -10.1554L231.35 -10.2404C231.318 -10.0527 228.151 8.85306 226.579 36.8361C225.128 62.663 224.778 101.727 231.35 141.162L231.852 141.078C225.288 101.692 225.637 62.6717 227.086 36.8725Z" fill="#3F3D56"/>
<path d="M255.641 23.2746L227.186 38.5048L227.426 38.9533L255.881 23.7231L255.641 23.2746Z" fill="#3F3D56"/>
<path d="M197.386 30.9079L197.146 31.3565L225.606 46.579L225.846 46.1303L197.386 30.9079Z" fill="#3F3D56"/>
<path d="M201.251 125.452C207.745 125.452 213.009 114.71 213.009 101.46C213.009 88.2093 207.745 77.4676 201.251 77.4676C194.757 77.4676 189.492 88.2093 189.492 101.46C189.492 114.71 194.757 125.452 201.251 125.452Z" fill="#E6E6E6"/>
<path d="M201.241 102.494L201.31 102.624L211.942 96.9332L211.702 96.4846L201.263 102.072C201.84 91.4396 203.022 84.302 203.046 84.1614L202.544 84.0765C202.518 84.2299 201.114 92.7059 200.616 104.971L190.087 99.3352L189.847 99.7838L200.479 105.474L200.606 105.237C200.207 115.36 200.431 128.017 202.544 140.697L203.046 140.614C200.742 126.789 200.691 112.99 201.241 102.494Z" fill="#3F3D56"/>
<path d="M292.702 69.7914C288.614 62.8232 280.525 62.4984 280.525 62.4984C280.525 62.4984 272.643 61.4817 267.586 72.0944C262.873 81.9863 256.369 91.5372 266.539 93.8528L268.376 88.0856L269.514 94.2822C270.962 94.3872 272.415 94.4122 273.865 94.3572C284.757 94.0025 295.129 94.461 294.796 90.5188C294.352 85.2782 296.637 76.4962 292.702 69.7914Z" fill="#2F2E41"/>
<path d="M264.204 125.606C264.09 126.335 263.924 127.054 263.708 127.759C263.465 128.449 263.089 129.087 262.867 129.784C262.158 132.005 263.141 134.482 264.71 136.197C266.067 137.676 267.825 138.728 269.769 139.227C271.185 139.586 272.657 139.638 274.116 139.687C278.156 139.826 282.301 139.949 286.129 138.64C287.339 138.215 288.508 137.68 289.619 137.04C289.971 136.871 290.28 136.625 290.525 136.321C290.817 135.902 290.854 135.358 290.852 134.845C290.843 133.118 290.496 131.399 290.578 129.673C290.624 128.718 290.801 127.762 290.714 126.81C290.597 125.731 290.149 124.715 289.433 123.901C288.716 123.086 287.766 122.513 286.711 122.259C285.625 122.023 284.499 122.152 283.393 122.259C280.523 122.537 277.64 122.667 274.757 122.648C271.811 122.629 268.883 122.176 265.952 122.128C265.085 122.114 265.102 122.384 264.826 123.23C264.572 124.009 264.364 124.803 264.204 125.606Z" fill="#2F2E41"/>
<path d="M252.684 124.202C251.892 124.001 251.076 123.914 250.259 123.942C249.401 123.996 248.564 124.231 247.802 124.63C247.04 125.03 246.371 125.585 245.839 126.26C245.311 126.946 244.932 127.733 244.726 128.573C244.52 129.413 244.491 130.287 244.641 131.138C244.838 132.061 245.161 132.952 245.601 133.787C246.244 135.103 247.016 136.416 248.206 137.26C248.923 137.723 249.695 138.094 250.505 138.363L256.775 140.746C257.697 141.096 258.62 141.447 259.551 141.772C264.229 143.403 269.109 144.381 274.053 144.68C275.559 144.77 277.087 144.795 278.556 144.45C278.915 144.402 279.243 144.223 279.478 143.947C279.597 143.737 279.668 143.502 279.684 143.261L280.07 140.536C280.156 140.157 280.145 139.762 280.037 139.388C279.86 138.93 279.417 138.642 278.995 138.397C274.873 136.009 270.06 134.692 266.59 131.414C265.773 130.643 265.09 129.42 264.097 128.896C262.972 128.301 261.646 127.962 260.483 127.414C257.94 126.217 255.44 124.841 252.684 124.202Z" fill="#2F2E41"/>
<path opacity="0.1" d="M258.944 127.875C261.16 128.575 270.516 133.428 272.12 135.122C271.905 135.201 264.612 131.078 264.393 131.011C262.403 130.409 260.403 129.803 258.514 128.922C258.134 128.744 256.044 127.911 256.139 127.427C256.246 126.882 258.55 127.751 258.944 127.875Z" fill="black"/>
<path d="M286.592 146.093C286.718 146.102 286.843 146.065 286.943 145.988C286.987 145.931 287.02 145.865 287.039 145.795C287.058 145.725 287.062 145.652 287.053 145.581L287.043 141.869C285.985 141.361 284.801 141.198 283.639 141.041L278.218 140.31C278.343 140.327 277.371 142.665 277.52 142.977C277.783 143.527 279.79 144.015 280.357 144.275C282.327 145.178 284.373 146.17 286.592 146.093Z" fill="#FFB8B8"/>
<path d="M269.585 141.856C268.561 142.021 267.419 142.166 266.756 142.97C265.915 143.989 266.273 145.508 266.674 146.77C266.734 147.025 266.853 147.262 267.023 147.462C267.296 147.734 267.716 147.774 268.099 147.799C269.033 147.858 270.026 147.905 270.842 147.443C271.211 147.197 271.567 146.93 271.907 146.644C272.508 146.241 273.169 145.936 273.865 145.741C275.145 145.335 276.462 145.062 277.797 144.924C278.323 144.9 278.844 144.807 279.346 144.649C279.597 144.566 279.827 144.427 280.016 144.242C280.205 144.057 280.349 143.83 280.436 143.581C280.625 142.906 280.237 142.218 279.864 141.627C279.4 140.89 278.908 140.114 278.215 139.572C277.205 138.78 276.706 139.388 275.688 139.894C273.764 140.852 271.706 141.514 269.585 141.856Z" fill="#FFB8B8"/>
<path d="M266.91 142.786L260.411 140.849C259.632 140.575 258.818 140.416 257.993 140.376C257.169 140.377 256.306 140.649 255.772 141.282C255.268 141.878 255.124 142.694 254.998 143.467L254.729 145.122C254.55 145.956 254.499 146.813 254.579 147.662C254.702 148.505 255.128 149.347 255.87 149.755C256.769 150.25 257.871 150.009 258.875 149.802C260.902 149.384 262.964 149.161 265.034 149.135C265.811 149.126 266.627 149.136 267.315 148.768C268.132 148.332 268.62 147.408 268.705 146.479C268.832 145.066 268.365 143.22 266.91 142.786Z" fill="#2F2E41"/>
<path d="M289.146 141.098C289.989 140.949 290.732 140.466 291.54 140.181C292.676 139.78 293.907 139.78 295.111 139.784C295.553 139.786 296.024 139.796 296.392 140.043C296.922 140.399 297.058 141.111 297.148 141.747L297.692 145.585C297.794 146.307 297.896 147.048 297.736 147.76C297.577 148.471 297.096 149.156 296.396 149.34C295.547 149.563 294.714 149.015 293.911 148.655C291.906 147.756 289.575 147.986 287.484 147.314C287.095 147.19 286.68 146.999 286.522 146.62C286.45 146.407 286.425 146.181 286.447 145.957C286.483 144.724 286.225 143.039 286.593 141.86C286.924 140.8 288.206 141.098 289.146 141.098Z" fill="#2F2E41"/>
<path d="M302.899 122.657C304.197 122.329 305.544 122.236 306.874 122.383C307.937 122.502 309.032 122.8 309.808 123.542C310.753 124.445 311.056 125.842 311.081 127.154C311.124 129.765 310.265 132.31 308.65 134.361C308.256 134.878 307.787 135.333 307.259 135.711C306.691 136.07 306.084 136.365 305.45 136.59L291.409 142.177C287.715 143.646 284.008 145.12 280.155 146.089C280.049 146.14 279.935 146.169 279.818 146.175C279.701 146.181 279.583 146.164 279.473 146.123C279.363 146.083 279.262 146.021 279.177 145.941C279.091 145.861 279.022 145.764 278.975 145.657C277.744 143.883 276.712 141.979 275.897 139.979C275.86 139.915 275.838 139.844 275.831 139.771C275.824 139.697 275.833 139.623 275.858 139.554C275.909 139.477 275.981 139.415 276.065 139.376L285.996 133.62C286.725 133.236 287.404 132.765 288.018 132.215C288.448 131.795 288.799 131.301 289.056 130.758C289.262 130.324 289.281 129.301 289.544 128.98C289.801 128.666 290.682 128.641 291.089 128.518C291.663 128.34 292.224 128.126 292.771 127.876C294.992 126.874 296.971 125.417 299.1 124.244C300.294 123.555 301.57 123.022 302.899 122.657Z" fill="#2F2E41"/>
<path opacity="0.1" d="M297.269 126.956C295.562 128.248 293.353 129.437 291.662 130.763C291.085 131.216 281.463 136.672 281.327 137.397C282.905 137.665 292.955 130.573 294.393 129.866C295.831 129.158 297.106 128.16 298.369 127.17C298.691 126.917 300.055 126.158 299.131 125.876C298.61 125.717 297.653 126.697 297.269 126.956Z" fill="black"/>
<path d="M280.179 87.3232C285.517 87.3232 289.844 82.9958 289.844 77.6576C289.844 72.3195 285.517 67.9921 280.179 67.9921C274.841 67.9921 270.513 72.3195 270.513 77.6576C270.513 82.9958 274.841 87.3232 280.179 87.3232Z" fill="#FFB8B8"/>
<path d="M284.249 85.7971C284.249 85.7971 282.722 89.6125 285.52 91.1386C288.318 92.6647 276.872 104.874 276.872 104.874L271.785 90.1212C271.785 90.1212 276.109 88.595 275.346 84.5253L284.249 85.7971Z" fill="#FFB8B8"/>
<path d="M277.89 96.2258L284.05 89.4253L292.388 93.6822L291.116 123.696L289.081 125.986C289.081 125.986 280.433 133.616 267.207 127.257C267.207 127.257 262.628 123.442 262.883 117.592C263.137 111.742 262.374 110.978 262.374 110.978L262.12 90.3755L274.677 87.9113L277.89 96.2258Z" fill="#00CBAC"/>
<path d="M249.644 128.59L248.074 133.429C248.074 133.429 240.51 141.243 243.245 143.361C245.981 145.479 252.119 134.314 252.119 134.314L253.25 128.851L249.644 128.59Z" fill="#FFB8B8"/>
<path d="M264.154 91.1386L261.865 90.3755C261.865 90.3755 258.304 91.393 257.795 94.954C257.287 98.515 253.471 116.574 253.471 116.574C253.471 116.574 251.945 117.337 252.963 118.609C253.98 119.881 247.875 131.327 247.875 131.327L252.708 133.616C252.708 133.616 262.374 123.442 262.374 122.425C262.374 121.407 262.12 120.39 262.12 119.372C262.12 118.355 262.374 118.355 262.12 117.592C261.95 116.927 261.864 116.243 261.865 115.557L263.646 111.487L264.154 91.1386Z" fill="#00CBAC"/>
<path d="M290.895 69.1196L282.903 64.8975L271.868 66.6246L269.584 76.7966L275.268 76.5761L276.856 72.839V76.5143L279.478 76.4125L281.001 70.4631L281.952 76.7966L291.276 76.6046L290.895 69.1196Z" fill="#2F2E41"/>
<path d="M234.244 134.555V149.226H189.432C189.432 145.335 190.978 141.604 193.729 138.852C196.48 136.101 200.212 134.555 204.103 134.555C208.305 133.245 213.163 132.828 218.434 132.965C223.406 133.092 228.745 133.716 234.244 134.555Z" fill="#FF6584"/>
<path d="M227.843 146.026H248.916C249.269 146.026 249.609 146.166 249.859 146.416C250.109 146.667 250.249 147.006 250.249 147.359C250.249 147.713 250.109 148.052 249.859 148.303C249.609 148.553 249.269 148.693 248.916 148.693H227.843V146.026Z" fill="#3F3D56"/>
<path d="M231.493 121.999L237.141 115.152C237.271 114.881 237.481 114.655 237.742 114.506C238.004 114.357 238.304 114.29 238.605 114.316C238.905 114.342 239.19 114.458 239.422 114.65C239.654 114.842 239.822 115.099 239.905 115.389L242.132 123.254L231.493 121.999Z" fill="#3F3D56"/>
<path d="M224.642 125.486L226.776 116.871C226.776 116.57 226.868 116.276 227.039 116.028C227.21 115.78 227.452 115.59 227.734 115.484C228.016 115.377 228.323 115.359 228.615 115.432C228.908 115.504 229.171 115.664 229.37 115.89L234.778 122.019L224.642 125.486Z" fill="#FF6584"/>
<path d="M227.043 146.559H248.115C248.469 146.559 248.808 146.7 249.059 146.95C249.309 147.2 249.449 147.539 249.449 147.893C249.449 148.247 249.309 148.586 249.059 148.836C248.808 149.086 248.469 149.227 248.115 149.227H227.043V146.559Z" fill="#FF6584"/>
<path opacity="0.2" d="M234.244 134.555V149.145C232.079 149.375 229.89 149.111 227.842 148.374C225.794 147.636 223.939 146.444 222.417 144.887C220.896 143.33 219.747 141.448 219.057 139.384C218.367 137.319 218.154 135.124 218.434 132.965C223.406 133.092 228.745 133.716 234.244 134.555Z" fill="black"/>
<path d="M234.245 149.227C242.2 149.227 248.649 142.778 248.649 134.822C248.649 126.867 242.2 120.418 234.245 120.418C226.289 120.418 219.84 126.867 219.84 134.822C219.84 142.778 226.289 149.227 234.245 149.227Z" fill="#FF6584"/>
<path d="M248.115 139.624C248.999 139.624 249.716 137.952 249.716 135.889C249.716 133.827 248.999 132.155 248.115 132.155C247.232 132.155 246.515 133.827 246.515 135.889C246.515 137.952 247.232 139.624 248.115 139.624Z" fill="#3F3D56"/>
<path d="M244.248 132.955C244.469 132.955 244.648 132.537 244.648 132.022C244.648 131.506 244.469 131.088 244.248 131.088C244.027 131.088 243.848 131.506 243.848 132.022C243.848 132.537 244.027 132.955 244.248 132.955Z" fill="#3F3D56"/>
<path d="M247.182 131.088C247.403 131.088 247.582 130.67 247.582 130.154C247.582 129.639 247.403 129.221 247.182 129.221C246.961 129.221 246.782 129.639 246.782 130.154C246.782 130.67 246.961 131.088 247.182 131.088Z" fill="#3F3D56"/>
<path d="M233.036 120.258C233.036 120.258 232.236 118.865 232.236 118.016L233.036 120.258Z" fill="#3F3D56"/>
<path d="M233.388 119.357C233.388 119.357 233.825 117.811 234.432 117.217L233.388 119.357Z" fill="#3F3D56"/>
</g>
<g clip-path="url(#clip2_20_3)">
<path d="M4.7795 148.139C3.19091 151.382 -0.434349 158.74 -4.34474 167.217C-8.26021 175.69 -12.3488 185.323 -15.1696 192.986C-16.7989 197.421 -18.3875 201.866 -19.7877 206.362C-21.193 210.858 -22.4608 215.4 -23.5759 219.972C-25.806 229.122 -27.3946 238.419 -28.2347 247.777C-29.0647 257.131 -29.1309 266.55 -28.2042 275.873C-27.2877 285.191 -25.3529 294.407 -22.2521 303.221C-22.028 303.918 -21.7327 304.651 -21.4425 305.43C-21.1421 306.204 -20.857 307.024 -20.5209 307.829C-19.8539 309.443 -19.192 311.102 -18.5504 312.564C-17.9496 314.045 -17.3845 315.339 -17.0637 316.301C-16.7429 317.263 -16.6614 317.89 -16.9364 317.981C-17.2215 318.078 -17.6747 317.798 -18.2602 317.177C-18.5555 316.866 -18.8865 316.469 -19.248 315.991C-19.4313 315.751 -19.6197 315.492 -19.8132 315.211C-19.9965 314.921 -20.1899 314.616 -20.3885 314.295C-20.7857 313.643 -21.2134 312.915 -21.6614 312.116C-22.0942 311.306 -22.5219 310.415 -22.9802 309.458C-23.4537 308.506 -23.8661 307.457 -24.3244 306.357C-24.7928 305.262 -25.2052 304.076 -25.6329 302.839C-27.7052 296.841 -29.192 290.649 -30.2256 284.402C-31.2796 278.149 -31.7938 271.826 -31.9516 265.512C-32.1197 259.193 -31.8396 252.879 -31.2694 246.611C-30.7042 240.339 -29.7928 234.117 -28.637 227.961C-26.9415 218.954 -24.6146 210.069 -21.7327 201.377C-18.8356 192.696 -15.5107 184.178 -11.9058 175.797C-4.70115 159.02 3.59824 142.798 11.6074 126.489C15.197 119.162 18.7663 111.83 22.1726 104.432C23.8529 100.725 25.5484 97.0239 27.137 93.2764C28.7714 89.5493 30.304 85.7866 31.7857 82.0035C37.6665 66.866 42.4119 51.2499 45.0545 35.2672C47.5341 20.2774 48.0993 4.93628 45.8539 -10.0281C45.5942 -11.9018 45.2378 -13.7552 44.8967 -15.6136C44.4995 -17.4568 44.1329 -19.3102 43.6543 -21.1381C43.2266 -22.9762 42.6767 -24.7837 42.1675 -26.5963C41.5718 -28.3885 41.0219 -30.191 40.3956 -31.9731C37.8651 -39.0963 34.7185 -46.0108 31.3172 -52.8285C25.4466 -64.5953 18.8376 -76.0973 13.1706 -88.1696C10.3498 -94.2185 7.76835 -100.374 5.70623 -106.79C3.69503 -113.21 2.30501 -119.819 1.64309 -126.52C1.3325 -129.672 1.0881 -133.159 1.08302 -136.739C1.07283 -140.313 1.30704 -143.979 1.84676 -147.442C2.27955 -150.298 3.07385 -154.096 4.30094 -157.767C5.50257 -161.449 7.15226 -164.977 8.62884 -167.457C8.93943 -167.997 9.25511 -168.541 9.61153 -169.066L10.6502 -170.654C11.3987 -171.678 12.1013 -172.722 12.8702 -173.674C13.7001 -174.809 14.5759 -175.741 15.3396 -176.606C16.1441 -177.426 16.8722 -178.154 17.5443 -178.755C18.2317 -179.341 18.8325 -179.835 19.3519 -180.237C19.8916 -180.614 20.3447 -180.904 20.7113 -181.113C22.1828 -181.948 22.2541 -181.454 21.2205 -179.814C20.9965 -179.458 21.1237 -179.346 21.0677 -179.101C21.0372 -178.979 20.9659 -178.826 20.7775 -178.597C20.6044 -178.353 20.3193 -178.022 19.8712 -177.564C19.7948 -177.487 19.6523 -177.335 19.581 -177.263L19.082 -176.729L18.6085 -176.169L17.6411 -175.059C17.0148 -174.31 16.4089 -173.536 15.7928 -172.783C14.6217 -171.214 13.4506 -169.641 12.4272 -167.956C10.3294 -164.621 8.54737 -161.016 7.29992 -157.192C5.74187 -152.513 4.82538 -147.615 4.37731 -142.681C4.15837 -140.211 4.082 -137.727 4.082 -135.242C4.12782 -132.757 4.22456 -130.272 4.47406 -127.798C4.71845 -125.323 5.03413 -122.854 5.4822 -120.405C5.68077 -119.178 5.95572 -117.961 6.20012 -116.739C6.49035 -115.527 6.73984 -114.31 7.07589 -113.109C7.68179 -110.695 8.43026 -108.317 9.22456 -105.96L9.84574 -104.198C10.0596 -103.613 10.2989 -103.032 10.5229 -102.447L11.8926 -98.9537C19.5504 -80.3997 30.6655 -63.3631 38.9598 -44.7277C41.5005 -39.0148 43.7612 -33.1493 45.5535 -27.1157C47.3101 -21.077 48.5983 -14.9059 49.413 -8.67877C50.2073 -2.44659 50.5688 3.83139 50.5331 10.0992C50.4771 16.367 50.0443 22.6196 49.306 28.8263C48.4557 35.6135 47.4017 42.4006 45.6808 49.1267L45.7113 49.0096C44.0922 56.0666 42.1268 63.0473 39.8457 69.9108C35.5127 82.8945 30.0647 95.7815 24.2246 108.271C18.4149 120.781 12.2591 132.94 6.45465 144.6C6.00659 145.517 5.44142 146.785 4.7795 148.139Z" fill="black"/>
</g>
<g clip-path="url(#clip3_20_3)">
<path d="M-4.30183 38.8643C-4.00637 36.7241 -3.68931 34.5838 -3.37223 32.4432C-3.17766 31.132 -2.87498 29.8346 -2.86056 28.4944C-2.86056 28.1267 -3.03353 27.7305 -2.83176 27.3917V27.3989C-2.82455 27.0098 -2.86058 26.6135 -2.78852 26.2387C-2.52188 24.812 -2.39936 23.2914 -2.01023 21.9438C-1.99581 21.8934 -2.05345 21.8069 -2.03903 21.7276C-1.96697 21.3457 -1.64991 20.0125 -1.5202 19.1478C-1.21752 17.1372 -0.857221 15.1411 0.0075531 13.2314C0.14447 12.9359 1.38394 8.63373 2.98376 8.92918C4.6556 9.23907 4.42503 13.534 4.2665 14.0673C3.88455 15.3572 3.26481 16.6111 3.32248 17.9731C3.40895 19.9621 2.83962 21.8357 2.5874 23.767C2.36402 25.4966 1.96767 27.2045 1.75868 28.941C1.55688 30.5699 1.6362 32.2489 1.34075 33.8632C1.08131 35.2538 0.418305 36.5726 0.0219517 37.9417C-0.0717325 38.2662 0.158869 38.7128 0.0651846 39.0662C-0.00684547 39.3617 -0.107748 39.8515 -0.302334 40.1252C-0.381582 40.2406 -0.482484 40.3632 -0.446469 40.4929C-0.273499 41.1128 -1.50577 45.6741 -3.44427 45.2921C-5.33954 44.9105 -4.56126 40.7233 -4.30183 38.8643Z" fill="black"/>
<path d="M9.50584 26.4688C10.0319 24.5521 10.5796 22.6424 11.1272 20.7327C11.466 19.5581 11.9055 18.4195 12.0641 17.1944C12.1073 16.8557 11.9776 16.4666 12.2154 16.1855V16.1928C12.2658 15.8396 12.2731 15.4721 12.3811 15.1334C12.7991 13.8651 13.0874 12.4959 13.6207 11.3213C13.6423 11.278 13.5918 11.1844 13.6134 11.1195C13.7287 10.7808 14.1827 9.60617 14.4061 8.83508C14.925 7.04072 15.4943 5.26798 16.5608 3.64655C16.7266 3.39433 18.4201 -0.360181 19.9694 0.144255C21.5836 0.670308 20.8918 4.56895 20.6756 5.03738C20.1568 6.16155 19.4073 7.22087 19.3136 8.47478C19.1839 10.3124 18.4201 11.941 17.9589 13.6633C17.5481 15.2127 16.9788 16.7188 16.5752 18.2753C16.2005 19.7382 16.0924 21.2804 15.624 22.7144C15.2132 23.9467 14.4205 25.0564 13.8801 26.2526C13.7504 26.5338 13.9305 26.9733 13.8008 27.2906C13.6927 27.55 13.5414 27.9823 13.3252 28.2056C13.2315 28.2993 13.1162 28.3929 13.1378 28.5229C13.2387 29.1135 11.5308 33.106 9.64998 32.4718C7.81957 31.8523 9.05182 28.1335 9.50584 26.4688Z" fill="black"/>
<path d="M22.976 16.4658C23.9273 14.0805 24.9722 11.724 26.1252 9.42516C26.817 8.00553 27.6602 6.66516 28.2583 5.18786C28.424 4.78429 28.4384 4.28707 28.7843 3.9844L28.7771 3.99162C28.9645 3.56643 29.1014 3.11245 29.3537 2.73049C30.2761 1.26042 31.1552 -0.332176 32.2146 -1.62932C32.2578 -1.67977 32.2434 -1.79507 32.301 -1.87436C32.5749 -2.24187 33.5549 -3.56063 34.1819 -4.40376C35.5725 -6.39992 37.1075 -8.29518 39.0534 -9.8157C39.2049 -9.93821 40.2425 -10.9183 41.3883 -11.7182C42.5628 -12.5037 43.8312 -13.1018 44.415 -12.5325C45.0274 -11.9416 44.5951 -10.6516 43.9609 -9.46981C43.3485 -8.26635 42.5267 -7.15657 42.3034 -6.93315C41.7556 -6.3927 41.1646 -5.89545 40.6097 -5.355C40.0695 -4.80729 39.5793 -4.21639 39.2263 -3.52458C38.2173 -1.49962 36.7255 0.157863 35.5654 2.05313L33.9658 4.58252C33.4252 5.41846 32.9135 6.27602 32.4524 7.15519C31.5732 8.81264 31.0039 10.6214 30.1319 12.2644C29.3897 13.6841 28.2943 14.938 27.4944 16.3505C27.307 16.6819 27.3791 17.2152 27.1918 17.5899C27.0332 17.8998 26.7954 18.4187 26.5359 18.6781C26.4206 18.7862 26.291 18.9015 26.291 19.0528C26.2766 19.4059 25.6856 20.7895 24.8641 22.0002C24.0714 23.2181 23.0481 24.2774 22.1185 23.9387C21.2105 23.6 21.2033 22.2524 21.5132 20.7175C21.6861 19.9536 21.9383 19.1537 22.1978 18.4043C22.486 17.662 22.7743 16.9846 22.976 16.4658Z" fill="black"/>
</g>
<rect x="116" y="29" width="90" height="90" rx="12" fill="white" stroke="#9F9F9F"/>
<circle cx="128" cy="43.5" r="2.5" fill="#EFEFEF"/>
<circle cx="139" cy="43.5" r="2.5" fill="#EFEFEF"/>
<circle cx="150" cy="43.5" r="2.5" fill="#EFEFEF"/>
<circle cx="161" cy="43.5" r="2.5" fill="#EFEFEF"/>
<circle cx="172" cy="43.5" r="2.5" fill="#EFEFEF"/>
<circle cx="183" cy="43.5" r="2.5" fill="#EFEFEF"/>
<circle cx="194" cy="43.5" r="2.5" fill="#EFEFEF"/>
<circle cx="128" cy="53.6667" r="2.5" fill="#EFEFEF"/>
<circle cx="139" cy="53.6667" r="2.5" fill="#EFEFEF"/>
<circle cx="150" cy="53.6667" r="2.5" fill="#00CBAC"/>
<circle cx="161" cy="53.6667" r="2.5" fill="#00CBAC"/>
<circle cx="172" cy="53.6667" r="2.5" fill="#00CBAC"/>
<circle cx="183" cy="53.6667" r="2.5" fill="#EFEFEF"/>
<circle cx="194" cy="53.6667" r="2.5" fill="#EFEFEF"/>
<circle cx="128" cy="63.8333" r="2.5" fill="#EFEFEF"/>
<circle cx="139" cy="63.8333" r="2.5" fill="#00CBAC"/>
<circle cx="150" cy="63.8333" r="2.5" fill="#EFEFEF"/>
<circle cx="161" cy="63.8333" r="2.5" fill="#EFEFEF"/>
<circle cx="172" cy="63.8333" r="2.5" fill="#EFEFEF"/>
<circle cx="183" cy="63.8333" r="2.5" fill="#00CBAC"/>
<circle cx="194" cy="63.8333" r="2.5" fill="#EFEFEF"/>
<circle cx="128" cy="74" r="2.5" fill="#EFEFEF"/>
<circle cx="139" cy="74" r="2.5" fill="#00CBAC"/>
<circle cx="150" cy="74" r="2.5" fill="#EFEFEF"/>
<circle cx="161" cy="74" r="2.5" fill="#EFEFEF"/>
<circle cx="172" cy="74" r="2.5" fill="#EFEFEF"/>
<circle cx="183" cy="74" r="2.5" fill="#00CBAC"/>
<circle cx="194" cy="74" r="2.5" fill="#EFEFEF"/>
<circle cx="128" cy="84.1667" r="2.5" fill="#EFEFEF"/>
<circle cx="139" cy="84.1667" r="2.5" fill="#00CBAC"/>
<circle cx="150" cy="84.1667" r="2.5" fill="#EFEFEF"/>
<circle cx="161" cy="84.1667" r="2.5" fill="#EFEFEF"/>
<circle cx="172" cy="84.1667" r="2.5" fill="#00705F"/>
<circle cx="183" cy="84.1667" r="2.5" fill="#00CBAC"/>
<circle cx="194" cy="84.1667" r="2.5" fill="#EFEFEF"/>
<circle cx="128" cy="94.3333" r="2.5" fill="#EFEFEF"/>
<circle cx="139" cy="94.3333" r="2.5" fill="#EFEFEF"/>
<circle cx="150" cy="94.3333" r="2.5" fill="#00CBAC"/>
<circle cx="161" cy="94.3333" r="2.5" fill="#00CBAC"/>
<circle cx="172" cy="94.3333" r="2.5" fill="#00CBAC"/>
<circle cx="183" cy="94.3333" r="2.5" fill="#00705F"/>
<circle cx="194" cy="94.3333" r="2.5" fill="#EFEFEF"/>
<circle cx="128" cy="104.5" r="2.5" fill="#EFEFEF"/>
<circle cx="139" cy="104.5" r="2.5" fill="#EFEFEF"/>
<circle cx="150" cy="104.5" r="2.5" fill="#EFEFEF"/>
<circle cx="161" cy="104.5" r="2.5" fill="#EFEFEF"/>
<circle cx="172" cy="104.5" r="2.5" fill="#EFEFEF"/>
<circle cx="183" cy="104.5" r="2.5" fill="#EFEFEF"/>
<circle cx="194" cy="104.5" r="2.5" fill="#00705F"/>
<path d="M119 29V16.02H119.66V29H119ZM120.32 29V16.02H122.3V29H120.32ZM122.96 29V16.02H123.62V29H122.96ZM125.6 29V16.02H126.26V29H125.6ZM126.92 29V16.02H128.9V29H126.92ZM122.63 30.914H124.082C124.639 30.914 125.057 31.024 125.336 31.244C125.629 31.464 125.776 31.772 125.776 32.168C125.776 32.4173 125.71 32.6447 125.578 32.85C125.431 33.0553 125.241 33.202 125.006 33.29C125.299 33.3927 125.534 33.5613 125.71 33.796C125.886 34.0453 125.974 34.3093 125.974 34.588C125.974 35.028 125.813 35.38 125.49 35.644C125.182 35.8933 124.705 36.018 124.06 36.018H122.63V30.914ZM123.994 33.026C124.801 33.026 125.204 32.7547 125.204 32.212C125.204 31.9773 125.109 31.7867 124.918 31.64C124.742 31.4787 124.463 31.398 124.082 31.398H123.18V33.026H123.994ZM124.17 35.512C124.962 35.512 125.358 35.1893 125.358 34.544C125.358 33.8547 124.911 33.51 124.016 33.51H123.18V35.512H124.17ZM129.57 29V16.02H131.55V29H129.57ZM133.53 29V16.02H134.19V29H133.53ZM134.85 29V16.02H135.51V29H134.85ZM136.17 29V16.02H136.83V29H136.17ZM137.49 29V16.02H139.47V29H137.49ZM134.85 36.106C134.322 36.106 133.919 35.9447 133.64 35.622C133.362 35.2993 133.222 34.8447 133.222 34.258V30.914H133.86V30.98C133.816 31.0093 133.794 31.046 133.794 31.09C133.78 31.1193 133.772 31.1853 133.772 31.288V34.258C133.772 34.698 133.86 35.0353 134.036 35.27C134.198 35.5047 134.476 35.622 134.872 35.622C135.254 35.622 135.532 35.5047 135.708 35.27C135.884 35.0353 135.972 34.6907 135.972 34.236V30.914H136.522V34.236C136.522 34.8667 136.376 35.336 136.082 35.644C135.789 35.952 135.378 36.106 134.85 36.106ZM140.141 29V16.02H140.801V29H140.141ZM141.461 29V16.02H143.441V29H141.461ZM144.101 29V16.02H144.761V29H144.101ZM145.421 29V16.02H147.401V29H145.421ZM149.381 29V16.02H150.041V29H149.381ZM145.399 36.106C144.739 36.106 144.203 35.886 143.793 35.446L144.101 34.94L144.123 34.874L144.189 34.896C144.189 34.9107 144.196 34.94 144.211 34.984C144.211 35.0133 144.225 35.05 144.255 35.094C144.269 35.1233 144.299 35.1527 144.343 35.182C144.651 35.446 145.032 35.578 145.487 35.578C145.78 35.578 146.029 35.4973 146.235 35.336C146.44 35.16 146.543 34.9547 146.543 34.72C146.543 34.5587 146.506 34.4193 146.433 34.302C146.374 34.1993 146.264 34.0967 146.103 33.994C145.941 33.8913 145.692 33.7667 145.355 33.62C144.856 33.4293 144.497 33.2093 144.277 32.96C144.071 32.7107 143.969 32.432 143.969 32.124C143.969 31.7427 144.108 31.4347 144.387 31.2C144.665 30.9653 145.039 30.848 145.509 30.848C145.787 30.848 146.051 30.9067 146.301 31.024C146.535 31.1413 146.748 31.2953 146.939 31.486L146.565 31.992L146.521 31.948C146.521 31.9333 146.513 31.9113 146.499 31.882C146.499 31.838 146.484 31.8013 146.455 31.772C146.44 31.728 146.411 31.6913 146.367 31.662C146.249 31.5447 146.11 31.4567 145.949 31.398C145.802 31.354 145.626 31.332 145.421 31.332C145.157 31.332 144.951 31.4053 144.805 31.552C144.643 31.6987 144.563 31.8747 144.563 32.08C144.563 32.2413 144.592 32.3807 144.651 32.498C144.724 32.6153 144.849 32.7253 145.025 32.828C145.201 32.9453 145.465 33.07 145.817 33.202C146.301 33.4073 146.638 33.6127 146.829 33.818C147.005 34.038 147.093 34.3093 147.093 34.632C147.093 34.8813 147.034 35.116 146.917 35.336C146.785 35.556 146.594 35.7393 146.345 35.886C146.081 36.0327 145.765 36.106 145.399 36.106ZM150.711 29V16.02H151.371V29H150.711ZM152.031 29V16.02H154.011V29H152.031ZM154.671 29V16.02H155.331V29H154.671ZM157.311 29V16.02H159.291V29H157.311ZM159.951 29V16.02H160.611V29H159.951ZM154.605 35.534H155.617V31.398H154.671V30.914H157.201V31.398H156.189V35.534H157.245V36.018H154.605V35.534ZM161.281 29V16.02H161.941V29H161.281ZM162.601 29V16.02H163.261V29H162.601ZM163.921 29V16.02H165.901V29H163.921ZM166.561 29V16.02H167.221V29H166.561ZM169.201 29V16.02H171.181V29H169.201ZM164.933 30.914H165.483L167.617 34.698V30.914H168.255V30.98C168.211 31.0093 168.189 31.046 168.189 31.09C168.175 31.1193 168.167 31.1853 168.167 31.288V36.018H167.727L165.461 32.014V36.018H164.933V30.914ZM171.852 29V16.02H173.832V29H171.852ZM174.492 29V16.02H175.152V29H174.492ZM175.812 29V16.02H177.792V29H175.812ZM179.772 29V16.02H180.432V29H179.772ZM181.092 29V16.02H181.752V29H181.092ZM175.57 30.914H178.694V31.42H176.098V33.092H178.254V33.62H176.098V35.512H178.672V36.018H175.57V30.914ZM182.422 29V16.02H183.082V29H182.422ZM183.742 29V16.02H185.722V29H183.742ZM186.382 29V16.02H187.042V29H186.382ZM187.702 29V16.02H189.682V29H187.702ZM191.662 29V16.02H192.322V29H191.662ZM187.68 36.106C187.02 36.106 186.485 35.886 186.074 35.446L186.382 34.94L186.404 34.874L186.47 34.896C186.47 34.9107 186.477 34.94 186.492 34.984C186.492 35.0133 186.507 35.05 186.536 35.094C186.551 35.1233 186.58 35.1527 186.624 35.182C186.932 35.446 187.313 35.578 187.768 35.578C188.061 35.578 188.311 35.4973 188.516 35.336C188.721 35.16 188.824 34.9547 188.824 34.72C188.824 34.5587 188.787 34.4193 188.714 34.302C188.655 34.1993 188.545 34.0967 188.384 33.994C188.223 33.8913 187.973 33.7667 187.636 33.62C187.137 33.4293 186.778 33.2093 186.558 32.96C186.353 32.7107 186.25 32.432 186.25 32.124C186.25 31.7427 186.389 31.4347 186.668 31.2C186.947 30.9653 187.321 30.848 187.79 30.848C188.069 30.848 188.333 30.9067 188.582 31.024C188.817 31.1413 189.029 31.2953 189.22 31.486L188.846 31.992L188.802 31.948C188.802 31.9333 188.795 31.9113 188.78 31.882C188.78 31.838 188.765 31.8013 188.736 31.772C188.721 31.728 188.692 31.6913 188.648 31.662C188.531 31.5447 188.391 31.4567 188.23 31.398C188.083 31.354 187.907 31.332 187.702 31.332C187.438 31.332 187.233 31.4053 187.086 31.552C186.925 31.6987 186.844 31.8747 186.844 32.08C186.844 32.2413 186.873 32.3807 186.932 32.498C187.005 32.6153 187.13 32.7253 187.306 32.828C187.482 32.9453 187.746 33.07 188.098 33.202C188.582 33.4073 188.919 33.6127 189.11 33.818C189.286 34.038 189.374 34.3093 189.374 34.632C189.374 34.8813 189.315 35.116 189.198 35.336C189.066 35.556 188.875 35.7393 188.626 35.886C188.362 36.0327 188.047 36.106 187.68 36.106ZM192.992 29V16.02H193.652V29H192.992ZM194.312 29V16.02H196.292V29H194.312ZM196.952 29V16.02H197.612V29H196.952ZM198.272 29V16.02H200.252V29H198.272ZM202.232 29V16.02H202.892V29H202.232ZM198.25 36.106C197.59 36.106 197.055 35.886 196.644 35.446L196.952 34.94L196.974 34.874L197.04 34.896C197.04 34.9107 197.048 34.94 197.062 34.984C197.062 35.0133 197.077 35.05 197.106 35.094C197.121 35.1233 197.15 35.1527 197.194 35.182C197.502 35.446 197.884 35.578 198.338 35.578C198.632 35.578 198.881 35.4973 199.086 35.336C199.292 35.16 199.394 34.9547 199.394 34.72C199.394 34.5587 199.358 34.4193 199.284 34.302C199.226 34.1993 199.116 34.0967 198.954 33.994C198.793 33.8913 198.544 33.7667 198.206 33.62C197.708 33.4293 197.348 33.2093 197.128 32.96C196.923 32.7107 196.82 32.432 196.82 32.124C196.82 31.7427 196.96 31.4347 197.238 31.2C197.517 30.9653 197.891 30.848 198.36 30.848C198.639 30.848 198.903 30.9067 199.152 31.024C199.387 31.1413 199.6 31.2953 199.79 31.486L199.416 31.992L199.372 31.948C199.372 31.9333 199.365 31.9113 199.35 31.882C199.35 31.838 199.336 31.8013 199.306 31.772C199.292 31.728 199.262 31.6913 199.218 31.662C199.101 31.5447 198.962 31.4567 198.8 31.398C198.654 31.354 198.478 31.332 198.272 31.332C198.008 31.332 197.803 31.4053 197.656 31.552C197.495 31.6987 197.414 31.8747 197.414 32.08C197.414 32.2413 197.444 32.3807 197.502 32.498C197.576 32.6153 197.7 32.7253 197.876 32.828C198.052 32.9453 198.316 33.07 198.668 33.202C199.152 33.4073 199.49 33.6127 199.68 33.818C199.856 34.038 199.944 34.3093 199.944 34.632C199.944 34.8813 199.886 35.116 199.768 35.336C199.636 35.556 199.446 35.7393 199.196 35.886C198.932 36.0327 198.617 36.106 198.25 36.106Z" fill="#00705F"/>
</g>
<rect x="0.5" y="0.5" width="320" height="148" rx="7.5" stroke="black"/>
<defs>
<clipPath id="clip0_20_3">
<rect width="321" height="149" rx="8" fill="white"/>
</clipPath>
<clipPath id="clip1_20_3">
<rect width="200" height="190.564" fill="white" transform="translate(150 -28)"/>
</clipPath>
<clipPath id="clip2_20_3">
<rect width="500" height="82.9939" fill="white" transform="matrix(0 -1 1 0 -32 318)"/>
</clipPath>
<clipPath id="clip3_20_3">
<rect width="50" height="58.6466" fill="white" transform="translate(-5 -13)"/>
</clipPath>
</defs>
</svg>
