<svg xmlns="http://www.w3.org/2000/svg" version="1.1" xmlns:xlink="http://www.w3.org/1999/xlink" xmlns:svgjs="http://svgjs.dev/svgjs" viewBox="0 0 800 800">
	<defs>
		<filter id="uuunion-blur" x="-100%" y="-100%" width="400%" height="400%" color-interpolation-filters="sRGB">
			<feGaussianBlur in="SourceGraphic" stdDeviation="7.5 0" result="blur">
			</feGaussianBlur>
			<feDropShadow stdDeviation="12.307692307692308" in="blur" dx="10" dy="10" flood-color="hsl(167, 72%, 60%)" flood-opacity="0.25" x="0%" y="0%" width="100%" height="100%">
			</feDropShadow>
		</filter>
		<filter id="uuunion-blur2" x="-100%" y="-100%" width="400%" height="400%" color-interpolation-filters="sRGB">
			<feGaussianBlur in="SourceGraphic" stdDeviation="7.5 0" result="blur">
			</feGaussianBlur>
			<feDropShadow stdDeviation="12.307692307692308" in="blur" dx="-10" dy="-10" flood-color="hsl(167, 72%, 60%)" flood-opacity="0.25" x="0%" y="0%" width="100%" height="100%">
			</feDropShadow>
		</filter>
		<linearGradient gradientTransform="rotate(0, 0.5, 0.5)" x1="50%" y1="0%" x2="50%" y2="100%" id="uuunion-grad">
			<stop stop-color="hsl(212, 72%, 59%)" offset="10%">
			</stop>
			<stop stop-color="hsl(167, 72%, 60%)" offset="90%">
			</stop>
		</linearGradient>
		<linearGradient gradientTransform="rotate(135, 0.5, 0.5)" x1="50%" y1="0%" x2="50%" y2="100%" id="uuunion-grad2">
			<stop stop-color="hsl(212, 72%, 59%)" offset="25%">
			</stop>
			<stop stop-color="hsl(167, 72%, 60%)" offset="100%">
			</stop>
		</linearGradient>
		<linearGradient gradientTransform="rotate(333, 0.5, 0.5)" x1="50%" y1="0%" x2="50%" y2="100%" id="uuunion-grad3">
			<stop stop-color="hsl(212, 72%, 59%)" offset="0%">
			</stop>
			<stop stop-color="hsl(167, 72%, 60%)" offset="75%">
			</stop>
		</linearGradient>
	</defs>
	<path d="M-79.27 -81.8Q-64.53 -78.89 -49.79 -76.09 -35.05 -73.73 -20.31 -72.05 -5.57 -71.25 9.17 -71.41 23.91 -72.52 38.65 -74.45 53.39 -76.99 68.13 -79.86 82.87 -82.75 97.61 -85.33 112.35 -87.33 127.09 -88.52 141.84 -88.77 156.58 -88.05 171.32 -86.45 186.06 -84.14 200.8 -81.37 215.54 -78.45 230.28 -75.7 245.02 -73.42 259.76 -71.87 274.51 -71.21 289.25 -71.52 303.99 -72.76 318.73 -74.8 333.47 -77.41 348.21 -80.3 362.95 -83.16 377.69 -85.67 392.44 -87.56 407.18 -88.62 421.92 -88.72 436.66 -87.86 451.4 -86.14 466.14 -83.74 480.88 -80.93 495.62 -78.02 510.36 -75.32 525.11 -73.14 539.85 -71.71 554.59 -71.2 569.33 -71.65 584.07 -73.02 598.81 -75.16 613.55 -77.83 628.29 -80.74 643.03 -83.57 657.78 -86 672.52 -87.78 687.26 -88.69 702 -88.65 716.74 -87.66 731.48 -85.82 746.22 -83.34 760.96 -80.49 775.7 -77.59 790.45 -74.95 805.19 -72.87 819.93 -71.57 834.67 -71.2 849.41 -71.8 864.15 -73.3 857.79 -58.13 855.93 -42.96 858.96 -27.78 866.27 -12.61 876.36 2.55 887.19 17.72 896.56 32.89 902.56 48.06 903.98 63.23 900.54 78.4 892.92 93.57 882.67 108.75 871.88 123.92 862.74 139.09 857.11 154.26 856.12 169.43 859.98 184.6 867.9 199.77 878.28 214.94 889.01 230.12 897.91 245.29 903.17 260.46 903.72 275.63 899.46 290.8 891.24 305.97 880.74 321.14 870.09 336.31 861.45 351.49 856.57 366.66 856.46 381.83 861.12 397 869.62 412.17 880.22 427.34 890.78 442.51 899.15 457.68 903.63 472.86 903.3 488.03 898.25 503.2 889.49 518.37 878.8 533.54 868.35 548.71 860.27 563.88 856.19 579.05 856.95 594.23 862.39 609.4 871.4 624.57 882.16 639.74 892.48 654.91 900.26 670.08 903.93 685.25 902.74 700.42 896.93 715.59 887.68 730.77 876.87 745.94 866.69 761.11 859.22 776.28 855.97 791.45 857.59 806.62 863.77 821.79 873.24 836.96 884.08 852.14 894.09 867.31 901.24 882.48 904.08 897.65 888.69 901.6 873.29 903.18 857.9 902.2 842.5 898.78 827.11 893.29 811.72 886.33 796.32 878.68 780.93 871.18 765.54 864.64 750.14 859.8 734.75 857.17 719.36 857.06 703.96 859.48 688.57 864.15 673.18 870.57 657.78 878.02 642.39 885.7 627 892.74 611.6 898.38 596.21 902 580.82 903.19 565.42 901.83 550.03 898.07 534.64 892.32 519.24 885.21 503.85 877.52 488.45 870.11 473.06 863.79 457.67 859.25 442.27 856.99 426.88 857.27 411.49 860.05 396.09 865.02 380.7 871.64 365.31 879.19 349.91 886.82 334.52 893.7 319.13 899.07 303.73 902.34 288.34 903.15 272.95 901.41 257.55 897.32 242.16 891.32 226.77 884.07 211.37 876.37 195.98 869.07 180.58 862.98 165.19 858.75 149.8 856.87 134.4 857.53 119.01 860.67 103.62 865.93 88.22 872.74 72.83 880.35 57.44 887.92 42.04 894.62 26.65 899.71 11.26 902.62 -4.13 903.05 -19.52 900.94 -34.91 896.52 -50.31 890.29 -65.7 882.92 -81.09 875.23 -80.96 860.27 -80.64 845.32 -80.18 830.37 -79.69 815.41 -79.25 800.46 -78.97 785.5 -78.9 770.55 -79.05 755.6 -79.39 740.64 -79.85 725.69 -80.35 710.74 -80.77 695.78 -81.03 680.83 -81.09 665.87 -80.92 650.92 -80.56 635.97 -80.09 621.01 -79.6 606.06 -79.19 591.11 -78.94 576.15 -78.91 561.2 -79.09 546.24 -79.46 531.29 -79.94 516.34 -80.43 501.38 -80.83 486.43 -81.06 471.48 -81.07 456.52 -80.87 441.57 -80.49 426.61 -80.01 411.66 -79.52 396.71 -79.13 381.75 -78.92 366.8 -78.93 351.85 -79.15 336.89 -79.54 321.94 -80.03 306.98 -80.51 292.03 -80.88 277.08 -81.08 262.12 -81.05 247.17 -80.81 232.22 -80.41 217.26 -79.92 202.31 -79.44 187.35 -79.08 172.4 -78.91 157.45 -78.95 142.49 -79.21 127.54 -79.62 112.59 -80.12 97.63 -80.58 82.68 -80.93 67.72 -81.09 52.77 -81.02 37.82 -80.75 22.86 -80.32 7.91 -79.83 -7.03 -79.37 -21.99 -79.04 -36.94 -78.9 -51.9 -78.98 -66.85 -79.27 -81.8" fill="url(#uuunion-grad)">
	</path>
	<path d="M-79.27 -81.8Q-78.98 -66.85 -78.9 -51.9 -79.04 -36.94 -79.37 -21.99 -79.83 -7.03 -80.32 7.91 -80.75 22.86 -81.02 37.82 -81.09 52.77 -80.93 67.72 -80.58 82.68 -80.12 97.63 -79.62 112.59 -79.21 127.54 -78.95 142.49 -78.91 157.45 -79.08 172.4 -79.44 187.35 -79.92 202.31 -80.41 217.26 -80.81 232.22 -81.05 247.17 -81.08 262.12 -80.88 277.08 -80.51 292.03 -80.03 306.98 -79.54 321.94 -79.15 336.89 -78.93 351.85 -78.92 366.8 -79.13 381.75 -79.52 396.71 -69.63 400.24 -59.75 403.76 -49.86 407.09 -39.97 410.08 -30.09 412.57 -20.2 414.44 -1.67 415.89 1.53 415.98 13.64 408.84 25.67 400.56 37.67 391.31 49.66 381.34 61.68 370.93 73.78 360.4 85.99 350.09 98.34 340.29 110.86 331.27 123.56 323.23 136.46 316.29 149.56 310.5 162.85 305.81 176.29 302.07 189.88 299.1 203.55 296.62 217.26 294.35 230.96 291.99 244.6 289.23 258.1 285.82 271.42 281.56 284.51 276.29 297.31 269.96 309.8 262.6 321.95 254.29 333.75 245.22 345.2 235.59 356.32 225.68 367.15 215.77 377.74 206.14 388.15 197.04 398.44 188.67 408.71 181.2 419.03 174.69 429.5 169.16 440.2 164.54 451.21 160.68 462.61 157.4 474.46 154.46 486.79 151.61 499.65 148.58 513.03 145.14 526.93 141.07 541.31 136.23 556.12 130.51 571.29 123.89 586.74 116.41 602.35 108.19 618.02 99.37 633.63 90.17 649.05 80.81 664.17 71.54 678.87 62.58 693.06 54.14 706.66 46.36 719.59 39.36 731.83 33.18 743.36 27.8 754.18 23.13 764.34 19.06 773.9 15.39 782.95 11.93 791.61 8.47 800 4.78 788.87 -12.83 780.8 -30.46 778 -48.09 781.24 -65.71 789.64 -83.34 800.88 -100.96 811.88 -118.59 819.61 -136.21 804.35 -138.68 789.1 -141.28 773.84 -143.75 758.59 -145.8 743.33 -147.23 728.08 -147.87 712.82 -147.65 697.57 -146.6 682.31 -144.83 667.06 -142.54 651.8 -139.97 636.55 -137.4 621.29 -135.12 606.04 -133.36 590.78 -132.33 575.53 -132.13 560.27 -132.78 545.02 -134.22 529.76 -136.29 514.51 -138.76 499.25 -141.36 484 -143.82 468.74 -145.86 453.49 -147.26 438.23 -147.87 422.98 -147.63 407.72 -146.56 392.47 -144.77 377.21 -142.46 361.96 -139.89 346.7 -137.32 331.45 -135.05 316.19 -133.32 300.94 -132.31 285.68 -132.13 270.43 -132.82 255.17 -134.28 239.92 -136.36 224.66 -138.84 209.41 -141.45 194.15 -143.89 178.89 -145.92 163.64 -147.29 148.38 -147.88 133.13 -147.61 117.87 -146.51 102.62 -144.7 87.36 -142.38 72.11 -139.8 56.85 -137.25 41.6 -134.99 26.34 -133.27 11.09 -132.29 -4.16 -132.14 -19.41 -132.85 -34.67 -134.34 -49.92 -136.44 -65.18 -138.92 -80.43 -141.53 -95.69 -143.96 -110.94 -145.97 -126.2 -147.33 -135.68 -134.73 -117.39 -117.15 -107.68 -108.7 -98.08 -99.96 -88.61 -90.98 -79.27 -81.8" fill="url(#uuunion-grad2)" filter="url(#uuunion-blur)">
	</path>
	<path d="M790.52 407.65Q800.41 410.56 810.3 412.95 820.18 414.7 830.07 415.73 839.96 415.98 849.84 415.45 859.73 414.16 869.62 412.17 880.22 427.34 890.78 442.51 899.15 457.68 903.63 472.86 903.3 488.03 898.25 503.2 889.49 518.37 878.8 533.54 868.35 548.71 860.27 563.88 856.19 579.05 856.95 594.23 862.39 609.4 871.4 624.57 882.16 639.74 892.48 654.91 900.26 670.08 903.93 685.25 902.74 700.42 896.93 715.59 887.68 730.77 876.87 745.94 866.69 761.11 859.22 776.28 855.97 791.45 857.59 806.62 863.77 821.79 873.24 836.96 884.08 852.14 894.09 867.31 901.24 882.48 904.08 897.65 889.95 901.36 875.83 903.09 861.7 902.68 847.57 900.16 833.44 895.76 819.32 889.91 805.19 883.13 791.06 876.06 776.94 869.36 762.81 863.64 748.68 859.45 734.56 857.16 720.43 856.99 706.3 858.96 692.18 862.88 678.05 868.39 663.92 874.98 649.8 882.03 635.67 888.9 621.54 894.93 607.42 899.59 593.29 902.42 579.16 903.17 565.04 901.77 550.91 898.35 536.78 893.22 522.66 886.86 508.53 879.87 494.4 872.89 480.28 866.57 466.15 861.49 452.02 858.14 437.9 856.81 423.77 857.64 409.64 860.54 395.52 865.24 381.39 871.32 367.26 878.2 353.14 885.25 339.01 891.81 324.88 897.28 310.76 901.14 296.63 903.03 282.5 902.79 268.38 900.43 254.25 896.17 240.12 890.41 226 883.69 211.87 876.62 197.74 869.86 183.62 864.05 169.49 859.71 155.36 857.26 141.24 856.92 127.11 858.72 112.98 862.5 98.86 867.9 84.73 874.43 70.6 881.47 56.47 888.37 42.35 894.5 28.22 899.28 7 897.65 -0.22 882.89 -0.43 872.74 -0.69 862.59 -0.98 852.44 -1.27 842.29 -1.4 827.07 -0.77 822 11.32 814.81 23.41 806.03 35.52 795.85 47.69 784.59 59.95 772.64 72.33 760.44 84.86 748.45 97.56 737.11 110.44 726.8 123.5 717.81 136.72 710.35 150.1 704.5 163.6 700.21 177.17 697.32 190.79 695.56 204.39 694.57 217.92 693.95 231.32 693.26 244.55 692.08 257.55 690.02 270.29 686.78 282.73 682.14 294.85 675.98 306.65 668.31 318.12 659.26 329.3 649.05 340.21 637.99 350.91 626.47 361.45 614.88 371.91 603.65 382.35 593.13 392.87 583.66 403.55 575.47 414.47 568.69 425.7 563.35 437.32 559.37 449.37 556.56 461.89 554.64 474.91 553.28 488.43 552.1 502.44 550.7 516.9 548.73 531.74 545.85 546.91 541.82 562.31 536.49 577.84 529.79 593.39 521.78 608.84 512.6 624.08 502.49 639 491.75 653.49 480.74 667.47 469.82 680.84 459.34 693.57 449.63 705.63 440.94 716.99 433.44 727.69 427.22 737.76 422.26 747.29 418.45 756.35 415.59 765.07 413.4 773.58 411.58 786.27 408.71 790.52 407.65" fill="url(#uuunion-grad3)" filter="url(#uuunion-blur2)">
	</path>
</svg>
