<svg xmlns="http://www.w3.org/2000/svg" version="1.1" xmlns:xlink="http://www.w3.org/1999/xlink" xmlns:svgjs="http://svgjs.dev/svgjs" viewBox="0 0 800 800" opacity="0.25">
	<defs>
		<filter id="bbburst-blur-1" x="-100%" y="-100%" width="400%" height="400%">
			<feGaussianBlur in="SourceGraphic" stdDeviation="1">
			</feGaussianBlur>
		</filter>
		<filter id="bbburst-blur-2" x="-100%" y="-100%" width="400%" height="400%">
			<feGaussianBlur in="SourceGraphic" stdDeviation="2">
			</feGaussianBlur>
		</filter>
		<filter id="bbburst-blur-3" x="-100%" y="-100%" width="400%" height="400%">
			<feGaussianBlur in="SourceGraphic" stdDeviation="4">
			</feGaussianBlur>
		</filter>
		<filter id="bbburst-blur-4" x="-100%" y="-100%" width="400%" height="400%">
			<feGaussianBlur in="SourceGraphic" stdDeviation="12">
			</feGaussianBlur>
		</filter>
		<symbol id="bbburst-shape-1" viewBox="0 0 194 167">
			<path d="m97 0 96.129 166.5H.871L97 0Z">
			</path>
		</symbol>
		<symbol id="bbburst-shape-3" viewBox="0 0 131 127">
			<path d="m66 0 66 63.5L66 127 0 63.5 66 0Z">
			</path>
		</symbol>
		<symbol id="bbburst-shape-4" viewBox="0 0 149 143">
			<path d="M71.647 2.781c.898-2.764 4.808-2.764 5.706 0l15.445 47.534a3 3 0 0 0 2.853 2.073h49.98c2.906 0 4.115 3.719 1.764 5.427L106.96 87.193a2.999 2.999 0 0 0-1.09 3.354l15.445 47.534c.898 2.764-2.266 5.062-4.617 3.354l-40.435-29.378a3 3 0 0 0-3.526 0l-40.435 29.378c-2.351 1.708-5.515-.59-4.617-3.354L43.13 90.547a3 3 0 0 0-1.09-3.354L1.605 57.815c-2.35-1.708-1.142-5.427 1.764-5.427h49.98a3 3 0 0 0 2.853-2.073L71.647 2.781Z">
			</path>
		</symbol>
		<symbol id="bbburst-shape-6" viewBox="0 0 133 116">
			<path d="M59.7487 10.2513c-13.6683-13.66839-35.8291-13.66839-49.4974 0-13.66839 13.6683-13.66839 35.8291 0 49.4974l49.4974-49.4974ZM66.5 66.5 41.7513 91.2487 66.5 115.997l24.7487-24.7483L66.5 66.5Zm56.249-6.7513c13.668-13.6683 13.668-35.8291 0-49.4974-13.669-13.66839-35.8294-13.66839-49.4977 0l49.4977 49.4974Zm-112.4977 0 31.5 31.5 49.4974-49.4974-31.5-31.5-49.4974 49.4974Zm80.9974 31.5 31.5003-31.5-49.4977-49.4974-31.5 31.5 49.4974 49.4974Z">
			</path>
		</symbol>
		<symbol id="bbburst-shape-8" viewBox="0 0 87 168">
			<path d="m12 12 31.2546 18.0749c16.4102 9.4902 20.014 31.6325 7.4603 45.8369L36.3296 92.1884c-12.5684 14.2206-8.9394 36.3916 7.5068 45.8636L75 156" stroke-width="14" stroke-linecap="round" stroke-linejoin="round">
			</path>
		</symbol>
		<symbol id="bbburst-shape-10" viewBox="0 0 145 145">
			<circle cx="72.5" cy="72.5" r="61.5" fill="none" stroke-width="22">
			</circle>
		</symbol>
	</defs>
	<use xlink:href="#bbburst-shape-6" width="48.84703516796848" opacity="0.6599301489726521" transform="matrix(0.9672279654949019,-0.2539095562687487,0.2539095562687487,0.9672279654949019,508.52361552723903,-84.04932805426074)" fill="#2c2891">
	</use>
	<use xlink:href="#bbburst-shape-1" width="81.19067772262744" opacity="0.0192302228096215" transform="matrix(0.9999557643437855,-0.009405814990508228,0.009405814990508228,0.9999557643437855,57.18682586779777,289.02819707571143)" fill="#2c2891" filter="url(#bbburst-blur-3)">
	</use>
	<use xlink:href="#bbburst-shape-4" width="35.90859354307566" opacity="0.8283776429049327" transform="matrix(0.7589692817871945,0.6511264311202781,-0.6511264311202781,0.7589692817871945,1003.1149864725205,-149.2847660473781)" fill="#ffa6d5">
	</use>
	<use xlink:href="#bbburst-shape-8" width="71.83678781923832" opacity="0.5283426022656637" transform="matrix(0.7534552727026964,0.657499165046242,-0.657499165046242,0.7534552727026964,742.1629976474534,43.99707212875785)" fill="none" stroke="#ffbd9b" filter="url(#bbburst-blur-1)">
	</use>
	<use xlink:href="#bbburst-shape-6" width="27.36394532270304" opacity="0.8479359567733983" transform="matrix(0.8980763820383363,-0.43983952985712,0.43983952985712,0.8980763820383363,463.6183476971685,-318.9703252257205)" fill="#00a19d">
	</use>
	<use xlink:href="#bbburst-shape-6" width="62.50702279017993" opacity="0.24885635938374662" transform="matrix(0.9970933049719594,-0.07619016458897523,0.07619016458897523,0.9970933049719594,2.107098592232724,-247.63849491228262)" fill="#00a19d" filter="url(#bbburst-blur-3)">
	</use>
	<use xlink:href="#bbburst-shape-6" width="25.78349707925956" opacity="0.9161602919707109" transform="matrix(0.8362268899513075,-0.5483836143817244,0.5483836143817244,0.8362268899513075,492.83650032662354,-294.3224144477492)" fill="#00a19d">
	</use>
	<use xlink:href="#bbburst-shape-6" width="76.94031746023393" opacity="0.1559549977339003" transform="matrix(0.8677673869762996,-0.4969705847435289,0.4969705847435289,0.8677673869762996,-158.87944078069125,101.32192560225172)" fill="#2c2891" filter="url(#bbburst-blur-3)">
	</use>
	<use xlink:href="#bbburst-shape-8" width="89.37109450399714" opacity="0.15429670040641608" transform="matrix(0.8522838272745833,-0.5230796093963025,0.5230796093963025,0.8522838272745833,78.06761821277763,382.42767176601313)" fill="none" stroke="#00a19d" filter="url(#bbburst-blur-3)">
	</use>
	<use xlink:href="#bbburst-shape-10" width="64.7116682421075" opacity="0.22323126261589044" transform="matrix(0.8231702831908,0.5677945798187739,-0.5677945798187739,0.8231702831908,429.31632109487055,178.79917534524526)" fill="none" stroke="#ff5c58" filter="url(#bbburst-blur-3)">
	</use>
	<use xlink:href="#bbburst-shape-4" width="36.37878835839593" opacity="0.7453801794530694" transform="matrix(0.9889743468748718,-0.14808693805808992,0.14808693805808992,0.9889743468748718,668.1424401854389,-144.1751878332868)" fill="#00a19d">
	</use>
	<use xlink:href="#bbburst-shape-4" width="21.538149501287947" opacity="0.9133060700556394" transform="matrix(0.8316604883654483,-0.5552844605170796,0.5552844605170796,0.8316604883654483,546.0462057175803,-243.05180222393983)" fill="#ff5c58">
	</use>
	<use xlink:href="#bbburst-shape-4" width="73.73088236083355" opacity="0.3804712790958793" transform="matrix(0.7871337881058534,-0.6167822951594261,0.6167822951594261,0.7871337881058534,244.9268682486374,260.89358720284685)" fill="#00a19d" filter="url(#bbburst-blur-2)">
	</use>
	<use xlink:href="#bbburst-shape-4" width="41.05661647437617" opacity="0.6525776056836745" transform="matrix(0.9340875068171804,0.35704415638414233,-0.35704415638414233,0.9340875068171804,659.5869839805578,-155.13314833984427)" fill="#ff5c58">
	</use>
	<use xlink:href="#bbburst-shape-6" width="58.235971458024196" opacity="0.22987081886436922" transform="matrix(0.8234511166362222,-0.5673872209616276,0.5673872209616276,0.8234511166362222,267.88105098499824,404.10203060372953)" fill="#2c2891" filter="url(#bbburst-blur-3)">
	</use>
	<use xlink:href="#bbburst-shape-4" width="52.92811270814694" opacity="0.6408047883357058" transform="matrix(0.8286764582730024,-0.5597279048824643,0.5597279048824643,0.8286764582730024,500.5279745124751,38.543768177580034)" fill="#ffbd9b" filter="url(#bbburst-blur-1)">
	</use>
	<use xlink:href="#bbburst-shape-4" width="33.12901187224657" opacity="0.8699260119859346" transform="matrix(0.7984124686590583,0.6021108950100041,-0.6021108950100041,0.7984124686590583,949.6969072410322,-225.15033322281556)" fill="#00a19d">
	</use>
	<use xlink:href="#bbburst-shape-8" width="45.14225372120498" opacity="0.6562931479152875" transform="matrix(0.9727130086760828,-0.23201164357058235,0.23201164357058235,0.9727130086760828,344.883706106987,-335.9743202755518)" fill="none" stroke="#ffbd9b">
	</use>
	<use xlink:href="#bbburst-shape-10" width="39.55719372854125" opacity="0.7556326262323961" transform="matrix(0.7797662888031636,0.6260707107397225,-0.6260707107397225,0.7797662888031636,881.7139282259307,-133.98146944152714)" fill="none" stroke="#ff5c58">
	</use>
	<use xlink:href="#bbburst-shape-4" width="34.200317093405616" opacity="0.7536085790243533" transform="matrix(0.7853276093911625,-0.6190804034436574,0.6190804034436574,0.7853276093911625,303.1919372012693,-231.9438050098097)" fill="#00a19d">
	</use>
	<use xlink:href="#bbburst-shape-4" width="52.92080941362293" opacity="0.38572420141146924" transform="matrix(0.9881602121257826,0.15342553624324817,-0.15342553624324817,0.9881602121257826,732.4830651240592,206.34796650394418)" fill="#00a19d" filter="url(#bbburst-blur-2)">
	</use>
	<use xlink:href="#bbburst-shape-8" width="51.91912696684927" opacity="0.38744255278184037" transform="matrix(0.9074002784176862,0.42026745618416084,-0.42026745618416084,0.9074002784176862,337.9760587484029,-288.4702469468083)" fill="none" stroke="#00a19d" filter="url(#bbburst-blur-2)">
	</use>
	<use xlink:href="#bbburst-shape-4" width="50.95429455765868" opacity="0.5389663098871786" transform="matrix(0.9112429712147165,0.41186921153659367,-0.41186921153659367,0.9112429712147165,771.922912317377,53.76062792730295)" fill="#ff5c58" filter="url(#bbburst-blur-1)">
	</use>
	<use xlink:href="#bbburst-shape-6" width="46.18444863538367" opacity="0.5083849362065911" transform="matrix(0.8014048204278424,-0.5981223234381222,0.5981223234381222,0.8014048204278424,481.09391565848586,181.04742801800597)" fill="#ffbd9b" filter="url(#bbburst-blur-1)">
	</use>
	<use xlink:href="#bbburst-shape-4" width="76.56432201628671" opacity="0.4838926390031152" transform="matrix(0.8829678293412859,0.4694335015189454,-0.4694335015189454,0.8829678293412859,519.0342370812532,-93.20312670443593)" fill="#ffa6d5" filter="url(#bbburst-blur-1)">
	</use>
	<use xlink:href="#bbburst-shape-4" width="23.550292935212465" opacity="0.9662283894200466" transform="matrix(0.8680312012998784,-0.4965096510339854,0.4965096510339854,0.8680312012998784,567.4172162835404,-317.35599034486785)" fill="#ffa6d5">
	</use>
	<use xlink:href="#bbburst-shape-4" width="58.346227796817644" opacity="0.5211011955383755" transform="matrix(0.9002231431110407,-0.43542886055850594,0.43542886055850594,0.9002231431110407,129.8841530074744,-253.95087493756927)" fill="#2c2891" filter="url(#bbburst-blur-1)">
	</use>
	<use xlink:href="#bbburst-shape-8" width="65.86632379976699" opacity="0.3724317207316802" transform="matrix(0.7856532053772707,-0.6186671486998644,0.6186671486998644,0.7856532053772707,103.52413637044208,169.5772316556592)" fill="none" stroke="#2c2891" filter="url(#bbburst-blur-2)">
	</use>
	<use xlink:href="#bbburst-shape-10" width="25.559964145174522" opacity="0.807991459248006" transform="matrix(0.7915546722578134,0.611098356098939,-0.611098356098939,0.7915546722578134,879.5840581921404,-210.75209088457729)" fill="none" stroke="#00a19d">
	</use>
	<use xlink:href="#bbburst-shape-10" width="58.77032497255195" opacity="0.25954493069862505" transform="matrix(0.9498697256947497,0.3126459726409103,-0.3126459726409103,0.9498697256947497,806.142796398671,345.70648589079536)" fill="none" stroke="#2c2891" filter="url(#bbburst-blur-2)">
	</use>
	<use xlink:href="#bbburst-shape-4" width="58.92160682576212" opacity="0.3334980099693562" transform="matrix(0.9915165319352661,-0.1299806404779665,0.1299806404779665,0.9915165319352661,122.94662082075102,-94.09537475711852)" fill="#ff5c58" filter="url(#bbburst-blur-2)">
	</use>
	<use xlink:href="#bbburst-shape-10" width="53.82530807342154" opacity="0.6136153442722199" transform="matrix(0.9726212744529189,0.23239590461447432,-0.23239590461447432,0.9726212744529189,516.4131169371077,-232.40917488811942)" fill="none" stroke="#ffbd9b" filter="url(#bbburst-blur-1)">
	</use>
</svg>
