<svg width="321" height="149" viewBox="0 0 321 149" fill="none" xmlns="http://www.w3.org/2000/svg">
<g clip-path="url(#clip0_20_3)">
<g clip-path="url(#clip1_20_3)">
<path d="M261.94 153.82C312.231 153.82 353 149.265 353 143.646C353 138.027 312.231 133.472 261.94 133.472C211.649 133.472 170.88 138.027 170.88 143.646C170.88 149.265 211.649 153.82 261.94 153.82Z" fill="#3F3D56"/>
<path d="M307.1 132.388L308.671 137.227C308.671 137.227 316.234 145.041 313.499 147.159C310.763 149.277 304.626 138.112 304.626 138.112L303.495 132.649L307.1 132.388Z" fill="#FFB8B8"/>
<path d="M292.59 94.9365L294.879 94.1735C294.879 94.1735 298.44 95.1909 298.949 98.7519C299.458 102.313 303.273 120.372 303.273 120.372C303.273 120.372 304.799 121.135 303.782 122.407C302.764 123.679 308.869 135.125 308.869 135.125L304.036 137.414C304.036 137.414 294.371 127.24 294.371 126.223C294.371 125.205 294.625 124.188 294.625 123.17C294.625 122.153 294.371 122.153 294.625 121.39C294.795 120.725 294.88 120.041 294.879 119.355L293.099 115.285L292.59 94.9365Z" fill="#00CBAC"/>
<path d="M175.998 112.385C188.7 112.385 198.997 91.375 198.997 65.4584C198.997 39.5418 188.7 18.5323 175.998 18.5323C163.297 18.5323 153 39.5418 153 65.4584C153 91.375 163.297 112.385 175.998 112.385Z" fill="#00CBAC"/>
<path d="M175.787 65.9451C176.935 45.5185 179.246 31.721 179.269 31.584L178.768 31.499C178.744 31.6362 176.429 45.4558 175.28 65.9087C174.219 84.7856 173.964 113.338 178.768 142.162L179.269 142.078C174.474 113.303 174.729 84.7943 175.787 65.9451Z" fill="#3F3D56"/>
<path d="M196.554 55.9419L175.76 67.0715L176 67.52L196.794 56.3904L196.554 55.9419Z" fill="#3F3D56"/>
<path d="M154.048 61.52L153.808 61.9686L174.605 73.0927L174.845 72.6441L154.048 61.52Z" fill="#3F3D56"/>
<path d="M230.468 101.429C247.85 101.429 261.94 72.6795 261.94 37.2147C261.94 1.74989 247.85 -27 230.468 -27C213.087 -27 198.997 1.74989 198.997 37.2147C198.997 72.6795 213.087 101.429 230.468 101.429Z" fill="#E6E6E6"/>
<path d="M230.086 37.8725C231.656 9.91579 234.82 -8.96791 234.852 -9.15545L234.35 -9.2404C234.318 -9.05274 231.151 9.85306 229.579 37.8361C228.128 63.663 227.778 102.727 234.35 142.162L234.852 142.078C228.288 102.692 228.637 63.6717 230.086 37.8725Z" fill="#3F3D56"/>
<path d="M258.641 24.2746L230.186 39.5048L230.426 39.9533L258.881 24.7231L258.641 24.2746Z" fill="#3F3D56"/>
<path d="M200.386 31.9079L200.146 32.3565L228.606 47.579L228.846 47.1303L200.386 31.9079Z" fill="#3F3D56"/>
<path d="M204.251 126.452C210.745 126.452 216.009 115.71 216.009 102.46C216.009 89.2093 210.745 78.4676 204.251 78.4676C197.757 78.4676 192.492 89.2093 192.492 102.46C192.492 115.71 197.757 126.452 204.251 126.452Z" fill="#E6E6E6"/>
<path d="M204.241 103.494L204.31 103.624L214.942 97.9332L214.702 97.4846L204.263 103.072C204.84 92.4396 206.022 85.302 206.046 85.1614L205.544 85.0765C205.518 85.2299 204.114 93.7059 203.616 105.971L193.087 100.335L192.847 100.784L203.479 106.474L203.606 106.237C203.207 116.36 203.431 129.017 205.544 141.697L206.046 141.614C203.742 127.789 203.691 113.99 204.241 103.494Z" fill="#3F3D56"/>
<path d="M295.702 70.7914C291.614 63.8232 283.525 63.4984 283.525 63.4984C283.525 63.4984 275.643 62.4817 270.586 73.0944C265.873 82.9863 259.369 92.5372 269.539 94.8528L271.376 89.0856L272.514 95.2822C273.962 95.3872 275.415 95.4122 276.865 95.3572C287.757 95.0025 298.129 95.461 297.796 91.5188C297.352 86.2782 299.637 77.4962 295.702 70.7914Z" fill="#2F2E41"/>
<path d="M267.204 126.606C267.09 127.335 266.924 128.054 266.708 128.759C266.465 129.449 266.089 130.087 265.867 130.784C265.158 133.005 266.141 135.482 267.71 137.197C269.067 138.676 270.825 139.728 272.769 140.227C274.185 140.586 275.657 140.638 277.116 140.687C281.156 140.826 285.301 140.949 289.129 139.64C290.339 139.215 291.508 138.68 292.619 138.04C292.971 137.871 293.28 137.625 293.525 137.321C293.817 136.902 293.854 136.358 293.852 135.845C293.843 134.118 293.496 132.399 293.578 130.673C293.624 129.718 293.801 128.762 293.714 127.81C293.597 126.731 293.149 125.715 292.433 124.901C291.716 124.086 290.766 123.513 289.711 123.259C288.625 123.023 287.499 123.152 286.393 123.259C283.523 123.537 280.64 123.667 277.757 123.648C274.811 123.629 271.883 123.176 268.952 123.128C268.085 123.114 268.102 123.384 267.826 124.23C267.572 125.009 267.364 125.803 267.204 126.606Z" fill="#2F2E41"/>
<path d="M255.684 125.202C254.892 125.001 254.076 124.914 253.259 124.942C252.401 124.996 251.564 125.231 250.802 125.63C250.04 126.03 249.371 126.585 248.839 127.26C248.311 127.946 247.932 128.733 247.726 129.573C247.52 130.413 247.491 131.287 247.641 132.138C247.838 133.061 248.161 133.952 248.601 134.787C249.244 136.103 250.016 137.416 251.206 138.26C251.923 138.723 252.695 139.094 253.505 139.363L259.775 141.746C260.697 142.096 261.62 142.447 262.551 142.772C267.229 144.403 272.109 145.381 277.053 145.68C278.559 145.77 280.087 145.795 281.556 145.45C281.915 145.402 282.243 145.223 282.478 144.947C282.597 144.737 282.668 144.502 282.684 144.261L283.07 141.536C283.156 141.157 283.145 140.762 283.037 140.388C282.86 139.93 282.417 139.642 281.995 139.397C277.873 137.009 273.06 135.692 269.59 132.414C268.773 131.643 268.09 130.42 267.097 129.896C265.972 129.301 264.646 128.962 263.483 128.414C260.94 127.217 258.44 125.841 255.684 125.202Z" fill="#2F2E41"/>
<path opacity="0.1" d="M261.944 128.875C264.16 129.575 273.516 134.428 275.12 136.122C274.905 136.201 267.612 132.078 267.393 132.011C265.403 131.409 263.403 130.803 261.514 129.922C261.134 129.744 259.044 128.911 259.139 128.427C259.246 127.882 261.55 128.751 261.944 128.875Z" fill="black"/>
<path d="M289.592 147.093C289.718 147.102 289.843 147.065 289.943 146.988C289.987 146.931 290.02 146.865 290.039 146.795C290.058 146.725 290.062 146.652 290.053 146.581L290.043 142.869C288.985 142.361 287.801 142.198 286.639 142.041L281.218 141.31C281.343 141.327 280.371 143.665 280.52 143.977C280.783 144.527 282.79 145.015 283.357 145.275C285.327 146.178 287.373 147.17 289.592 147.093Z" fill="#FFB8B8"/>
<path d="M272.585 142.856C271.561 143.021 270.419 143.166 269.756 143.97C268.915 144.989 269.273 146.508 269.674 147.77C269.734 148.025 269.853 148.262 270.023 148.462C270.296 148.734 270.716 148.774 271.099 148.799C272.033 148.858 273.026 148.905 273.842 148.443C274.211 148.197 274.567 147.93 274.907 147.644C275.508 147.241 276.169 146.936 276.865 146.741C278.145 146.335 279.462 146.062 280.797 145.924C281.323 145.9 281.844 145.807 282.346 145.649C282.597 145.566 282.827 145.427 283.016 145.242C283.205 145.057 283.349 144.83 283.436 144.581C283.625 143.906 283.237 143.218 282.864 142.627C282.4 141.89 281.908 141.114 281.215 140.572C280.205 139.78 279.706 140.388 278.688 140.894C276.764 141.852 274.706 142.514 272.585 142.856Z" fill="#FFB8B8"/>
<path d="M269.91 143.786L263.411 141.849C262.632 141.575 261.818 141.416 260.993 141.376C260.169 141.377 259.306 141.649 258.772 142.282C258.268 142.878 258.124 143.694 257.998 144.467L257.729 146.122C257.55 146.956 257.499 147.813 257.579 148.662C257.702 149.505 258.128 150.347 258.87 150.755C259.769 151.25 260.871 151.009 261.875 150.802C263.902 150.384 265.964 150.161 268.034 150.135C268.811 150.126 269.627 150.136 270.315 149.768C271.132 149.332 271.62 148.408 271.705 147.479C271.832 146.066 271.365 144.22 269.91 143.786Z" fill="#2F2E41"/>
<path d="M292.146 142.098C292.989 141.949 293.732 141.466 294.54 141.181C295.676 140.78 296.907 140.78 298.111 140.784C298.553 140.786 299.024 140.796 299.392 141.043C299.922 141.399 300.058 142.111 300.148 142.747L300.692 146.585C300.794 147.307 300.896 148.048 300.736 148.76C300.577 149.471 300.096 150.156 299.396 150.34C298.547 150.563 297.714 150.015 296.911 149.655C294.906 148.756 292.575 148.986 290.484 148.314C290.095 148.19 289.68 147.999 289.522 147.62C289.45 147.407 289.425 147.181 289.447 146.957C289.483 145.724 289.225 144.039 289.593 142.86C289.924 141.8 291.206 142.098 292.146 142.098Z" fill="#2F2E41"/>
<path d="M305.899 123.657C307.197 123.329 308.544 123.236 309.874 123.383C310.937 123.502 312.032 123.8 312.808 124.542C313.753 125.445 314.056 126.842 314.081 128.154C314.124 130.765 313.265 133.31 311.65 135.361C311.256 135.878 310.787 136.333 310.259 136.711C309.691 137.07 309.084 137.365 308.45 137.59L294.409 143.177C290.715 144.646 287.008 146.12 283.155 147.089C283.049 147.14 282.935 147.169 282.818 147.175C282.701 147.181 282.583 147.164 282.473 147.123C282.363 147.083 282.262 147.021 282.177 146.941C282.091 146.861 282.022 146.764 281.975 146.657C280.744 144.883 279.712 142.979 278.897 140.979C278.86 140.915 278.838 140.844 278.831 140.771C278.824 140.697 278.833 140.623 278.858 140.554C278.909 140.477 278.981 140.415 279.065 140.376L288.996 134.62C289.725 134.236 290.404 133.765 291.018 133.215C291.448 132.795 291.799 132.301 292.056 131.758C292.262 131.324 292.281 130.301 292.544 129.98C292.801 129.666 293.682 129.641 294.089 129.518C294.663 129.34 295.224 129.126 295.771 128.876C297.992 127.874 299.971 126.417 302.1 125.244C303.294 124.555 304.57 124.022 305.899 123.657Z" fill="#2F2E41"/>
<path opacity="0.1" d="M300.269 127.956C298.562 129.248 296.353 130.437 294.662 131.763C294.085 132.216 284.463 137.672 284.327 138.397C285.905 138.665 295.955 131.573 297.393 130.866C298.831 130.158 300.106 129.16 301.369 128.17C301.691 127.917 303.055 127.158 302.131 126.876C301.61 126.717 300.653 127.697 300.269 127.956Z" fill="black"/>
<path d="M283.179 88.3232C288.517 88.3232 292.844 83.9958 292.844 78.6576C292.844 73.3195 288.517 68.9921 283.179 68.9921C277.841 68.9921 273.513 73.3195 273.513 78.6576C273.513 83.9958 277.841 88.3232 283.179 88.3232Z" fill="#FFB8B8"/>
<path d="M287.249 86.7971C287.249 86.7971 285.722 90.6125 288.52 92.1386C291.318 93.6647 279.872 105.874 279.872 105.874L274.785 91.1212C274.785 91.1212 279.109 89.595 278.346 85.5253L287.249 86.7971Z" fill="#FFB8B8"/>
<path d="M280.89 97.2258L287.05 90.4253L295.388 94.6822L294.116 124.696L292.081 126.986C292.081 126.986 283.433 134.616 270.207 128.257C270.207 128.257 265.628 124.442 265.883 118.592C266.137 112.742 265.374 111.978 265.374 111.978L265.12 91.3755L277.677 88.9113L280.89 97.2258Z" fill="#00CBAC"/>
<path d="M252.644 129.59L251.074 134.429C251.074 134.429 243.51 142.243 246.245 144.361C248.981 146.479 255.119 135.314 255.119 135.314L256.25 129.851L252.644 129.59Z" fill="#FFB8B8"/>
<path d="M267.154 92.1386L264.865 91.3755C264.865 91.3755 261.304 92.393 260.795 95.954C260.287 99.515 256.471 117.574 256.471 117.574C256.471 117.574 254.945 118.337 255.963 119.609C256.98 120.881 250.875 132.327 250.875 132.327L255.708 134.616C255.708 134.616 265.374 124.442 265.374 123.425C265.374 122.407 265.12 121.39 265.12 120.372C265.12 119.355 265.374 119.355 265.12 118.592C264.95 117.927 264.864 117.243 264.865 116.557L266.646 112.487L267.154 92.1386Z" fill="#00CBAC"/>
<path d="M293.895 70.1196L285.903 65.8975L274.868 67.6246L272.584 77.7966L278.268 77.5761L279.856 73.839V77.5143L282.478 77.4125L284.001 71.4631L284.952 77.7966L294.276 77.6046L293.895 70.1196Z" fill="#2F2E41"/>
<path d="M237.244 135.555V150.226H192.432C192.432 146.335 193.978 142.604 196.729 139.852C199.48 137.101 203.212 135.555 207.103 135.555C211.305 134.245 216.163 133.828 221.434 133.965C226.406 134.092 231.745 134.716 237.244 135.555Z" fill="#FF6584"/>
<path d="M230.843 147.026H251.916C252.269 147.026 252.609 147.166 252.859 147.416C253.109 147.667 253.249 148.006 253.249 148.359C253.249 148.713 253.109 149.052 252.859 149.303C252.609 149.553 252.269 149.693 251.916 149.693H230.843V147.026Z" fill="#3F3D56"/>
<path d="M234.493 122.999L240.141 116.152C240.271 115.881 240.481 115.655 240.742 115.506C241.004 115.357 241.304 115.29 241.605 115.316C241.905 115.342 242.19 115.458 242.422 115.65C242.654 115.842 242.822 116.099 242.905 116.389L245.132 124.254L234.493 122.999Z" fill="#3F3D56"/>
<path d="M227.642 126.486L229.776 117.871C229.776 117.57 229.868 117.276 230.039 117.028C230.21 116.78 230.452 116.59 230.734 116.484C231.016 116.377 231.323 116.359 231.615 116.432C231.908 116.504 232.171 116.664 232.37 116.89L237.778 123.019L227.642 126.486Z" fill="#FF6584"/>
<path d="M230.043 147.559H251.115C251.469 147.559 251.808 147.7 252.059 147.95C252.309 148.2 252.449 148.539 252.449 148.893C252.449 149.247 252.309 149.586 252.059 149.836C251.808 150.086 251.469 150.227 251.115 150.227H230.043V147.559Z" fill="#FF6584"/>
<path opacity="0.2" d="M237.244 135.555V150.145C235.079 150.375 232.89 150.111 230.842 149.374C228.794 148.636 226.939 147.444 225.417 145.887C223.896 144.33 222.747 142.448 222.057 140.384C221.367 138.319 221.154 136.124 221.434 133.965C226.406 134.092 231.745 134.716 237.244 135.555Z" fill="black"/>
<path d="M237.245 150.227C245.2 150.227 251.649 143.778 251.649 135.822C251.649 127.867 245.2 121.418 237.245 121.418C229.289 121.418 222.84 127.867 222.84 135.822C222.84 143.778 229.289 150.227 237.245 150.227Z" fill="#FF6584"/>
<path d="M251.115 140.624C251.999 140.624 252.716 138.952 252.716 136.889C252.716 134.827 251.999 133.155 251.115 133.155C250.232 133.155 249.515 134.827 249.515 136.889C249.515 138.952 250.232 140.624 251.115 140.624Z" fill="#3F3D56"/>
<path d="M247.248 133.955C247.469 133.955 247.648 133.537 247.648 133.022C247.648 132.506 247.469 132.088 247.248 132.088C247.027 132.088 246.848 132.506 246.848 133.022C246.848 133.537 247.027 133.955 247.248 133.955Z" fill="#3F3D56"/>
<path d="M250.182 132.088C250.403 132.088 250.582 131.67 250.582 131.154C250.582 130.639 250.403 130.221 250.182 130.221C249.961 130.221 249.782 130.639 249.782 131.154C249.782 131.67 249.961 132.088 250.182 132.088Z" fill="#3F3D56"/>
<path d="M236.036 121.258C236.036 121.258 235.236 119.865 235.236 119.016L236.036 121.258Z" fill="#3F3D56"/>
<path d="M236.388 120.357C236.388 120.357 236.825 118.811 237.432 118.217L236.388 120.357Z" fill="#3F3D56"/>
</g>
<rect x="116.5" y="29.5" width="89" height="89" rx="11.5" fill="white" stroke="#9F9F9F"/>
<circle cx="128" cy="43.5" r="2.5" fill="#EFEFEF"/>
<circle cx="139" cy="43.5" r="2.5" fill="#EFEFEF"/>
<circle cx="150" cy="43.5" r="2.5" fill="#EFEFEF"/>
<circle cx="161" cy="43.5" r="2.5" fill="#EFEFEF"/>
<circle cx="172" cy="43.5" r="2.5" fill="#EFEFEF"/>
<circle cx="183" cy="43.5" r="2.5" fill="#EFEFEF"/>
<circle cx="194" cy="43.5" r="2.5" fill="#EFEFEF"/>
<circle cx="128" cy="53.6667" r="2.5" fill="#EFEFEF"/>
<circle cx="139" cy="53.6667" r="2.5" fill="#EFEFEF"/>
<circle cx="150" cy="53.6667" r="2.5" fill="#00CBAC"/>
<circle cx="161" cy="53.6667" r="2.5" fill="#00CBAC"/>
<circle cx="172" cy="53.6667" r="2.5" fill="#00CBAC"/>
<circle cx="183" cy="53.6667" r="2.5" fill="#EFEFEF"/>
<circle cx="194" cy="53.6667" r="2.5" fill="#EFEFEF"/>
<circle cx="128" cy="63.8333" r="2.5" fill="#EFEFEF"/>
<circle cx="139" cy="63.8333" r="2.5" fill="#00CBAC"/>
<circle cx="150" cy="63.8333" r="2.5" fill="#EFEFEF"/>
<circle cx="161" cy="63.8333" r="2.5" fill="#EFEFEF"/>
<circle cx="172" cy="63.8333" r="2.5" fill="#EFEFEF"/>
<circle cx="183" cy="63.8333" r="2.5" fill="#00CBAC"/>
<circle cx="194" cy="63.8333" r="2.5" fill="#EFEFEF"/>
<circle cx="128" cy="74" r="2.5" fill="#EFEFEF"/>
<circle cx="139" cy="74" r="2.5" fill="#00CBAC"/>
<circle cx="150" cy="74" r="2.5" fill="#EFEFEF"/>
<circle cx="161" cy="74" r="2.5" fill="#EFEFEF"/>
<circle cx="172" cy="74" r="2.5" fill="#EFEFEF"/>
<circle cx="183" cy="74" r="2.5" fill="#00CBAC"/>
<circle cx="194" cy="74" r="2.5" fill="#EFEFEF"/>
<circle cx="128" cy="84.1667" r="2.5" fill="#EFEFEF"/>
<circle cx="139" cy="84.1667" r="2.5" fill="#00CBAC"/>
<circle cx="150" cy="84.1667" r="2.5" fill="#EFEFEF"/>
<circle cx="161" cy="84.1667" r="2.5" fill="#EFEFEF"/>
<circle cx="172" cy="84.1667" r="2.5" fill="#00705F"/>
<circle cx="183" cy="84.1667" r="2.5" fill="#00CBAC"/>
<circle cx="194" cy="84.1667" r="2.5" fill="#EFEFEF"/>
<circle cx="128" cy="94.3333" r="2.5" fill="#EFEFEF"/>
<circle cx="139" cy="94.3333" r="2.5" fill="#EFEFEF"/>
<circle cx="150" cy="94.3333" r="2.5" fill="#00CBAC"/>
<circle cx="161" cy="94.3333" r="2.5" fill="#00CBAC"/>
<circle cx="172" cy="94.3333" r="2.5" fill="#00CBAC"/>
<circle cx="183" cy="94.3333" r="2.5" fill="#00705F"/>
<circle cx="194" cy="94.3333" r="2.5" fill="#EFEFEF"/>
<circle cx="128" cy="104.5" r="2.5" fill="#EFEFEF"/>
<circle cx="139" cy="104.5" r="2.5" fill="#EFEFEF"/>
<circle cx="150" cy="104.5" r="2.5" fill="#EFEFEF"/>
<circle cx="161" cy="104.5" r="2.5" fill="#EFEFEF"/>
<circle cx="172" cy="104.5" r="2.5" fill="#EFEFEF"/>
<circle cx="183" cy="104.5" r="2.5" fill="#EFEFEF"/>
<circle cx="194" cy="104.5" r="2.5" fill="#00705F"/>
<path d="M143 29V14.84H143.72V29H143ZM144.44 29V14.84H146.6V29H144.44ZM147.32 29V14.84H149.48V29H147.32ZM150.2 29V14.84H150.92V29H150.2ZM153.08 29V14.84H153.8V29H153.08ZM147.056 31.088H148.832C149.424 31.088 149.864 31.24 150.152 31.544C150.456 31.832 150.608 32.208 150.608 32.672C150.608 33.12 150.464 33.488 150.176 33.776C149.888 34.064 149.456 34.208 148.88 34.208H147.704V36.656H147.056V31.088ZM148.808 33.656C149.208 33.656 149.496 33.568 149.672 33.392C149.864 33.232 149.96 33 149.96 32.696C149.96 32.392 149.864 32.152 149.672 31.976C149.48 31.784 149.2 31.688 148.832 31.688H147.704V33.656H148.808ZM154.531 29V14.84H156.691V29H154.531ZM157.411 29V14.84H158.131V29H157.411ZM158.851 29V14.84H159.571V29H158.851ZM160.291 29V14.84H162.451V29H160.291ZM164.611 29V14.84H165.331V29H164.611ZM158.563 31.088H160.195C160.835 31.088 161.299 31.232 161.587 31.52C161.891 31.792 162.043 32.184 162.043 32.696C162.043 33.016 161.939 33.32 161.731 33.608C161.523 33.896 161.251 34.088 160.915 34.184L162.211 36.656H161.515L160.267 34.208H159.187V36.656H158.563V31.088ZM160.267 33.656C160.651 33.656 160.939 33.568 161.131 33.392C161.307 33.232 161.395 33 161.395 32.696C161.395 32.392 161.307 32.144 161.131 31.952C160.939 31.776 160.651 31.688 160.267 31.688H159.187V33.656H160.267ZM166.062 29V14.84H168.223V29H166.062ZM168.943 29V14.84H169.663V29H168.943ZM170.383 29V14.84H172.543V29H170.383ZM173.263 29V14.84H173.983V29H173.263ZM176.143 29V14.84H176.863V29H176.143ZM171.823 36.752C171.183 36.752 170.695 36.504 170.359 36.008C170.007 35.512 169.831 34.808 169.831 33.896C169.831 33.016 170.007 32.32 170.359 31.808C170.711 31.312 171.199 31.064 171.823 31.064C172.447 31.064 172.935 31.312 173.287 31.808C173.639 32.32 173.815 33.016 173.815 33.896C173.815 34.808 173.639 35.512 173.287 36.008C172.951 36.504 172.463 36.752 171.823 36.752ZM171.823 36.2C172.255 36.2 172.583 36.008 172.807 35.624C173.047 35.224 173.167 34.648 173.167 33.896C173.167 33.192 173.047 32.632 172.807 32.216C172.567 31.816 172.239 31.616 171.823 31.616C171.407 31.616 171.079 31.816 170.839 32.216C170.599 32.632 170.479 33.192 170.479 33.896C170.479 34.648 170.591 35.224 170.815 35.624C171.055 36.008 171.391 36.2 171.823 36.2Z" fill="#00705F"/>
<g clip-path="url(#clip2_20_3)">
<path d="M4.7795 148.139C3.19091 151.382 -0.434349 158.74 -4.34474 167.217C-8.26021 175.69 -12.3488 185.323 -15.1696 192.986C-16.7989 197.421 -18.3875 201.866 -19.7877 206.362C-21.193 210.858 -22.4608 215.4 -23.5759 219.972C-25.806 229.122 -27.3946 238.419 -28.2347 247.777C-29.0647 257.131 -29.1309 266.55 -28.2042 275.873C-27.2877 285.191 -25.3529 294.407 -22.2521 303.221C-22.028 303.918 -21.7327 304.651 -21.4425 305.43C-21.1421 306.204 -20.857 307.024 -20.5209 307.829C-19.8539 309.443 -19.192 311.102 -18.5504 312.564C-17.9496 314.045 -17.3845 315.339 -17.0637 316.301C-16.7429 317.263 -16.6614 317.89 -16.9364 317.981C-17.2215 318.078 -17.6747 317.798 -18.2602 317.177C-18.5555 316.866 -18.8865 316.469 -19.248 315.991C-19.4313 315.751 -19.6197 315.492 -19.8132 315.211C-19.9965 314.921 -20.1899 314.616 -20.3885 314.295C-20.7857 313.643 -21.2134 312.915 -21.6614 312.116C-22.0942 311.306 -22.5219 310.415 -22.9802 309.458C-23.4537 308.506 -23.8661 307.457 -24.3244 306.357C-24.7928 305.262 -25.2052 304.076 -25.6329 302.839C-27.7052 296.841 -29.192 290.649 -30.2256 284.402C-31.2796 278.149 -31.7938 271.826 -31.9516 265.512C-32.1197 259.193 -31.8396 252.879 -31.2694 246.611C-30.7042 240.339 -29.7928 234.117 -28.637 227.961C-26.9415 218.954 -24.6146 210.069 -21.7327 201.377C-18.8356 192.696 -15.5107 184.178 -11.9058 175.797C-4.70115 159.02 3.59824 142.798 11.6074 126.489C15.197 119.162 18.7663 111.83 22.1726 104.432C23.8529 100.725 25.5484 97.0239 27.137 93.2764C28.7714 89.5493 30.304 85.7866 31.7857 82.0035C37.6665 66.866 42.4119 51.2499 45.0545 35.2672C47.5341 20.2774 48.0993 4.93628 45.8539 -10.0281C45.5942 -11.9018 45.2378 -13.7552 44.8967 -15.6136C44.4995 -17.4568 44.1329 -19.3102 43.6543 -21.1381C43.2266 -22.9762 42.6767 -24.7837 42.1675 -26.5963C41.5718 -28.3885 41.0219 -30.191 40.3956 -31.9731C37.8651 -39.0963 34.7185 -46.0108 31.3172 -52.8285C25.4466 -64.5953 18.8376 -76.0973 13.1706 -88.1696C10.3498 -94.2185 7.76835 -100.374 5.70623 -106.79C3.69503 -113.21 2.30501 -119.819 1.64309 -126.52C1.3325 -129.672 1.0881 -133.159 1.08302 -136.739C1.07283 -140.313 1.30704 -143.979 1.84676 -147.442C2.27955 -150.298 3.07385 -154.096 4.30094 -157.767C5.50257 -161.449 7.15226 -164.977 8.62884 -167.457C8.93943 -167.997 9.25511 -168.541 9.61153 -169.066L10.6502 -170.654C11.3987 -171.678 12.1013 -172.722 12.8702 -173.674C13.7001 -174.809 14.5759 -175.741 15.3396 -176.606C16.1441 -177.426 16.8722 -178.154 17.5443 -178.755C18.2317 -179.341 18.8325 -179.835 19.3519 -180.237C19.8916 -180.614 20.3447 -180.904 20.7113 -181.113C22.1828 -181.948 22.2541 -181.454 21.2205 -179.814C20.9965 -179.458 21.1237 -179.346 21.0677 -179.101C21.0372 -178.979 20.9659 -178.826 20.7775 -178.597C20.6044 -178.353 20.3193 -178.022 19.8712 -177.564C19.7948 -177.487 19.6523 -177.335 19.581 -177.263L19.082 -176.729L18.6085 -176.169L17.6411 -175.059C17.0148 -174.31 16.4089 -173.536 15.7928 -172.783C14.6217 -171.214 13.4506 -169.641 12.4272 -167.956C10.3294 -164.621 8.54737 -161.016 7.29992 -157.192C5.74187 -152.513 4.82538 -147.615 4.37731 -142.681C4.15837 -140.211 4.082 -137.727 4.082 -135.242C4.12782 -132.757 4.22456 -130.272 4.47406 -127.798C4.71845 -125.323 5.03413 -122.854 5.4822 -120.405C5.68077 -119.178 5.95572 -117.961 6.20012 -116.739C6.49035 -115.527 6.73984 -114.31 7.07589 -113.109C7.68179 -110.695 8.43026 -108.317 9.22456 -105.96L9.84574 -104.198C10.0596 -103.613 10.2989 -103.032 10.5229 -102.447L11.8926 -98.9537C19.5504 -80.3997 30.6655 -63.3631 38.9598 -44.7277C41.5005 -39.0148 43.7612 -33.1493 45.5535 -27.1157C47.3101 -21.077 48.5983 -14.9059 49.413 -8.67877C50.2073 -2.44659 50.5688 3.83139 50.5331 10.0992C50.4771 16.367 50.0443 22.6196 49.306 28.8263C48.4557 35.6135 47.4017 42.4006 45.6808 49.1267L45.7113 49.0096C44.0922 56.0666 42.1268 63.0473 39.8457 69.9108C35.5127 82.8945 30.0647 95.7815 24.2246 108.271C18.4149 120.781 12.2591 132.94 6.45465 144.6C6.00659 145.517 5.44142 146.785 4.7795 148.139Z" fill="black"/>
</g>
<g clip-path="url(#clip3_20_3)">
<path d="M-4.30183 38.8643C-4.00637 36.7241 -3.68931 34.5838 -3.37223 32.4432C-3.17766 31.132 -2.87498 29.8346 -2.86056 28.4944C-2.86056 28.1267 -3.03353 27.7305 -2.83176 27.3917V27.3989C-2.82455 27.0098 -2.86058 26.6135 -2.78852 26.2387C-2.52188 24.812 -2.39936 23.2914 -2.01023 21.9438C-1.99581 21.8934 -2.05345 21.8069 -2.03903 21.7276C-1.96697 21.3457 -1.64991 20.0125 -1.5202 19.1478C-1.21752 17.1372 -0.857221 15.1411 0.0075531 13.2314C0.14447 12.9359 1.38394 8.63373 2.98376 8.92918C4.6556 9.23907 4.42503 13.534 4.2665 14.0673C3.88455 15.3572 3.26481 16.6111 3.32248 17.9731C3.40895 19.9621 2.83962 21.8357 2.5874 23.767C2.36402 25.4966 1.96767 27.2045 1.75868 28.941C1.55688 30.5699 1.6362 32.2489 1.34075 33.8632C1.08131 35.2538 0.418305 36.5726 0.0219517 37.9417C-0.0717325 38.2662 0.158869 38.7128 0.0651846 39.0662C-0.00684547 39.3617 -0.107748 39.8515 -0.302334 40.1252C-0.381582 40.2406 -0.482484 40.3632 -0.446469 40.4929C-0.273499 41.1128 -1.50577 45.6741 -3.44427 45.2921C-5.33954 44.9105 -4.56126 40.7233 -4.30183 38.8643Z" fill="black"/>
<path d="M9.50584 26.4688C10.0319 24.5521 10.5796 22.6424 11.1272 20.7327C11.466 19.5581 11.9055 18.4195 12.0641 17.1944C12.1073 16.8557 11.9776 16.4666 12.2154 16.1855V16.1928C12.2658 15.8396 12.2731 15.4721 12.3811 15.1334C12.7991 13.8651 13.0874 12.4959 13.6207 11.3213C13.6423 11.278 13.5918 11.1844 13.6134 11.1195C13.7287 10.7808 14.1827 9.60617 14.4061 8.83508C14.925 7.04072 15.4943 5.26798 16.5608 3.64655C16.7266 3.39433 18.4201 -0.360181 19.9694 0.144255C21.5836 0.670308 20.8918 4.56895 20.6756 5.03738C20.1568 6.16155 19.4073 7.22087 19.3136 8.47478C19.1839 10.3124 18.4201 11.941 17.9589 13.6633C17.5481 15.2127 16.9788 16.7188 16.5752 18.2753C16.2005 19.7382 16.0924 21.2804 15.624 22.7144C15.2132 23.9467 14.4205 25.0564 13.8801 26.2526C13.7504 26.5338 13.9305 26.9733 13.8008 27.2906C13.6927 27.55 13.5414 27.9823 13.3252 28.2056C13.2315 28.2993 13.1162 28.3929 13.1378 28.5229C13.2387 29.1135 11.5308 33.106 9.64998 32.4718C7.81957 31.8523 9.05182 28.1335 9.50584 26.4688Z" fill="black"/>
<path d="M22.976 16.4658C23.9273 14.0805 24.9722 11.724 26.1252 9.42516C26.817 8.00553 27.6602 6.66516 28.2583 5.18786C28.424 4.78429 28.4384 4.28707 28.7843 3.9844L28.7771 3.99162C28.9645 3.56643 29.1014 3.11245 29.3537 2.73049C30.2761 1.26042 31.1552 -0.332176 32.2146 -1.62932C32.2578 -1.67977 32.2434 -1.79507 32.301 -1.87436C32.5749 -2.24187 33.5549 -3.56063 34.1819 -4.40376C35.5725 -6.39992 37.1075 -8.29518 39.0534 -9.8157C39.2049 -9.93821 40.2425 -10.9183 41.3883 -11.7182C42.5628 -12.5037 43.8312 -13.1018 44.415 -12.5325C45.0274 -11.9416 44.5951 -10.6516 43.9609 -9.46981C43.3485 -8.26635 42.5267 -7.15657 42.3034 -6.93315C41.7556 -6.3927 41.1646 -5.89545 40.6097 -5.355C40.0695 -4.80729 39.5793 -4.21639 39.2263 -3.52458C38.2173 -1.49962 36.7255 0.157863 35.5654 2.05313L33.9658 4.58252C33.4252 5.41846 32.9135 6.27602 32.4524 7.15519C31.5732 8.81264 31.0039 10.6214 30.1319 12.2644C29.3897 13.6841 28.2943 14.938 27.4944 16.3505C27.307 16.6819 27.3791 17.2152 27.1918 17.5899C27.0332 17.8998 26.7954 18.4187 26.5359 18.6781C26.4206 18.7862 26.291 18.9015 26.291 19.0528C26.2766 19.4059 25.6856 20.7895 24.8641 22.0002C24.0714 23.2181 23.0481 24.2774 22.1185 23.9387C21.2105 23.6 21.2033 22.2524 21.5132 20.7175C21.6861 19.9536 21.9383 19.1537 22.1978 18.4043C22.486 17.662 22.7743 16.9846 22.976 16.4658Z" fill="black"/>
</g>
</g>
<rect x="0.5" y="0.5" width="320" height="148" rx="7.5" stroke="black"/>
<defs>
<clipPath id="clip0_20_3">
<rect width="321" height="149" rx="8" fill="white"/>
</clipPath>
<clipPath id="clip1_20_3">
<rect width="200" height="190.564" fill="white" transform="translate(153 -27)"/>
</clipPath>
<clipPath id="clip2_20_3">
<rect width="500" height="82.9939" fill="white" transform="matrix(0 -1 1 0 -32 318)"/>
</clipPath>
<clipPath id="clip3_20_3">
<rect width="50" height="58.6466" fill="white" transform="translate(-5 -13)"/>
</clipPath>
</defs>
</svg>
