<svg width="90" height="90" viewBox="0 0 90 90" fill="none" xmlns="http://www.w3.org/2000/svg">
<circle cx="12" cy="14.5" r="2.5" fill="white"/>
<circle cx="23" cy="14.5" r="2.5" fill="white"/>
<circle cx="34" cy="14.5" r="2.5" fill="white"/>
<circle cx="45" cy="14.5" r="2.5" fill="white"/>
<circle cx="56" cy="14.5" r="2.5" fill="white"/>
<circle cx="67" cy="14.5" r="2.5" fill="white"/>
<circle cx="78" cy="14.5" r="2.5" fill="white"/>
<circle cx="12" cy="24.6667" r="2.5" fill="white"/>
<circle cx="23" cy="24.6667" r="2.5" fill="white"/>
<circle cx="34" cy="24.6667" r="2.5" fill="#00CBAC"/>
<circle cx="45" cy="24.6667" r="2.5" fill="#00CBAC"/>
<circle cx="56" cy="24.6667" r="2.5" fill="#00CBAC"/>
<circle cx="67" cy="24.6667" r="2.5" fill="white"/>
<circle cx="78" cy="24.6667" r="2.5" fill="white"/>
<circle cx="12" cy="34.8333" r="2.5" fill="white"/>
<circle cx="23" cy="34.8333" r="2.5" fill="#00CBAC"/>
<circle cx="34" cy="34.8333" r="2.5" fill="white"/>
<circle cx="45" cy="34.8333" r="2.5" fill="white"/>
<circle cx="56" cy="34.8333" r="2.5" fill="white"/>
<circle cx="67" cy="34.8333" r="2.5" fill="#00CBAC"/>
<circle cx="78" cy="34.8333" r="2.5" fill="white"/>
<circle cx="12" cy="45" r="2.5" fill="white"/>
<circle cx="23" cy="45" r="2.5" fill="#00CBAC"/>
<circle cx="34" cy="45" r="2.5" fill="white"/>
<circle cx="45" cy="45" r="2.5" fill="white"/>
<circle cx="56" cy="45" r="2.5" fill="white"/>
<circle cx="67" cy="45" r="2.5" fill="#00CBAC"/>
<circle cx="78" cy="45" r="2.5" fill="white"/>
<circle cx="12" cy="55.1667" r="2.5" fill="white"/>
<circle cx="23" cy="55.1667" r="2.5" fill="#00CBAC"/>
<circle cx="34" cy="55.1667" r="2.5" fill="white"/>
<circle cx="45" cy="55.1667" r="2.5" fill="white"/>
<circle cx="56" cy="55.1667" r="2.5" fill="#00705F"/>
<circle cx="67" cy="55.1667" r="2.5" fill="#00CBAC"/>
<circle cx="78" cy="55.1667" r="2.5" fill="white"/>
<circle cx="12" cy="65.3333" r="2.5" fill="white"/>
<circle cx="23" cy="65.3333" r="2.5" fill="white"/>
<circle cx="34" cy="65.3333" r="2.5" fill="#00CBAC"/>
<circle cx="45" cy="65.3333" r="2.5" fill="#00CBAC"/>
<circle cx="56" cy="65.3333" r="2.5" fill="#00CBAC"/>
<circle cx="67" cy="65.3333" r="2.5" fill="#00705F"/>
<circle cx="78" cy="65.3333" r="2.5" fill="white"/>
<circle cx="12" cy="75.5" r="2.5" fill="white"/>
<circle cx="23" cy="75.5" r="2.5" fill="white"/>
<circle cx="34" cy="75.5" r="2.5" fill="white"/>
<circle cx="45" cy="75.5" r="2.5" fill="white"/>
<circle cx="56" cy="75.5" r="2.5" fill="white"/>
<circle cx="67" cy="75.5" r="2.5" fill="white"/>
<circle cx="78" cy="75.5" r="2.5" fill="#00705F"/>
</svg>
