<svg xmlns="http://www.w3.org/2000/svg" version="1.1" xmlns:xlink="http://www.w3.org/1999/xlink" xmlns:svgjs="http://svgjs.dev/svgjs" viewBox="0 0 800 800">
	<defs>
		<filter id="uuunion-blur" x="-100%" y="-100%" width="400%" height="400%" color-interpolation-filters="sRGB">
			<feGaussianBlur in="SourceGraphic" stdDeviation="22 22" result="blur">
			</feGaussianBlur>
			<feDropShadow stdDeviation="19.692307692307693" in="blur" dx="16" dy="16" flood-color="hsl(270, 73%, 53%)" flood-opacity="0.21" x="0%" y="0%" width="100%" height="100%">
			</feDropShadow>
		</filter>
		<filter id="uuunion-blur2" x="-100%" y="-100%" width="400%" height="400%" color-interpolation-filters="sRGB">
			<feGaussianBlur in="SourceGraphic" stdDeviation="22 22" result="blur">
			</feGaussianBlur>
			<feDropShadow stdDeviation="19.692307692307693" in="blur" dx="-16" dy="-16" flood-color="hsl(270, 73%, 53%)" flood-opacity="0.21" x="0%" y="0%" width="100%" height="100%">
			</feDropShadow>
		</filter>
		<linearGradient gradientTransform="rotate(42, 0.5, 0.5)" x1="50%" y1="0%" x2="50%" y2="100%" id="uuunion-grad">
			<stop stop-color="hsl(162, 100%, 58%)" offset="10%">
			</stop>
			<stop stop-color="hsl(270, 73%, 53%)" offset="90%">
			</stop>
		</linearGradient>
		<linearGradient gradientTransform="rotate(135, 0.5, 0.5)" x1="50%" y1="0%" x2="50%" y2="100%" id="uuunion-grad2">
			<stop stop-color="hsl(162, 100%, 58%)" offset="25%">
			</stop>
			<stop stop-color="hsl(270, 73%, 53%)" offset="100%">
			</stop>
		</linearGradient>
		<linearGradient gradientTransform="rotate(333, 0.5, 0.5)" x1="50%" y1="0%" x2="50%" y2="100%" id="uuunion-grad3">
			<stop stop-color="hsl(162, 100%, 58%)" offset="0%">
			</stop>
			<stop stop-color="hsl(270, 73%, 53%)" offset="75%">
			</stop>
		</linearGradient>
	</defs>
	<path d="M-78.9 -88.78Q-64.29 -87.54 -49.68 -83.66 -35.08 -78.5 -20.47 -73.86 -5.86 -71.37 8.74 -71.89 23.35 -75.24 37.96 -80.25 52.57 -85.17 67.18 -88.29 81.79 -88.5 96.39 -85.75 111 -80.98 125.61 -75.87 140.22 -72.2 154.83 -71.25 169.44 -73.36 184.05 -77.78 198.66 -82.98 213.27 -87.13 227.87 -88.79 242.48 -87.38 257.09 -83.39 271.7 -78.21 286.31 -73.66 300.92 -71.32 315.53 -72.01 330.14 -75.49 344.75 -80.55 359.35 -85.41 373.96 -88.38 388.57 -88.42 403.18 -85.52 417.79 -80.69 432.4 -75.61 447.01 -72.07 461.62 -71.29 476.23 -73.56 490.83 -78.07 505.44 -83.26 520.05 -87.3 534.66 -88.79 549.27 -87.21 563.88 -83.11 578.49 -77.92 593.1 -73.45 607.71 -71.27 622.32 -72.14 636.92 -75.75 651.53 -80.84 666.14 -85.64 680.75 -88.47 695.36 -88.33 709.97 -85.29 724.58 -80.39 739.19 -75.36 753.8 -71.95 768.4 -71.34 783.01 -73.76 797.62 -78.36 812.23 -83.53 826.84 -87.46 841.45 -88.79 856.06 -87.04 857.7 -72.22 860.98 -57.4 865.67 -42.58 871.42 -27.76 877.81 -12.94 884.35 1.87 890.58 16.69 896.02 31.51 900.27 46.33 903.03 61.15 904.09 75.97 903.36 90.79 900.91 105.61 896.91 120.43 891.66 135.25 885.55 150.07 879.03 164.89 872.58 179.71 866.67 194.53 861.76 209.35 858.19 224.17 856.23 238.99 856.03 253.81 857.6 268.63 860.83 283.45 865.47 298.27 871.19 313.09 877.56 327.91 884.1 342.73 890.35 357.55 895.83 372.37 900.14 387.19 902.96 402.01 904.08 416.82 903.42 431.64 901.03 446.46 897.09 461.28 891.88 476.1 885.79 490.92 879.28 505.74 872.82 520.56 866.88 535.38 861.92 550.2 858.3 565.02 856.27 579.84 856 594.66 857.51 609.48 860.68 624.3 865.27 639.12 870.95 653.94 877.31 668.76 883.86 683.58 890.12 698.4 895.64 713.22 900 728.04 902.88 742.86 904.07 757.68 903.48 772.5 901.15 787.32 897.26 802.14 892.1 816.96 886.04 831.78 879.53 846.6 873.06 861.42 858.17 856.82 843.28 860.31 828.4 870.68 813.51 884.3 798.62 896.42 783.74 902.8 768.85 901.22 753.96 892.22 739.08 878.95 724.19 866.04 709.3 858.01 694.42 857.66 679.53 865.11 664.64 877.76 649.76 891.19 634.87 900.71 619.98 902.99 605.1 897.24 590.21 885.47 575.32 871.78 560.44 860.96 545.55 856.8 530.66 860.73 515.78 871.4 500.89 885.07 486 896.96 471.12 902.93 456.23 900.89 441.34 891.55 426.46 878.17 411.57 865.43 396.68 857.78 381.8 857.89 366.91 865.72 352.02 878.54 337.14 891.87 322.25 901.05 307.36 902.87 292.48 896.71 277.59 884.7 262.7 871.06 247.82 860.53 232.93 856.8 218.04 861.18 203.16 872.13 188.27 885.82 173.38 897.49 158.5 903.04 143.61 900.54 128.72 890.86 113.84 877.39 98.95 864.83 84.06 857.57 69.18 858.14 54.29 866.34 39.4 879.32 24.52 892.53 9.63 901.36 -5.25 902.73 -20.13 896.16 -35.02 883.94 -49.91 870.34 -64.79 860.12 -79.68 856.83 -79.97 842.06 -80.27 827.28 -80.55 812.51 -80.78 797.73 -80.96 782.96 -81.07 768.18 -81.09 753.41 -81.04 738.63 -80.91 723.86 -80.71 709.08 -80.46 694.31 -80.17 679.53 -79.87 664.75 -79.58 649.98 -79.32 635.2 -79.11 620.43 -78.97 605.65 -78.9 590.88 -78.91 576.1 -79 561.33 -79.17 546.55 -79.4 531.78 -79.67 517 -79.96 502.23 -80.26 487.45 -80.54 472.67 -80.78 457.9 -80.96 443.12 -81.06 428.35 -81.09 413.57 -81.04 398.8 -80.91 384.02 -80.72 369.25 -80.47 354.47 -80.18 339.7 -79.88 324.92 -79.59 310.15 -79.33 295.37 -79.12 280.59 -78.97 265.82 -78.9 251.04 -78.91 236.27 -79 221.49 -79.16 206.72 -79.39 191.94 -79.66 177.17 -79.95 162.39 -80.25 147.62 -80.53 132.84 -80.77 118.07 -80.95 103.29 -81.06 88.51 -81.09 73.74 -81.05 58.96 -80.92 44.19 -80.73 29.41 -80.48 14.64 -80.19 -0.13 -79.9 -14.9 -79.6 -29.68 -79.34 -44.45 -79.13 -59.23 -78.98 -74 -78.9 -88.78" fill="url(#uuunion-grad)">
	</path>
	<path d="M-78.9 -88.78Q-78.98 -74 -79.13 -59.23 -79.34 -44.45 -79.6 -29.68 -79.9 -14.9 -80.19 -0.13 -80.48 14.64 -80.73 29.41 -80.92 44.19 -81.05 58.96 -81.09 73.74 -81.06 88.51 -80.95 103.29 -80.77 118.07 -80.53 132.84 -80.25 147.62 -79.95 162.39 -79.66 177.17 -79.39 191.94 -79.16 206.72 -79 221.49 -78.91 236.27 -78.9 251.04 -78.97 265.82 -79.12 280.59 -79.33 295.37 -79.59 310.15 -79.88 324.92 -80.18 339.7 -80.47 354.47 -80.72 369.25 -80.91 384.02 -70.69 384.92 -60.48 388.2 -50.26 393.34 -40.04 399.53 -29.82 405.79 -19.6 411.14 -0.44 415.65 2.86 415.94 15.51 407.06 28.1 394.99 40.62 381.17 53.06 367.45 65.43 355.65 77.71 347.09 89.91 342.29 102.03 340.85 114.07 341.57 126.04 342.73 137.94 342.52 149.79 339.52 161.59 332.95 173.36 322.95 185.11 310.46 196.85 297.03 208.6 284.42 220.38 274.14 232.2 267.15 244.07 263.58 256.02 262.74 268.06 263.28 280.2 263.54 292.45 261.95 304.83 257.4 317.35 249.52 330 238.75 342.81 226.23 355.76 213.5 368.86 202.12 382.12 193.33 395.51 187.7 409.05 185.04 422.71 184.43 436.48 184.48 450.35 183.66 464.3 180.66 478.31 174.73 492.36 165.83 506.43 154.66 520.5 142.43 534.53 130.62 548.51 120.55 562.42 113.13 576.21 108.59 589.88 106.49 603.4 105.77 616.74 105.08 629.9 103.07 642.84 98.73 655.56 91.65 668.05 82.07 680.3 70.83 692.29 59.17 704.04 48.41 715.53 39.62 726.79 33.38 737.81 29.65 748.61 27.76 759.2 26.65 769.62 25.04 779.87 21.82 789.98 16.3 800 8.34 793.11 -9.37 786.92 -27.09 782.04 -44.81 778.97 -62.53 778 -80.25 779.24 -97.97 782.57 -115.69 787.64 -133.4 772.96 -132.1 758.27 -133.51 743.58 -137.17 728.9 -141.8 714.21 -145.81 699.52 -147.81 684.84 -147.12 670.15 -143.96 655.46 -139.44 640.78 -135.11 626.09 -132.47 611.4 -132.42 596.72 -134.99 582.03 -139.28 567.34 -143.82 552.66 -147.04 537.97 -147.83 523.28 -145.92 508.6 -141.96 493.91 -137.32 479.23 -133.61 464.54 -132.1 449.85 -133.32 435.17 -136.84 420.48 -141.45 405.79 -145.56 391.11 -147.75 376.42 -147.26 361.73 -144.27 347.05 -139.8 332.36 -135.4 317.67 -132.58 302.99 -132.33 288.3 -134.72 273.61 -138.93 258.93 -143.51 244.24 -146.87 229.55 -147.87 214.87 -146.15 200.18 -142.3 185.49 -137.66 170.81 -133.82 156.12 -132.12 141.43 -133.13 126.75 -136.51 112.06 -141.1 97.37 -145.3 82.69 -147.67 68 -147.39 53.32 -144.56 38.63 -140.16 23.94 -135.69 9.26 -132.71 -5.42 -132.25 -20.11 -134.46 -34.79 -138.57 -49.48 -143.18 -64.17 -146.69 -78.85 -147.89 -93.54 -146.36 -108.23 -142.64 -122.91 -138 -132.26 -122.26 -115.11 -110.27 -105.99 -105.81 -96.93 -100.98 -87.9 -95.4 -78.9 -88.78" fill="url(#uuunion-grad2)" filter="url(#uuunion-blur)">
	</path>
	<path d="M818.38 413.34Q828.6 408.85 838.82 402.97 849.04 396.61 859.26 390.79 869.48 386.42 879.7 384.19 889.92 384.46 900.14 387.19 902.96 402.01 904.08 416.82 903.42 431.64 901.03 446.46 897.09 461.28 891.88 476.1 885.79 490.92 879.28 505.74 872.82 520.56 866.88 535.38 861.92 550.2 858.3 565.02 856.27 579.84 856 594.66 857.51 609.48 860.68 624.3 865.27 639.12 870.95 653.94 877.31 668.76 883.86 683.58 890.12 698.4 895.64 713.22 900 728.04 902.88 742.86 904.07 757.68 903.48 772.5 901.15 787.32 897.26 802.14 892.1 816.96 886.04 831.78 879.53 846.6 873.06 861.42 859.39 856.89 845.73 859.19 832.07 867.64 818.41 879.74 804.75 891.92 791.09 900.57 777.43 903.14 763.76 898.86 750.1 889.01 736.44 876.5 722.78 865.01 709.12 857.96 695.46 857.42 681.79 863.55 668.13 874.55 654.47 887.15 640.81 897.64 627.15 902.91 613.49 901.41 599.82 893.58 586.16 881.73 572.5 869.37 558.84 860.15 545.18 856.8 531.52 860.3 517.86 869.62 504.19 882.02 490.53 893.81 476.87 901.52 463.21 902.87 449.55 897.45 435.89 886.88 422.22 874.27 408.56 863.35 394.9 857.35 381.24 858.05 367.58 865.23 353.92 876.78 340.25 889.28 326.59 899.03 312.93 903.16 299.27 900.44 285.61 891.67 271.95 879.46 258.28 867.4 244.62 859.07 230.96 856.92 217.3 861.59 203.64 871.71 189.98 884.27 176.32 895.57 162.65 902.26 148.99 902.38 135.33 895.87 121.67 884.68 108.01 872.1 94.35 861.85 80.68 856.97 67.02 858.89 53.36 867.05 39.7 879.04 26.04 891.31 5.63 896.63 -0.93 882.88 -0.75 872.73 -0.58 862.58 -0.43 852.43 -0.3 842.28 0.1 827.06 0.91 822 13.77 812.97 26.62 799.28 39.47 782.78 52.31 766 65.1 751.5 77.85 741.27 90.55 736.26 103.17 736.11 115.73 739.29 128.19 743.47 140.57 746.1 152.85 745.04 165.03 739.04 177.11 728.09 189.1 713.38 201 697.01 212.81 681.46 224.54 668.99 236.2 661.08 247.81 658.11 259.37 659.22 270.9 662.58 282.43 665.84 293.96 666.66 305.51 663.36 317.1 655.25 328.76 642.83 340.49 627.64 352.32 611.9 364.26 597.92 376.33 587.56 388.54 581.8 400.9 580.47 413.43 582.32 426.13 585.35 439.01 587.29 452.07 586.16 465.31 580.72 478.72 570.84 492.31 557.44 506.06 542.3 519.96 527.6 533.99 515.4 548.14 507.12 562.38 503.22 576.71 503.07 591.08 505.16 605.48 507.42 619.89 507.78 634.26 504.66 648.57 497.32 662.81 486.07 676.92 472.19 690.9 457.55 704.72 444.2 718.34 433.87 731.75 427.51 744.93 425.11 757.85 425.67 770.52 427.52 782.91 428.66 795.02 427.3 812.61 417.81 818.38 413.34" fill="url(#uuunion-grad3)" filter="url(#uuunion-blur2)">
	</path>
</svg>
