<svg width="321" height="149" viewBox="0 0 321 149" fill="none" xmlns="http://www.w3.org/2000/svg">
<g clip-path="url(#clip0_29_63)">
<g clip-path="url(#clip1_29_63)">
<path d="M4.7795 148.139C3.19091 151.382 -0.434349 158.74 -4.34474 167.217C-8.26021 175.69 -12.3488 185.323 -15.1696 192.986C-16.7989 197.421 -18.3875 201.866 -19.7877 206.362C-21.193 210.858 -22.4608 215.4 -23.5759 219.972C-25.806 229.122 -27.3946 238.419 -28.2347 247.777C-29.0647 257.131 -29.1309 266.55 -28.2042 275.873C-27.2877 285.191 -25.3529 294.407 -22.2521 303.221C-22.028 303.918 -21.7327 304.651 -21.4425 305.43C-21.1421 306.204 -20.857 307.024 -20.5209 307.829C-19.8539 309.443 -19.192 311.102 -18.5504 312.564C-17.9496 314.045 -17.3845 315.339 -17.0637 316.301C-16.7429 317.263 -16.6614 317.89 -16.9364 317.981C-17.2215 318.078 -17.6747 317.798 -18.2602 317.177C-18.5555 316.866 -18.8865 316.469 -19.248 315.991C-19.4313 315.751 -19.6197 315.492 -19.8132 315.211C-19.9965 314.921 -20.1899 314.616 -20.3885 314.295C-20.7857 313.643 -21.2134 312.915 -21.6614 312.116C-22.0942 311.306 -22.5219 310.415 -22.9802 309.458C-23.4537 308.506 -23.8661 307.457 -24.3244 306.357C-24.7928 305.262 -25.2052 304.076 -25.6329 302.839C-27.7052 296.841 -29.192 290.649 -30.2256 284.402C-31.2796 278.149 -31.7938 271.826 -31.9516 265.512C-32.1197 259.193 -31.8396 252.879 -31.2694 246.611C-30.7042 240.339 -29.7928 234.117 -28.637 227.961C-26.9415 218.954 -24.6146 210.069 -21.7327 201.377C-18.8356 192.696 -15.5107 184.178 -11.9058 175.797C-4.70115 159.02 3.59824 142.798 11.6074 126.489C15.197 119.162 18.7663 111.83 22.1726 104.432C23.8529 100.725 25.5484 97.0239 27.137 93.2764C28.7714 89.5493 30.304 85.7866 31.7857 82.0035C37.6665 66.866 42.4119 51.2499 45.0545 35.2672C47.5341 20.2774 48.0993 4.93628 45.8539 -10.0281C45.5942 -11.9018 45.2378 -13.7552 44.8967 -15.6136C44.4995 -17.4568 44.1329 -19.3102 43.6543 -21.1381C43.2266 -22.9762 42.6767 -24.7837 42.1675 -26.5963C41.5718 -28.3885 41.0219 -30.191 40.3956 -31.9731C37.8651 -39.0963 34.7185 -46.0108 31.3172 -52.8285C25.4466 -64.5953 18.8376 -76.0973 13.1706 -88.1696C10.3498 -94.2185 7.76835 -100.374 5.70623 -106.79C3.69503 -113.21 2.30501 -119.819 1.64309 -126.52C1.3325 -129.672 1.0881 -133.159 1.08302 -136.739C1.07283 -140.313 1.30704 -143.979 1.84676 -147.442C2.27955 -150.298 3.07385 -154.096 4.30094 -157.767C5.50257 -161.449 7.15226 -164.977 8.62884 -167.457C8.93943 -167.997 9.25511 -168.541 9.61153 -169.066L10.6502 -170.654C11.3987 -171.678 12.1013 -172.722 12.8702 -173.674C13.7001 -174.809 14.5759 -175.741 15.3396 -176.606C16.1441 -177.426 16.8722 -178.154 17.5443 -178.755C18.2317 -179.341 18.8325 -179.835 19.3519 -180.237C19.8916 -180.614 20.3447 -180.904 20.7113 -181.113C22.1828 -181.948 22.2541 -181.454 21.2205 -179.814C20.9965 -179.458 21.1237 -179.346 21.0677 -179.101C21.0372 -178.979 20.9659 -178.826 20.7775 -178.597C20.6044 -178.353 20.3193 -178.022 19.8712 -177.564C19.7948 -177.487 19.6523 -177.335 19.581 -177.263L19.082 -176.729L18.6085 -176.169L17.6411 -175.059C17.0148 -174.31 16.4089 -173.536 15.7928 -172.783C14.6217 -171.214 13.4506 -169.641 12.4272 -167.956C10.3294 -164.621 8.54737 -161.016 7.29992 -157.192C5.74187 -152.513 4.82538 -147.615 4.37731 -142.681C4.15837 -140.211 4.082 -137.727 4.082 -135.242C4.12782 -132.757 4.22456 -130.272 4.47406 -127.798C4.71845 -125.323 5.03413 -122.854 5.4822 -120.405C5.68077 -119.178 5.95572 -117.961 6.20012 -116.739C6.49035 -115.527 6.73984 -114.31 7.07589 -113.109C7.68179 -110.695 8.43026 -108.317 9.22456 -105.96L9.84574 -104.198C10.0596 -103.613 10.2989 -103.032 10.5229 -102.447L11.8926 -98.9537C19.5504 -80.3997 30.6655 -63.3631 38.9598 -44.7277C41.5005 -39.0148 43.7612 -33.1493 45.5535 -27.1157C47.3101 -21.077 48.5983 -14.9059 49.413 -8.67877C50.2073 -2.44659 50.5688 3.83139 50.5331 10.0992C50.4771 16.367 50.0443 22.6196 49.306 28.8263C48.4557 35.6135 47.4017 42.4006 45.6808 49.1267L45.7113 49.0096C44.0922 56.0666 42.1268 63.0473 39.8457 69.9108C35.5127 82.8945 30.0647 95.7815 24.2246 108.271C18.4149 120.781 12.2591 132.94 6.45465 144.6C6.00659 145.517 5.44142 146.785 4.7795 148.139Z" fill="black"/>
</g>
<g clip-path="url(#clip2_29_63)">
<path d="M-4.30183 38.8643C-4.00637 36.7241 -3.68931 34.5838 -3.37223 32.4432C-3.17766 31.132 -2.87498 29.8346 -2.86056 28.4944C-2.86056 28.1267 -3.03353 27.7305 -2.83176 27.3917V27.3989C-2.82455 27.0098 -2.86058 26.6135 -2.78852 26.2387C-2.52188 24.812 -2.39936 23.2914 -2.01023 21.9438C-1.99581 21.8934 -2.05345 21.8069 -2.03903 21.7276C-1.96697 21.3457 -1.64991 20.0125 -1.5202 19.1478C-1.21752 17.1372 -0.857221 15.1411 0.0075531 13.2314C0.14447 12.9359 1.38394 8.63373 2.98376 8.92918C4.6556 9.23907 4.42503 13.534 4.2665 14.0673C3.88455 15.3572 3.26481 16.6111 3.32248 17.9731C3.40895 19.9621 2.83962 21.8357 2.5874 23.767C2.36402 25.4966 1.96767 27.2045 1.75868 28.941C1.55688 30.5699 1.6362 32.2489 1.34075 33.8632C1.08131 35.2538 0.418305 36.5726 0.0219517 37.9417C-0.0717325 38.2662 0.158869 38.7128 0.0651846 39.0662C-0.00684547 39.3617 -0.107748 39.8515 -0.302334 40.1252C-0.381582 40.2406 -0.482484 40.3632 -0.446469 40.4929C-0.273499 41.1128 -1.50577 45.6741 -3.44427 45.2921C-5.33954 44.9105 -4.56126 40.7233 -4.30183 38.8643Z" fill="black"/>
<path d="M9.50584 26.4688C10.0319 24.5521 10.5796 22.6424 11.1272 20.7327C11.466 19.5581 11.9055 18.4195 12.0641 17.1944C12.1073 16.8557 11.9776 16.4666 12.2154 16.1855V16.1928C12.2658 15.8396 12.2731 15.4721 12.3811 15.1334C12.7991 13.8651 13.0874 12.4959 13.6207 11.3213C13.6423 11.278 13.5918 11.1844 13.6134 11.1195C13.7287 10.7808 14.1827 9.60617 14.4061 8.83508C14.925 7.04072 15.4943 5.26798 16.5608 3.64655C16.7266 3.39433 18.4201 -0.360181 19.9694 0.144255C21.5836 0.670308 20.8918 4.56895 20.6756 5.03738C20.1568 6.16155 19.4073 7.22087 19.3136 8.47478C19.1839 10.3124 18.4201 11.941 17.9589 13.6633C17.5481 15.2127 16.9788 16.7188 16.5752 18.2753C16.2005 19.7382 16.0924 21.2804 15.624 22.7144C15.2132 23.9467 14.4205 25.0564 13.8801 26.2526C13.7504 26.5338 13.9305 26.9733 13.8008 27.2906C13.6927 27.55 13.5414 27.9823 13.3252 28.2056C13.2315 28.2993 13.1162 28.3929 13.1378 28.5229C13.2387 29.1135 11.5308 33.106 9.64998 32.4718C7.81957 31.8523 9.05182 28.1335 9.50584 26.4688Z" fill="black"/>
<path d="M22.976 16.4658C23.9273 14.0805 24.9722 11.724 26.1252 9.42516C26.817 8.00553 27.6602 6.66516 28.2583 5.18786C28.424 4.78429 28.4384 4.28707 28.7843 3.9844L28.7771 3.99162C28.9645 3.56643 29.1014 3.11245 29.3537 2.73049C30.2761 1.26042 31.1552 -0.332176 32.2146 -1.62932C32.2578 -1.67977 32.2434 -1.79507 32.301 -1.87436C32.5749 -2.24187 33.5549 -3.56063 34.1819 -4.40376C35.5725 -6.39992 37.1075 -8.29518 39.0534 -9.8157C39.2049 -9.93821 40.2425 -10.9183 41.3883 -11.7182C42.5628 -12.5037 43.8312 -13.1018 44.415 -12.5325C45.0274 -11.9416 44.5951 -10.6516 43.9609 -9.46981C43.3485 -8.26635 42.5267 -7.15657 42.3034 -6.93315C41.7556 -6.3927 41.1646 -5.89545 40.6097 -5.355C40.0695 -4.80729 39.5793 -4.21639 39.2263 -3.52458C38.2173 -1.49962 36.7255 0.157863 35.5654 2.05313L33.9658 4.58252C33.4252 5.41846 32.9135 6.27602 32.4524 7.15519C31.5732 8.81264 31.0039 10.6214 30.1319 12.2644C29.3897 13.6841 28.2943 14.938 27.4944 16.3505C27.307 16.6819 27.3791 17.2152 27.1918 17.5899C27.0332 17.8998 26.7954 18.4187 26.5359 18.6781C26.4206 18.7862 26.291 18.9015 26.291 19.0528C26.2766 19.4059 25.6856 20.7895 24.8641 22.0002C24.0714 23.2181 23.0481 24.2774 22.1185 23.9387C21.2105 23.6 21.2033 22.2524 21.5132 20.7175C21.6861 19.9536 21.9383 19.1537 22.1978 18.4043C22.486 17.662 22.7743 16.9846 22.976 16.4658Z" fill="black"/>
</g>
<g clip-path="url(#clip3_29_63)">
<path d="M274.164 148.068L242.297 147.162C242.297 147.162 244.696 132.813 237 128.831C231.755 126.115 227.099 113.428 228.423 104.795C228.441 104.68 228.459 104.565 228.48 104.453C229.151 100.588 231.07 97.5946 234.739 96.7815C246.599 94.1554 255.063 96.1914 255.063 96.1914C255.063 96.1914 257.023 96.2162 259.926 96.7613C260.029 96.7793 260.133 96.7995 260.237 96.8221C268.455 98.4324 283.646 104.167 284.304 124.527C285.209 152.5 274.164 148.063 274.164 148.063V148.068Z" fill="#3F3D56"/>
<path d="M259.926 96.7635C259.872 98.223 259.54 99.6734 258.937 101.052C257.685 103.91 255.401 106.092 252.509 107.198C243.847 110.514 233.739 107.225 228.626 103.66C228.606 103.773 228.2 105.91 228.182 106.025C230.446 107.574 241.525 109.068 243.626 109.068C246.818 109.068 249.89 108.538 252.622 107.491C255.592 106.354 257.937 104.11 259.223 101.176C259.838 99.7748 260.176 98.3041 260.236 96.8221C260.133 96.7995 260.029 96.7793 259.926 96.7613V96.7635Z" fill="#00CBAC"/>
<path d="M262.282 98.6216L257.203 85.8491C257.203 85.8491 263.3 75.3986 258.509 74.2387C253.718 73.0766 248.784 79.3176 248.784 79.3176C248.784 79.3176 239.64 76.1239 236.158 78.7365C236.158 78.7365 230.351 70.6081 226.869 72.2049C223.385 73.8018 228.108 85.3086 228.108 85.3086C228.108 85.3086 220.919 95.8626 226.435 101.957C231.95 108.054 252.705 112.989 262.284 98.6194L262.282 98.6216Z" fill="#3F3D56"/>
<path d="M148.225 147.694H348V147.243H148.225C148.101 147.243 148 147.345 148 147.468C148 147.592 148.101 147.694 148.225 147.694Z" fill="#3F3D56"/>
<path d="M273.176 140.423C274.905 141.194 276.712 141.977 278.604 141.903C280.495 141.829 282.484 140.61 282.779 138.741C282.932 137.775 282.631 136.741 283 135.836C283.498 134.619 285.101 134.149 286.347 134.565C287.595 134.982 288.509 136.059 289.167 137.196C290.396 139.327 290.887 142.124 289.57 144.2C288.428 146 286.261 146.815 284.248 147.514C281.563 148.444 278.568 149.365 275.966 148.223C273.351 147.074 271.926 143.757 272.894 141.07" fill="#3F3D56"/>
<path d="M244.563 92.8806C244.563 92.8806 241.437 91.6306 239.408 93.1937L241.752 96.7883L244.565 92.8829L244.563 92.8806Z" fill="#00CBAC"/>
<path d="M228.155 109.286L233.937 140.07C233.937 140.07 225.187 148.977 236.437 148.82C247.687 148.664 244.405 142.883 244.405 142.883L240.811 116.162" fill="#3F3D56"/>
<path d="M236.153 149.047C233.106 149.047 231.264 148.349 230.673 146.968C229.599 144.455 233.097 140.624 233.696 139.993L229.809 116.98L230.252 116.905L234.178 140.144L234.097 140.225C234.056 140.266 230.056 144.381 231.088 146.791C231.617 148.029 233.412 148.635 236.435 148.592C240.635 148.534 243.342 147.653 244.266 146.047C245.097 144.601 244.219 143.007 244.209 142.991L244.189 142.953L244.182 142.91L241.682 124.315L242.128 124.255L244.624 142.809C244.773 143.09 245.55 144.714 244.66 146.268C243.64 148.047 240.874 148.982 236.441 149.043C236.345 149.043 236.25 149.043 236.155 149.043L236.153 149.047Z" fill="#2F2E41"/>
<path d="M242.842 109.286L248.624 140.07C248.624 140.07 239.874 148.977 251.124 148.82C262.374 148.664 259.092 142.883 259.092 142.883L255.498 116.162" fill="#3F3D56"/>
<path d="M250.84 149.047C247.793 149.047 245.95 148.349 245.36 146.968C244.286 144.459 247.777 140.633 248.381 139.995L246.059 127.608L246.502 127.525L248.867 140.142L248.784 140.225C248.743 140.266 244.743 144.381 245.775 146.791C246.304 148.029 248.101 148.637 251.122 148.592C255.324 148.534 258.034 147.653 258.955 146.043C259.786 144.592 258.905 143.007 258.896 142.991L258.874 142.953L255.275 116.189L255.721 116.128L259.309 142.809C259.457 143.09 260.234 144.714 259.345 146.268C258.324 148.047 255.559 148.982 251.126 149.043C251.029 149.043 250.935 149.043 250.84 149.043V149.047Z" fill="#2F2E41"/>
</g>
<rect x="116.5" y="30.5" width="89" height="89" rx="11.5" fill="white" stroke="#9F9F9F"/>
<circle cx="128" cy="44.5" r="2.5" fill="#EFEFEF"/>
<circle cx="139" cy="44.5" r="2.5" fill="#EFEFEF"/>
<circle cx="150" cy="44.5" r="2.5" fill="#EFEFEF"/>
<circle cx="161" cy="44.5" r="2.5" fill="#EFEFEF"/>
<circle cx="172" cy="44.5" r="2.5" fill="#EFEFEF"/>
<circle cx="183" cy="44.5" r="2.5" fill="#EFEFEF"/>
<circle cx="194" cy="44.5" r="2.5" fill="#EFEFEF"/>
<circle cx="128" cy="54.6667" r="2.5" fill="#EFEFEF"/>
<circle cx="139" cy="54.6667" r="2.5" fill="#EFEFEF"/>
<circle cx="150" cy="54.6667" r="2.5" fill="#00CBAC"/>
<circle cx="161" cy="54.6667" r="2.5" fill="#00CBAC"/>
<circle cx="172" cy="54.6667" r="2.5" fill="#00CBAC"/>
<circle cx="183" cy="54.6667" r="2.5" fill="#EFEFEF"/>
<circle cx="194" cy="54.6667" r="2.5" fill="#EFEFEF"/>
<circle cx="128" cy="64.8333" r="2.5" fill="#EFEFEF"/>
<circle cx="139" cy="64.8333" r="2.5" fill="#00CBAC"/>
<circle cx="150" cy="64.8333" r="2.5" fill="#EFEFEF"/>
<circle cx="161" cy="64.8333" r="2.5" fill="#EFEFEF"/>
<circle cx="172" cy="64.8333" r="2.5" fill="#EFEFEF"/>
<circle cx="183" cy="64.8333" r="2.5" fill="#00CBAC"/>
<circle cx="194" cy="64.8333" r="2.5" fill="#EFEFEF"/>
<circle cx="128" cy="75" r="2.5" fill="#EFEFEF"/>
<circle cx="139" cy="75" r="2.5" fill="#00CBAC"/>
<circle cx="150" cy="75" r="2.5" fill="#EFEFEF"/>
<circle cx="161" cy="75" r="2.5" fill="#EFEFEF"/>
<circle cx="172" cy="75" r="2.5" fill="#EFEFEF"/>
<circle cx="183" cy="75" r="2.5" fill="#00CBAC"/>
<circle cx="194" cy="75" r="2.5" fill="#EFEFEF"/>
<circle cx="128" cy="85.1667" r="2.5" fill="#EFEFEF"/>
<circle cx="139" cy="85.1667" r="2.5" fill="#00CBAC"/>
<circle cx="150" cy="85.1667" r="2.5" fill="#EFEFEF"/>
<circle cx="161" cy="85.1667" r="2.5" fill="#EFEFEF"/>
<circle cx="172" cy="85.1667" r="2.5" fill="#00705F"/>
<circle cx="183" cy="85.1667" r="2.5" fill="#00CBAC"/>
<circle cx="194" cy="85.1667" r="2.5" fill="#EFEFEF"/>
<circle cx="128" cy="95.3333" r="2.5" fill="#EFEFEF"/>
<circle cx="139" cy="95.3333" r="2.5" fill="#EFEFEF"/>
<circle cx="150" cy="95.3333" r="2.5" fill="#00CBAC"/>
<circle cx="161" cy="95.3333" r="2.5" fill="#00CBAC"/>
<circle cx="172" cy="95.3333" r="2.5" fill="#00CBAC"/>
<circle cx="183" cy="95.3333" r="2.5" fill="#00705F"/>
<circle cx="194" cy="95.3333" r="2.5" fill="#EFEFEF"/>
<circle cx="128" cy="105.5" r="2.5" fill="#EFEFEF"/>
<circle cx="139" cy="105.5" r="2.5" fill="#EFEFEF"/>
<circle cx="150" cy="105.5" r="2.5" fill="#EFEFEF"/>
<circle cx="161" cy="105.5" r="2.5" fill="#EFEFEF"/>
<circle cx="172" cy="105.5" r="2.5" fill="#EFEFEF"/>
<circle cx="183" cy="105.5" r="2.5" fill="#EFEFEF"/>
<circle cx="194" cy="105.5" r="2.5" fill="#00705F"/>
<path d="M132 30V15.84H134.16V30H132ZM134.88 30V15.84H135.6V30H134.88ZM136.32 30V15.84H137.04V30H136.32ZM139.2 30V15.84H141.36V30H139.2ZM142.08 30V15.84H142.8V30H142.08ZM135.984 32.088H136.704V32.16C136.672 32.192 136.648 32.232 136.632 32.28C136.632 32.312 136.632 32.384 136.632 32.496V34.464H138.792V32.088H139.536V32.16C139.504 32.192 139.48 32.232 139.464 32.28C139.464 32.312 139.464 32.384 139.464 32.496V37.656H138.792V35.016H136.632V37.656H135.984V32.088ZM143.531 30V15.84H145.691V30H143.531ZM146.411 30V15.84H147.131V30H146.411ZM147.851 30V15.84H150.011V30H147.851ZM150.731 30V15.84H151.451V30H150.731ZM153.611 30V15.84H154.331V30H153.611ZM149.291 37.752C148.651 37.752 148.163 37.504 147.827 37.008C147.475 36.512 147.299 35.808 147.299 34.896C147.299 34.016 147.475 33.32 147.827 32.808C148.179 32.312 148.667 32.064 149.291 32.064C149.915 32.064 150.403 32.312 150.755 32.808C151.107 33.32 151.283 34.016 151.283 34.896C151.283 35.808 151.107 36.512 150.755 37.008C150.419 37.504 149.931 37.752 149.291 37.752ZM149.291 37.2C149.723 37.2 150.051 37.008 150.275 36.624C150.515 36.224 150.635 35.648 150.635 34.896C150.635 34.192 150.515 33.632 150.275 33.216C150.035 32.816 149.707 32.616 149.291 32.616C148.875 32.616 148.547 32.816 148.307 33.216C148.067 33.632 147.947 34.192 147.947 34.896C147.947 35.648 148.059 36.224 148.283 36.624C148.523 37.008 148.859 37.2 149.291 37.2ZM155.062 30V15.84H155.783V30H155.062ZM156.503 30V15.84H158.663V30H156.503ZM159.383 30V15.84H160.103V30H159.383ZM162.263 30V15.84H162.983V30H162.263ZM163.703 30V15.84H165.863V30H163.703ZM159.023 32.088H160.607C161.215 32.088 161.671 32.208 161.975 32.448C162.295 32.688 162.455 33.024 162.455 33.456C162.455 33.728 162.383 33.976 162.239 34.2C162.079 34.424 161.871 34.584 161.615 34.68C161.935 34.792 162.191 34.976 162.383 35.232C162.575 35.504 162.671 35.792 162.671 36.096C162.671 36.576 162.495 36.96 162.143 37.248C161.807 37.52 161.287 37.656 160.583 37.656H159.023V32.088ZM160.511 34.392C161.391 34.392 161.831 34.096 161.831 33.504C161.831 33.248 161.727 33.04 161.519 32.88C161.327 32.704 161.023 32.616 160.607 32.616H159.623V34.392H160.511ZM160.703 37.104C161.567 37.104 161.999 36.752 161.999 36.048C161.999 35.296 161.511 34.92 160.535 34.92H159.623V37.104H160.703ZM166.594 30V15.84H167.314V30H166.594ZM168.034 30V15.84H170.194V30H168.034ZM170.914 30V15.84H171.634V30H170.914ZM173.794 30V15.84H174.514V30H173.794ZM175.234 30V15.84H177.394V30H175.234ZM170.554 32.088H172.138C172.746 32.088 173.202 32.208 173.506 32.448C173.826 32.688 173.986 33.024 173.986 33.456C173.986 33.728 173.914 33.976 173.77 34.2C173.61 34.424 173.402 34.584 173.146 34.68C173.466 34.792 173.722 34.976 173.914 35.232C174.106 35.504 174.202 35.792 174.202 36.096C174.202 36.576 174.026 36.96 173.674 37.248C173.338 37.52 172.818 37.656 172.114 37.656H170.554V32.088ZM172.042 34.392C172.922 34.392 173.362 34.096 173.362 33.504C173.362 33.248 173.258 33.04 173.05 32.88C172.858 32.704 172.554 32.616 172.138 32.616H171.154V34.392H172.042ZM172.234 37.104C173.098 37.104 173.53 36.752 173.53 36.048C173.53 35.296 173.042 34.92 172.066 34.92H171.154V37.104H172.234ZM178.125 30V15.84H180.285V30H178.125ZM182.445 30V15.84H183.165V30H182.445ZM183.885 30V15.84H186.045V30H183.885ZM186.765 30V15.84H187.485V30H186.765ZM188.205 30V15.84H188.925V30H188.205ZM183.621 35.472L181.893 32.088H182.613L183.981 34.8L185.205 32.088H185.877L184.293 35.472V37.656H183.621V35.472Z" fill="#666666"/>
</g>
<rect x="0.5" y="0.5" width="320" height="148" rx="7.5" stroke="black"/>
<defs>
<clipPath id="clip0_29_63">
<rect width="321" height="149" rx="8" fill="white"/>
</clipPath>
<clipPath id="clip1_29_63">
<rect width="500" height="82.9939" fill="white" transform="matrix(0 -1 1 0 -32 318)"/>
</clipPath>
<clipPath id="clip2_29_63">
<rect width="50" height="58.6466" fill="white" transform="translate(-5 -13)"/>
</clipPath>
<clipPath id="clip3_29_63">
<rect width="200" height="77.0473" fill="white" transform="translate(148 72)"/>
</clipPath>
</defs>
</svg>
