<svg width="321" height="149" viewBox="0 0 321 149" fill="none" xmlns="http://www.w3.org/2000/svg">
<g clip-path="url(#clip0_30_123)">
<g clip-path="url(#clip1_30_123)">
<path d="M151.31 123.584C149.805 123.585 148.311 123.331 146.891 122.833L146.785 122.796L146.872 122.389C144.302 117.354 145.189 110.435 149.139 104.745C152.733 99.5688 158.205 95.8006 163.033 92.4767C163.628 92.0674 164.33 91.8448 165.052 91.8373C165.773 91.8298 166.481 92.0377 167.083 92.4345C167.686 92.8312 168.157 93.3988 168.435 94.0645C168.713 94.7303 168.787 95.4639 168.646 96.1716L166.939 104.738C165.696 110.977 164.219 116.88 159.846 120.55C157.436 122.515 154.42 123.587 151.31 123.584Z" fill="#00CBAC"/>
<path d="M148.029 144.504C147.136 137.994 146.216 131.4 146.845 124.82C147.401 118.976 149.184 113.269 152.814 108.588C154.741 106.108 157.085 103.984 159.742 102.31C160.434 101.873 161.072 102.97 160.382 103.406C155.785 106.311 152.23 110.601 150.228 115.657C148.017 121.279 147.662 127.409 148.043 133.382C148.273 136.994 148.762 140.582 149.254 144.166C149.292 144.328 149.268 144.499 149.186 144.644C149.104 144.789 148.969 144.897 148.81 144.947C148.648 144.99 148.475 144.968 148.329 144.885C148.183 144.802 148.075 144.665 148.03 144.503L148.029 144.504Z" fill="#3F3D56"/>
<path d="M162.642 138.592C160.999 138.588 159.384 138.178 157.938 137.399C156.493 136.62 155.262 135.497 154.355 134.128L154.293 134.034L154.541 133.823C155.286 129.723 158.899 126.062 163.758 124.487C168.173 123.056 173.064 123.29 177.378 123.497C177.915 123.523 178.433 123.708 178.864 124.03C179.295 124.351 179.621 124.794 179.799 125.301C179.977 125.809 180 126.358 179.864 126.878C179.729 127.399 179.441 127.867 179.038 128.223L174.218 132.479C170.703 135.583 167.2 138.386 162.99 138.585C162.874 138.59 162.757 138.592 162.642 138.592Z" fill="#00CBAC"/>
<path d="M145.503 148.247C149.805 140.635 154.795 132.175 163.711 129.471C166.19 128.721 168.79 128.453 171.369 128.68C172.183 128.75 171.98 130.003 171.168 129.934C166.844 129.575 162.528 130.716 158.946 133.167C155.5 135.513 152.817 138.774 150.546 142.232C149.155 144.35 147.909 146.558 146.663 148.764C146.265 149.468 145.1 148.959 145.503 148.247Z" fill="#3F3D56"/>
<path d="M189.745 138.16C189.088 138.161 188.435 138.05 187.814 137.832L187.708 137.795L187.754 137.582C186.647 135.388 187.035 132.385 188.749 129.916C190.308 127.671 192.675 126.041 194.764 124.602C195.033 124.418 195.35 124.317 195.676 124.314C196.002 124.31 196.321 124.404 196.593 124.583C196.865 124.763 197.078 125.019 197.203 125.319C197.329 125.62 197.362 125.951 197.298 126.271L196.562 129.968C196.023 132.674 195.381 135.235 193.476 136.834C192.423 137.693 191.105 138.162 189.745 138.16Z" fill="#00CBAC"/>
<path d="M188.33 147.117C187.944 144.307 187.547 141.461 187.818 138.621C188.059 136.099 188.828 133.636 190.395 131.616C191.226 130.545 192.238 129.629 193.385 128.906C193.684 128.717 193.959 129.191 193.661 129.379C191.677 130.633 190.143 132.484 189.279 134.667C188.324 137.093 188.171 139.739 188.336 142.317C188.435 143.876 188.646 145.424 188.858 146.971C188.875 147.041 188.864 147.115 188.829 147.177C188.793 147.24 188.735 147.287 188.667 147.308C188.597 147.327 188.522 147.318 188.459 147.282C188.396 147.246 188.349 147.187 188.33 147.117L188.33 147.117Z" fill="#3F3D56"/>
<path d="M194.636 144.638C193.916 144.636 193.207 144.456 192.572 144.114C191.937 143.773 191.397 143.279 190.999 142.678L190.937 142.584L191.073 142.469C191.41 140.684 192.984 139.093 195.096 138.409C197.014 137.787 199.131 137.888 201 137.978C201.246 137.99 201.483 138.075 201.681 138.222C201.879 138.37 202.028 138.573 202.11 138.805C202.191 139.038 202.202 139.289 202.14 139.528C202.078 139.767 201.946 139.981 201.761 140.144L199.68 141.981C198.153 143.33 196.631 144.548 194.79 144.635C194.739 144.637 194.688 144.638 194.636 144.638Z" fill="#00CBAC"/>
<path d="M187.239 148.732C189.096 145.447 191.25 141.796 195.098 140.629C196.168 140.305 197.29 140.19 198.403 140.287C198.754 140.318 198.666 140.859 198.316 140.829C196.45 140.674 194.587 141.166 193.041 142.224C191.554 143.236 190.396 144.644 189.416 146.136C188.815 147.051 188.278 148.004 187.74 148.956C187.568 149.26 187.065 149.04 187.239 148.732Z" fill="#3F3D56"/>
<path d="M297.1 137.914C294.897 137.914 293.217 136.724 292.001 134.317C290.835 132.01 292.044 130.018 293.661 129.143C295.282 128.267 297.616 128.345 298.91 130.588C300.171 132.774 300.316 135.04 299.341 137.323L299.389 137.547L299.274 137.58C298.569 137.792 297.837 137.904 297.1 137.914Z" fill="#00CBAC"/>
<path d="M299.276 149.155C300.402 142.783 300.474 134.711 294.22 130.944C293.922 130.756 293.646 131.229 293.944 131.417C299.981 135.069 299.802 142.867 298.747 149.01C298.731 149.079 298.742 149.151 298.778 149.213C298.814 149.274 298.872 149.318 298.941 149.337C299.009 149.356 299.083 149.348 299.145 149.314C299.207 149.28 299.254 149.223 299.275 149.155L299.276 149.155Z" fill="#3F3D56"/>
<path d="M270.531 144.136C269.744 144.114 268.971 143.92 268.268 143.566C266.495 142.734 266.302 140.986 266.873 139.715C267.438 138.457 268.858 137.452 270.639 138.217C271.437 138.535 272.146 139.041 272.705 139.692C273.265 140.343 273.659 141.12 273.853 141.956L273.998 142.079L273.927 142.175C272.951 143.485 271.829 144.136 270.531 144.136Z" fill="#00CBAC"/>
<path d="M278.965 148.732C276.746 144.485 273.202 139.681 267.801 140.288C267.45 140.318 267.537 140.859 267.888 140.828C273.019 140.298 276.357 144.912 278.464 148.956C278.636 149.26 279.138 149.04 278.965 148.732Z" fill="#3F3D56"/>
<path d="M320.745 149.456H121.255C121.187 149.456 121.122 149.43 121.075 149.382C121.027 149.334 121 149.269 121 149.202C121 149.134 121.027 149.069 121.075 149.021C121.122 148.974 121.187 148.947 121.255 148.947H320.745C320.813 148.947 320.878 148.974 320.925 149.021C320.973 149.069 321 149.134 321 149.202C321 149.269 320.973 149.334 320.925 149.382C320.878 149.43 320.813 149.456 320.745 149.456Z" fill="#CACACA"/>
<path d="M272.847 132.641H206.35C206.283 132.641 206.218 132.614 206.17 132.566C206.122 132.519 206.096 132.454 206.096 132.386C206.096 132.319 206.122 132.254 206.17 132.206C206.218 132.158 206.283 132.132 206.35 132.132H272.847C272.915 132.132 272.98 132.158 273.027 132.206C273.075 132.254 273.102 132.319 273.102 132.386C273.102 132.454 273.075 132.519 273.027 132.566C272.98 132.614 272.915 132.641 272.847 132.641Z" fill="#CACACA"/>
<path d="M240.538 89.861L240.1 84.4109C240.059 84.2946 239.989 84.1905 239.897 84.1082C239.805 84.0258 239.693 83.9679 239.573 83.9397C239.453 83.9115 239.327 83.9139 239.208 83.9467C239.089 83.9795 238.98 84.0417 238.891 84.1275C235.378 84.9895 233.96 86.824 233.554 89.128C231.868 88.7706 230.134 88.6926 228.423 88.897C229.658 87.1389 229.573 85.3471 228.288 83.5246C228.252 83.4053 228.186 83.2972 228.097 83.2101C228.008 83.1231 227.898 83.0601 227.778 83.0269C227.658 82.9937 227.531 82.9914 227.41 83.0203C227.289 83.0492 227.177 83.1082 227.085 83.192C224.708 84.3932 223.046 85.8901 222.778 87.9646C219.793 89.5653 217.4 92.0801 215.948 95.1404C214.497 98.2007 214.065 101.645 214.714 104.97C215.363 108.294 217.061 111.322 219.557 113.611C222.053 115.9 225.217 117.33 228.585 117.689C231.953 118.049 235.347 117.32 238.271 115.61C241.194 113.899 243.493 111.297 244.829 108.185C246.166 105.073 246.47 101.615 245.698 98.3172C244.926 95.0195 243.117 92.0559 240.538 89.861Z" fill="#3F3D56"/>
<path d="M242.517 111.978C255.361 110.33 262.587 131.282 241.865 132.449C240.594 133.844 230.629 135.01 222.184 133.085C214.603 133.388 205.986 123.473 216.612 109.949L242.517 111.978Z" fill="#3F3D56"/>
<path d="M229.694 122.789V133.388H234.649L238.581 122.596" fill="#3F3D56"/>
<path d="M247.395 129.814C247.368 129.775 247.348 129.734 247.324 129.694C247.113 129.702 246.902 129.709 246.691 129.717L247.395 129.814Z" fill="#3F3D56"/>
<path d="M266.92 123.69C265.338 121.161 261.468 120.459 259.098 122.27C258.029 123.087 257.308 124.269 256.395 125.257C254.858 126.909 252.808 127.994 250.578 128.335C249.026 128.568 247.383 128.442 245.95 129.081C244.559 129.701 243.51 131.471 244.267 132.751C249.604 132.554 254.941 132.358 260.278 132.161C261.813 132.104 263.403 132.034 264.776 131.345C267.441 130.006 268.502 126.218 266.92 123.69Z" fill="#3F3D56"/>
<path d="M229.049 116.366C226.857 116.386 224.684 115.952 222.668 115.092C218.458 113.265 216.528 110.181 216.448 110.05C216.422 110.007 216.413 109.954 216.425 109.905C216.438 109.855 216.469 109.813 216.512 109.786C216.555 109.759 216.608 109.751 216.657 109.762C216.707 109.774 216.75 109.805 216.777 109.848C218.302 112.014 220.403 113.711 222.841 114.746C226.633 116.386 233.107 117.207 242.42 111.811C242.442 111.798 242.466 111.79 242.491 111.786C242.516 111.783 242.542 111.785 242.566 111.791C242.591 111.798 242.614 111.809 242.634 111.824C242.654 111.84 242.671 111.859 242.684 111.881C242.697 111.903 242.705 111.927 242.708 111.952C242.712 111.978 242.71 112.003 242.703 112.028C242.697 112.052 242.686 112.075 242.67 112.095C242.655 112.116 242.635 112.133 242.613 112.145C237.147 115.313 232.633 116.366 229.049 116.366Z" fill="white"/>
<path d="M229.887 106.56C229.528 106.56 229.185 106.417 228.931 106.164C228.678 105.91 228.535 105.566 228.535 105.208C228.535 105.157 228.555 105.108 228.591 105.072C228.628 105.036 228.677 105.016 228.728 105.016C228.779 105.016 228.828 105.036 228.864 105.072C228.9 105.108 228.921 105.157 228.921 105.208C228.921 105.464 229.023 105.709 229.204 105.89C229.386 106.071 229.631 106.172 229.887 106.172C230.143 106.172 230.388 106.071 230.569 105.89C230.751 105.709 230.853 105.464 230.853 105.208C230.853 105.157 230.874 105.108 230.91 105.072C230.946 105.036 230.995 105.016 231.046 105.016C231.097 105.016 231.146 105.036 231.182 105.072C231.219 105.108 231.239 105.157 231.239 105.208C231.239 105.566 231.096 105.91 230.843 106.164C230.589 106.417 230.245 106.56 229.887 106.56Z" fill="white"/>
<path d="M229.984 103.387C230.837 103.387 231.529 103.121 231.529 102.793C231.529 102.465 230.837 102.198 229.984 102.198C229.13 102.198 228.438 102.465 228.438 102.793C228.438 103.121 229.13 103.387 229.984 103.387Z" fill="white"/>
<path d="M219.591 102.836C220.033 102.307 220.586 101.881 221.211 101.589C221.836 101.297 222.518 101.145 223.208 101.145C223.898 101.145 224.579 101.297 225.204 101.589C225.829 101.881 226.382 102.307 226.824 102.836C227.574 102.121 228.094 101.2 228.32 100.189C228.545 99.1776 228.466 98.1223 228.092 97.1563C227.718 96.1903 227.066 95.3569 226.218 94.7615C225.37 94.1662 224.365 93.8356 223.329 93.8115C222.293 93.7875 221.274 94.0711 220.399 94.6265C219.525 95.1819 218.835 95.9841 218.416 96.9318C217.998 97.8794 217.87 98.9298 218.048 99.9503C218.227 100.971 218.704 101.915 219.419 102.665C219.475 102.723 219.532 102.781 219.591 102.836Z" fill="white"/>
<path d="M233.733 102.836C234.175 102.307 234.728 101.881 235.353 101.589C235.978 101.297 236.66 101.145 237.35 101.145C238.039 101.145 238.721 101.297 239.346 101.589C239.971 101.881 240.524 102.307 240.966 102.836C241.716 102.121 242.236 101.2 242.462 100.189C242.687 99.1776 242.608 98.1223 242.234 97.1563C241.86 96.1903 241.208 95.3569 240.36 94.7615C239.512 94.1662 238.507 93.8356 237.471 93.8115C236.435 93.7875 235.416 94.0711 234.541 94.6265C233.667 95.1819 232.977 95.9841 232.558 96.9317C232.14 97.8794 232.012 98.9298 232.19 99.9502C232.369 100.971 232.846 101.915 233.561 102.665C233.617 102.723 233.674 102.781 233.733 102.836Z" fill="white"/>
<path d="M220.911 101.359C221.906 101.359 222.713 100.552 222.713 99.5573C222.713 98.5623 221.906 97.7556 220.911 97.7556C219.916 97.7556 219.11 98.5623 219.11 99.5573C219.11 100.552 219.916 101.359 220.911 101.359Z" fill="#3F3D56"/>
<path d="M235.053 101.359C236.048 101.359 236.855 100.552 236.855 99.5573C236.855 98.5623 236.048 97.7556 235.053 97.7556C234.058 97.7556 233.251 98.5623 233.251 99.5573C233.251 100.552 234.058 101.359 235.053 101.359Z" fill="#3F3D56"/>
<path d="M237.518 106.649C238.39 106.649 239.097 105.942 239.097 105.07C239.097 104.198 238.39 103.492 237.518 103.492C236.646 103.492 235.939 104.198 235.939 105.07C235.939 105.942 236.646 106.649 237.518 106.649Z" fill="#FF6584"/>
<path d="M223.251 106.649C224.123 106.649 224.829 105.942 224.829 105.07C224.829 104.198 224.123 103.492 223.251 103.492C222.379 103.492 221.672 104.198 221.672 105.07C221.672 105.942 222.379 106.649 223.251 106.649Z" fill="#FF6584"/>
<path d="M206.379 132.305C207.012 131.91 206.565 130.049 205.38 128.147C204.194 126.246 202.72 125.024 202.086 125.42C201.452 125.815 201.899 127.677 203.084 129.578C204.27 131.479 205.745 132.701 206.379 132.305Z" fill="#3F3D56"/>
<path d="M212.84 119.277L204.232 128.344L206.477 132.21L214.603 127.354" fill="#3F3D56"/>
<path d="M227.895 136.048C228.004 135.31 226.296 134.445 224.079 134.117C221.863 133.788 219.977 134.121 219.868 134.86C219.758 135.599 221.467 136.464 223.683 136.792C225.9 137.12 227.785 136.787 227.895 136.048Z" fill="#3F3D56"/>
<path d="M222.153 122.688L223.487 135.119L227.878 136.031L229.448 126.575" fill="#3F3D56"/>
<path d="M241.527 135.793C243.755 135.552 245.495 134.755 245.415 134.012C245.335 133.27 243.464 132.863 241.236 133.104C239.008 133.345 237.268 134.142 237.348 134.885C237.428 135.627 239.299 136.034 241.527 135.793Z" fill="#3F3D56"/>
<path d="M236.491 122.53L240.915 134.223L245.394 133.999L244.531 124.452" fill="#3F3D56"/>
</g>
<rect x="116" y="29" width="90" height="90" rx="12" fill="white" stroke="#9F9F9F"/>
<circle cx="128" cy="43.5" r="2.5" fill="#EFEFEF"/>
<circle cx="139" cy="43.5" r="2.5" fill="#EFEFEF"/>
<circle cx="150" cy="43.5" r="2.5" fill="#EFEFEF"/>
<circle cx="161" cy="43.5" r="2.5" fill="#EFEFEF"/>
<circle cx="172" cy="43.5" r="2.5" fill="#EFEFEF"/>
<circle cx="183" cy="43.5" r="2.5" fill="#EFEFEF"/>
<circle cx="194" cy="43.5" r="2.5" fill="#EFEFEF"/>
<circle cx="128" cy="53.6667" r="2.5" fill="#EFEFEF"/>
<circle cx="139" cy="53.6667" r="2.5" fill="#EFEFEF"/>
<circle cx="150" cy="53.6667" r="2.5" fill="#00CBAC"/>
<circle cx="161" cy="53.6667" r="2.5" fill="#00CBAC"/>
<circle cx="172" cy="53.6667" r="2.5" fill="#00CBAC"/>
<circle cx="183" cy="53.6667" r="2.5" fill="#EFEFEF"/>
<circle cx="194" cy="53.6667" r="2.5" fill="#EFEFEF"/>
<circle cx="128" cy="63.8333" r="2.5" fill="#EFEFEF"/>
<circle cx="139" cy="63.8333" r="2.5" fill="#00CBAC"/>
<circle cx="150" cy="63.8333" r="2.5" fill="#EFEFEF"/>
<circle cx="161" cy="63.8333" r="2.5" fill="#EFEFEF"/>
<circle cx="172" cy="63.8333" r="2.5" fill="#EFEFEF"/>
<circle cx="183" cy="63.8333" r="2.5" fill="#00CBAC"/>
<circle cx="194" cy="63.8333" r="2.5" fill="#EFEFEF"/>
<circle cx="128" cy="74" r="2.5" fill="#EFEFEF"/>
<circle cx="139" cy="74" r="2.5" fill="#00CBAC"/>
<circle cx="150" cy="74" r="2.5" fill="#EFEFEF"/>
<circle cx="161" cy="74" r="2.5" fill="#EFEFEF"/>
<circle cx="172" cy="74" r="2.5" fill="#EFEFEF"/>
<circle cx="183" cy="74" r="2.5" fill="#00CBAC"/>
<circle cx="194" cy="74" r="2.5" fill="#EFEFEF"/>
<circle cx="128" cy="84.1667" r="2.5" fill="#EFEFEF"/>
<circle cx="139" cy="84.1667" r="2.5" fill="#00CBAC"/>
<circle cx="150" cy="84.1667" r="2.5" fill="#EFEFEF"/>
<circle cx="161" cy="84.1667" r="2.5" fill="#EFEFEF"/>
<circle cx="172" cy="84.1667" r="2.5" fill="#00705F"/>
<circle cx="183" cy="84.1667" r="2.5" fill="#00CBAC"/>
<circle cx="194" cy="84.1667" r="2.5" fill="#EFEFEF"/>
<circle cx="128" cy="94.3333" r="2.5" fill="#EFEFEF"/>
<circle cx="139" cy="94.3333" r="2.5" fill="#EFEFEF"/>
<circle cx="150" cy="94.3333" r="2.5" fill="#00CBAC"/>
<circle cx="161" cy="94.3333" r="2.5" fill="#00CBAC"/>
<circle cx="172" cy="94.3333" r="2.5" fill="#00CBAC"/>
<circle cx="183" cy="94.3333" r="2.5" fill="#00705F"/>
<circle cx="194" cy="94.3333" r="2.5" fill="#EFEFEF"/>
<circle cx="128" cy="104.5" r="2.5" fill="#EFEFEF"/>
<circle cx="139" cy="104.5" r="2.5" fill="#EFEFEF"/>
<circle cx="150" cy="104.5" r="2.5" fill="#EFEFEF"/>
<circle cx="161" cy="104.5" r="2.5" fill="#EFEFEF"/>
<circle cx="172" cy="104.5" r="2.5" fill="#EFEFEF"/>
<circle cx="183" cy="104.5" r="2.5" fill="#EFEFEF"/>
<circle cx="194" cy="104.5" r="2.5" fill="#00705F"/>
<path d="M121 29V14.84H121.72V29H121ZM122.44 29V14.84H124.6V29H122.44ZM125.32 29V14.84H126.04V29H125.32ZM126.76 29V14.84H128.92V29H126.76ZM131.08 29V14.84H131.8V29H131.08ZM126.736 36.752C126.016 36.752 125.432 36.512 124.984 36.032L125.32 35.48L125.344 35.408L125.416 35.432C125.416 35.448 125.424 35.48 125.44 35.528C125.44 35.56 125.456 35.6 125.488 35.648C125.504 35.68 125.536 35.712 125.584 35.744C125.92 36.032 126.336 36.176 126.832 36.176C127.152 36.176 127.424 36.088 127.648 35.912C127.872 35.72 127.984 35.496 127.984 35.24C127.984 35.064 127.944 34.912 127.864 34.784C127.8 34.672 127.68 34.56 127.504 34.448C127.328 34.336 127.056 34.2 126.688 34.04C126.144 33.832 125.752 33.592 125.512 33.32C125.288 33.048 125.176 32.744 125.176 32.408C125.176 31.992 125.328 31.656 125.632 31.4C125.936 31.144 126.344 31.016 126.856 31.016C127.16 31.016 127.448 31.08 127.72 31.208C127.976 31.336 128.208 31.504 128.416 31.712L128.008 32.264L127.96 32.216C127.96 32.2 127.952 32.176 127.936 32.144C127.936 32.096 127.92 32.056 127.888 32.024C127.872 31.976 127.84 31.936 127.792 31.904C127.664 31.776 127.512 31.68 127.336 31.616C127.176 31.568 126.984 31.544 126.76 31.544C126.472 31.544 126.248 31.624 126.088 31.784C125.912 31.944 125.824 32.136 125.824 32.36C125.824 32.536 125.856 32.688 125.92 32.816C126 32.944 126.136 33.064 126.328 33.176C126.52 33.304 126.808 33.44 127.192 33.584C127.72 33.808 128.088 34.032 128.296 34.256C128.488 34.496 128.584 34.792 128.584 35.144C128.584 35.416 128.52 35.672 128.392 35.912C128.248 36.152 128.04 36.352 127.768 36.512C127.48 36.672 127.136 36.752 126.736 36.752ZM132.531 29V14.84H133.251V29H132.531ZM133.971 29V14.84H134.691V29H133.971ZM135.411 29V14.84H137.571V29H135.411ZM138.291 29V14.84H140.451V29H138.291ZM142.611 29V14.84H143.331V29H142.611ZM137.907 31.64H136.347V31.088H140.187V31.64H138.555V36.656H137.907V31.64ZM144.062 29V14.84H146.223V29H144.062ZM146.943 29V14.84H147.663V29H146.943ZM148.383 29V14.84H149.103V29H148.383ZM151.263 29V14.84H151.983V29H151.263ZM152.703 29V14.84H154.863V29H152.703ZM150.711 35.024H148.911L148.359 36.656H147.735L149.775 30.992H149.847L151.911 36.656H151.263L150.711 35.024ZM150.543 34.544L149.823 32.432L149.079 34.544H150.543ZM155.594 29V14.84H157.754V29H155.594ZM158.474 29V14.84H159.194V29H158.474ZM159.914 29V14.84H160.634V29H159.914ZM161.354 29V14.84H163.514V29H161.354ZM165.674 29V14.84H166.394V29H165.674ZM159.626 31.088H161.258C161.898 31.088 162.362 31.232 162.65 31.52C162.954 31.792 163.106 32.184 163.106 32.696C163.106 33.016 163.002 33.32 162.794 33.608C162.586 33.896 162.314 34.088 161.978 34.184L163.274 36.656H162.578L161.33 34.208H160.25V36.656H159.626V31.088ZM161.33 33.656C161.714 33.656 162.002 33.568 162.194 33.392C162.37 33.232 162.458 33 162.458 32.696C162.458 32.392 162.37 32.144 162.194 31.952C162.002 31.776 161.714 31.688 161.33 31.688H160.25V33.656H161.33ZM167.125 29V14.84H167.845V29H167.125ZM168.565 29V14.84H169.285V29H168.565ZM170.005 29V14.84H172.165V29H170.005ZM172.885 29V14.84H175.045V29H172.885ZM177.205 29V14.84H177.925V29H177.205ZM172.501 31.64H170.941V31.088H174.781V31.64H173.149V36.656H172.501V31.64ZM178.656 29V14.84H180.816V29H178.656ZM181.536 29V14.84H182.256V29H181.536ZM182.976 29V14.84H185.136V29H182.976ZM187.296 29V14.84H188.016V29H187.296ZM188.736 29V14.84H189.456V29H188.736ZM182.712 31.088H186.12V31.64H183.288V33.464H185.64V34.04H183.288V36.104H186.096V36.656H182.712V31.088ZM190.188 29V14.84H192.348V29H190.188ZM193.068 29V14.84H193.788V29H193.068ZM194.508 29V14.84H195.228V29H194.508ZM195.948 29V14.84H198.108V29H195.948ZM200.268 29V14.84H200.988V29H200.268ZM194.22 31.088H195.852C196.492 31.088 196.956 31.232 197.243 31.52C197.548 31.792 197.7 32.184 197.7 32.696C197.7 33.016 197.596 33.32 197.388 33.608C197.18 33.896 196.908 34.088 196.572 34.184L197.868 36.656H197.172L195.924 34.208H194.844V36.656H194.22V31.088ZM195.924 33.656C196.308 33.656 196.596 33.568 196.788 33.392C196.964 33.232 197.052 33 197.052 32.696C197.052 32.392 196.964 32.144 196.788 31.952C196.596 31.776 196.308 31.688 195.924 31.688H194.844V33.656H195.924Z" fill="#009982"/>
<g clip-path="url(#clip2_30_123)">
<path d="M4.7795 148.139C3.19091 151.382 -0.434349 158.74 -4.34474 167.217C-8.26021 175.69 -12.3488 185.323 -15.1696 192.986C-16.7989 197.421 -18.3875 201.866 -19.7877 206.362C-21.193 210.858 -22.4608 215.4 -23.5759 219.972C-25.806 229.122 -27.3946 238.419 -28.2347 247.777C-29.0647 257.131 -29.1309 266.55 -28.2042 275.873C-27.2877 285.191 -25.3529 294.407 -22.2521 303.221C-22.028 303.918 -21.7327 304.651 -21.4425 305.43C-21.1421 306.204 -20.857 307.024 -20.5209 307.829C-19.8539 309.443 -19.192 311.102 -18.5504 312.564C-17.9496 314.045 -17.3845 315.339 -17.0637 316.301C-16.7429 317.263 -16.6614 317.89 -16.9364 317.981C-17.2215 318.078 -17.6747 317.798 -18.2602 317.177C-18.5555 316.866 -18.8865 316.469 -19.248 315.991C-19.4313 315.751 -19.6197 315.492 -19.8132 315.211C-19.9965 314.921 -20.1899 314.616 -20.3885 314.295C-20.7857 313.643 -21.2134 312.915 -21.6614 312.116C-22.0942 311.306 -22.5219 310.415 -22.9802 309.458C-23.4537 308.506 -23.8661 307.457 -24.3244 306.357C-24.7928 305.262 -25.2052 304.076 -25.6329 302.839C-27.7052 296.841 -29.192 290.649 -30.2256 284.402C-31.2796 278.149 -31.7938 271.826 -31.9516 265.512C-32.1197 259.193 -31.8396 252.879 -31.2694 246.611C-30.7042 240.339 -29.7928 234.117 -28.637 227.961C-26.9415 218.954 -24.6146 210.069 -21.7327 201.377C-18.8356 192.696 -15.5107 184.178 -11.9058 175.797C-4.70115 159.02 3.59824 142.798 11.6074 126.489C15.197 119.162 18.7663 111.83 22.1726 104.432C23.8529 100.725 25.5484 97.0239 27.137 93.2764C28.7714 89.5493 30.304 85.7866 31.7857 82.0035C37.6665 66.866 42.4119 51.2499 45.0545 35.2672C47.5341 20.2774 48.0993 4.93628 45.8539 -10.0281C45.5942 -11.9018 45.2378 -13.7552 44.8967 -15.6136C44.4995 -17.4568 44.1329 -19.3102 43.6543 -21.1381C43.2266 -22.9762 42.6767 -24.7837 42.1675 -26.5963C41.5718 -28.3885 41.0219 -30.191 40.3956 -31.9731C37.8651 -39.0963 34.7185 -46.0108 31.3172 -52.8285C25.4466 -64.5953 18.8376 -76.0973 13.1706 -88.1696C10.3498 -94.2185 7.76835 -100.374 5.70623 -106.79C3.69503 -113.21 2.30501 -119.819 1.64309 -126.52C1.3325 -129.672 1.0881 -133.159 1.08302 -136.739C1.07283 -140.313 1.30704 -143.979 1.84676 -147.442C2.27955 -150.298 3.07385 -154.096 4.30094 -157.767C5.50257 -161.449 7.15226 -164.977 8.62884 -167.457C8.93943 -167.997 9.25511 -168.541 9.61153 -169.066L10.6502 -170.654C11.3987 -171.678 12.1013 -172.722 12.8702 -173.674C13.7001 -174.809 14.5759 -175.741 15.3396 -176.606C16.1441 -177.426 16.8722 -178.154 17.5443 -178.755C18.2317 -179.341 18.8325 -179.835 19.3519 -180.237C19.8916 -180.614 20.3447 -180.904 20.7113 -181.113C22.1828 -181.948 22.2541 -181.454 21.2205 -179.814C20.9965 -179.458 21.1237 -179.346 21.0677 -179.101C21.0372 -178.979 20.9659 -178.826 20.7775 -178.597C20.6044 -178.353 20.3193 -178.022 19.8712 -177.564C19.7948 -177.487 19.6523 -177.335 19.581 -177.263L19.082 -176.729L18.6085 -176.169L17.6411 -175.059C17.0148 -174.31 16.4089 -173.536 15.7928 -172.783C14.6217 -171.214 13.4506 -169.641 12.4272 -167.956C10.3294 -164.621 8.54737 -161.016 7.29992 -157.192C5.74187 -152.513 4.82538 -147.615 4.37731 -142.681C4.15837 -140.211 4.082 -137.727 4.082 -135.242C4.12782 -132.757 4.22456 -130.272 4.47406 -127.798C4.71845 -125.323 5.03413 -122.854 5.4822 -120.405C5.68077 -119.178 5.95572 -117.961 6.20012 -116.739C6.49035 -115.527 6.73984 -114.31 7.07589 -113.109C7.68179 -110.695 8.43026 -108.317 9.22456 -105.96L9.84574 -104.198C10.0596 -103.613 10.2989 -103.032 10.5229 -102.447L11.8926 -98.9537C19.5504 -80.3997 30.6655 -63.3631 38.9598 -44.7277C41.5005 -39.0148 43.7612 -33.1493 45.5535 -27.1157C47.3101 -21.077 48.5983 -14.9059 49.413 -8.67877C50.2073 -2.44659 50.5688 3.83139 50.5331 10.0992C50.4771 16.367 50.0443 22.6196 49.306 28.8263C48.4557 35.6135 47.4017 42.4006 45.6808 49.1267L45.7113 49.0096C44.0922 56.0666 42.1268 63.0473 39.8457 69.9108C35.5127 82.8945 30.0647 95.7815 24.2246 108.271C18.4149 120.781 12.2591 132.94 6.45465 144.6C6.00659 145.517 5.44142 146.785 4.7795 148.139Z" fill="black"/>
</g>
<g clip-path="url(#clip3_30_123)">
<path d="M-4.30177 38.8643C-4.00631 36.7241 -3.68925 34.5838 -3.37217 32.4432C-3.1776 31.132 -2.87492 29.8346 -2.8605 28.4944C-2.8605 28.1267 -3.03347 27.7305 -2.83169 27.3917V27.3989C-2.82449 27.0098 -2.86052 26.6135 -2.78846 26.2387C-2.52182 24.812 -2.3993 23.2914 -2.01016 21.9438C-1.99575 21.8934 -2.05339 21.8069 -2.03897 21.7276C-1.96691 21.3457 -1.64985 20.0125 -1.52014 19.1478C-1.21746 17.1372 -0.85716 15.1411 0.00761414 13.2314C0.144531 12.9359 1.38401 8.63373 2.98382 8.92918C4.65566 9.23907 4.4251 13.534 4.26656 14.0673C3.88461 15.3572 3.26487 16.6111 3.32254 17.9731C3.40901 19.9621 2.83968 21.8357 2.58746 23.767C2.36408 25.4966 1.96773 27.2045 1.75874 28.941C1.55694 30.5699 1.63626 32.2489 1.34081 33.8632C1.08137 35.2538 0.418366 36.5726 0.0220127 37.9417C-0.0716715 38.2662 0.15893 38.7128 0.0652456 39.0662C-0.00678444 39.3617 -0.107687 39.8515 -0.302273 40.1252C-0.381521 40.2406 -0.482423 40.3632 -0.446408 40.4929C-0.273438 41.1128 -1.50571 45.6741 -3.44421 45.2921C-5.33948 44.9105 -4.56119 40.7233 -4.30177 38.8643Z" fill="black"/>
<path d="M9.50584 26.4688C10.0319 24.5521 10.5796 22.6424 11.1272 20.7327C11.466 19.5581 11.9055 18.4195 12.0641 17.1944C12.1073 16.8557 11.9776 16.4666 12.2154 16.1855V16.1928C12.2658 15.8396 12.2731 15.4721 12.3811 15.1334C12.7991 13.8651 13.0874 12.4959 13.6207 11.3213C13.6423 11.278 13.5918 11.1844 13.6134 11.1195C13.7287 10.7808 14.1827 9.60617 14.4061 8.83508C14.925 7.04072 15.4943 5.26798 16.5608 3.64655C16.7266 3.39433 18.4201 -0.360181 19.9694 0.144255C21.5836 0.670308 20.8918 4.56895 20.6756 5.03738C20.1568 6.16155 19.4073 7.22087 19.3136 8.47478C19.1839 10.3124 18.4201 11.941 17.9589 13.6633C17.5481 15.2127 16.9788 16.7188 16.5752 18.2753C16.2005 19.7382 16.0924 21.2804 15.624 22.7144C15.2132 23.9467 14.4205 25.0564 13.8801 26.2526C13.7504 26.5338 13.9305 26.9733 13.8008 27.2906C13.6927 27.55 13.5414 27.9823 13.3252 28.2056C13.2315 28.2993 13.1162 28.3929 13.1378 28.5229C13.2387 29.1135 11.5308 33.106 9.64998 32.4718C7.81957 31.8523 9.05182 28.1335 9.50584 26.4688Z" fill="black"/>
<path d="M22.976 16.4658C23.9273 14.0805 24.9722 11.724 26.1252 9.42516C26.817 8.00553 27.6602 6.66516 28.2583 5.18786C28.424 4.78429 28.4384 4.28707 28.7843 3.9844L28.7771 3.99162C28.9645 3.56643 29.1014 3.11245 29.3537 2.73049C30.2761 1.26042 31.1552 -0.332176 32.2146 -1.62932C32.2578 -1.67977 32.2434 -1.79507 32.301 -1.87436C32.5749 -2.24187 33.5549 -3.56063 34.1819 -4.40376C35.5725 -6.39992 37.1075 -8.29518 39.0534 -9.8157C39.2049 -9.93821 40.2425 -10.9183 41.3883 -11.7182C42.5628 -12.5037 43.8312 -13.1018 44.415 -12.5325C45.0274 -11.9416 44.5951 -10.6516 43.9609 -9.46981C43.3485 -8.26635 42.5267 -7.15657 42.3034 -6.93315C41.7556 -6.3927 41.1646 -5.89545 40.6097 -5.355C40.0695 -4.80729 39.5793 -4.21639 39.2263 -3.52458C38.2173 -1.49962 36.7255 0.157863 35.5654 2.05313L33.9658 4.58252C33.4252 5.41846 32.9135 6.27602 32.4524 7.15519C31.5732 8.81264 31.0039 10.6214 30.1319 12.2644C29.3897 13.6841 28.2943 14.938 27.4944 16.3505C27.307 16.6819 27.3791 17.2152 27.1918 17.5899C27.0332 17.8998 26.7954 18.4187 26.5359 18.6781C26.4206 18.7862 26.291 18.9015 26.291 19.0528C26.2766 19.4059 25.6856 20.7895 24.8641 22.0002C24.0714 23.2181 23.0481 24.2774 22.1185 23.9387C21.2105 23.6 21.2033 22.2524 21.5132 20.7175C21.6861 19.9536 21.9383 19.1537 22.1978 18.4043C22.486 17.662 22.7743 16.9846 22.976 16.4658Z" fill="black"/>
</g>
</g>
<rect x="0.5" y="0.5" width="320" height="148" rx="7.5" stroke="black"/>
<defs>
<clipPath id="clip0_30_123">
<rect width="321" height="149" rx="8" fill="white"/>
</clipPath>
<clipPath id="clip1_30_123">
<rect width="200" height="66.4563" fill="white" transform="translate(121 83)"/>
</clipPath>
<clipPath id="clip2_30_123">
<rect width="500" height="82.9939" fill="white" transform="matrix(0 -1 1 0 -32 318)"/>
</clipPath>
<clipPath id="clip3_30_123">
<rect width="50" height="58.6466" fill="white" transform="translate(-5 -13)"/>
</clipPath>
</defs>
</svg>
